<svg width="29" height="29" viewBox="0 0 29 29" fill="none" xmlns="http://www.w3.org/2000/svg">
<path d="M13.3889 24.2937L5.54063 16.392C5.37948 16.2242 5.28984 16.0004 5.29063 15.7677C5.29142 15.5351 5.38258 15.3118 5.54487 15.1452C5.71132 14.9814 5.93568 14.89 6.16917 14.8908C6.40266 14.8916 6.6264 14.9845 6.79173 15.1494L13.1466 21.5585L13.2048 4.41953C13.2055 4.18747 13.2985 3.96522 13.4631 3.80169C13.6278 3.63815 13.8507 3.54672 14.0827 3.54751C14.3148 3.5483 14.537 3.64124 14.7006 3.80589C14.8641 3.97054 14.9555 4.19341 14.9547 4.42547L14.8966 21.5644L21.2948 15.1986C21.4653 15.0597 21.6813 14.9891 21.901 15.0006C22.1206 15.0122 22.3281 15.105 22.4831 15.261C22.6381 15.4171 22.7295 15.6252 22.7395 15.8449C22.7496 16.0646 22.6775 16.2802 22.5374 16.4497L14.6357 24.2979C14.4693 24.4617 14.2449 24.5531 14.0114 24.5523C13.7779 24.5515 13.5542 24.4586 13.3889 24.2937Z" fill="#FD9E9E"/>
</svg>
