<svg width="30" height="31" viewBox="0 0 30 31" fill="none" xmlns="http://www.w3.org/2000/svg">
<path d="M15 2.84167C19 2.84167 19.5 2.84167 21.125 2.97083C25.25 3.1 27.125 5.16667 27.25 9.3C27.375 10.9792 27.375 11.3667 27.375 15.5C27.375 19.6333 27.375 20.15 27.25 21.7C27.125 25.8333 25.125 27.9 21.125 28.0292C19.5 28.1583 19.125 28.1583 15 28.1583C11 28.1583 10.5 28.1583 9 28.0292C4.875 27.9 3 25.8333 2.875 21.7C2.75 20.0208 2.75 19.6333 2.75 15.5C2.75 11.3667 2.75 10.85 2.875 9.3C3 5.16667 5 3.1 9 2.97083C10.5 2.84167 11 2.84167 15 2.84167ZM15 0C10.875 0 10.375 0 8.875 0.129167C3.375 0.3875 0.375 3.4875 0.125 9.17083C0 10.7208 0 11.2375 0 15.5C0 19.7625 0 20.2792 0.125 21.8292C0.375 27.5125 3.375 30.6125 8.875 30.8708C10.375 31 10.875 31 15 31C19.125 31 19.625 31 21.125 30.8708C26.625 30.6125 29.625 27.5125 29.875 21.8292C30 20.2792 30 19.7625 30 15.5C30 11.2375 30 10.7208 29.875 9.17083C29.625 3.4875 26.625 0.3875 21.125 0.129167C19.625 0 19.125 0 15 0ZM15 7.49167C10.75 7.49167 7.25 11.1083 7.25 15.5C7.25 19.8917 10.75 23.5083 15 23.5083C19.25 23.5083 22.75 19.8917 22.75 15.5C22.75 11.1083 19.25 7.49167 15 7.49167ZM15 20.6667C12.25 20.6667 10 18.3417 10 15.5C10 12.6583 12.25 10.3333 15 10.3333C17.75 10.3333 20 12.6583 20 15.5C20 18.3417 17.75 20.6667 15 20.6667ZM23 5.425C22 5.425 21.25 6.2 21.25 7.23333C21.25 8.26667 22 9.04167 23 9.04167C24 9.04167 24.75 8.26667 24.75 7.23333C24.75 6.2 24 5.425 23 5.425Z" fill="white"/>
</svg>
