<svg width="38" height="24" viewBox="0 0 38 24" fill="none" xmlns="http://www.w3.org/2000/svg">
<path d="M34.8333 3.2H23.75V0H34.8333V3.2ZM37.525 19.2C36.8917 21.28 34.3583 24 29.45 24C24.5417 24 20.5833 21.28 20.5833 14.88C20.5833 8.64 24.225 5.44 29.2917 5.44C34.2 5.44 37.2083 8.32 37.8417 12.48C38 13.28 38 14.4 38 16H25.3333C25.4917 21.12 30.875 21.28 32.6167 19.2H37.525ZM25.3333 12.8H33.25C33.0917 10.4 31.5083 9.28 29.2917 9.28C27.075 9.28 25.8083 10.4 25.3333 12.8ZM10.2917 24H0V0H11.0833C19.7917 0.16 19.95 8.64 15.3583 11.04C20.7417 13.12 20.9 24 10.2917 24ZM4.75 9.6H10.45C14.4083 9.6 15.0417 4.8 9.975 4.8H4.75V9.6ZM10.1333 14.4H4.75V19.2H9.975C14.8833 19.2 14.5667 14.4 10.1333 14.4Z" fill="white"/>
</svg>
