<svg width="22" height="22" viewBox="0 0 22 22" fill="none" xmlns="http://www.w3.org/2000/svg">
<path d="M10.9412 7.59416C9.04683 7.59416 7.50087 9.14426 7.50087 11.0437C7.50087 12.9432 9.04683 14.4933 10.9412 14.4933C12.8356 14.4933 14.3816 12.9432 14.3816 11.0437C14.3816 9.14426 12.8356 7.59416 10.9412 7.59416ZM21.2597 11.0437C21.2597 9.61524 21.2726 8.19971 21.1926 6.77382C21.1126 5.11762 20.7358 3.64775 19.5279 2.43665C18.3175 1.22297 16.8541 0.847738 15.2023 0.767516C13.7776 0.687294 12.3659 0.700233 10.9438 0.700233C9.51914 0.700233 8.10738 0.687294 6.6853 0.767516C5.03352 0.847738 3.56756 1.22556 2.35969 2.43665C1.14925 3.65034 0.775016 5.11762 0.695008 6.77382C0.614999 8.20229 0.627904 9.61783 0.627904 11.0437C0.627904 12.4696 0.614999 13.8877 0.695008 15.3136C0.775016 16.9698 1.15183 18.4397 2.35969 19.6508C3.57014 20.8645 5.03352 21.2397 6.6853 21.3199C8.10996 21.4001 9.52172 21.3872 10.9438 21.3872C12.3685 21.3872 13.7802 21.4001 15.2023 21.3199C16.8541 21.2397 18.32 20.8619 19.5279 19.6508C20.7384 18.4371 21.1126 16.9698 21.1926 15.3136C21.2752 13.8877 21.2597 12.4722 21.2597 11.0437ZM10.9412 16.3513C8.01189 16.3513 5.64777 13.9809 5.64777 11.0437C5.64777 8.10655 8.01189 5.73611 10.9412 5.73611C13.8706 5.73611 16.2347 8.10655 16.2347 11.0437C16.2347 13.9809 13.8706 16.3513 10.9412 16.3513ZM16.4515 6.7583C15.7675 6.7583 15.2152 6.2045 15.2152 5.51874C15.2152 4.83297 15.7675 4.27917 16.4515 4.27917C17.1354 4.27917 17.6877 4.83297 17.6877 5.51874C17.6879 5.68157 17.6561 5.84285 17.594 5.99334C17.532 6.14382 17.4409 6.28055 17.3261 6.39569C17.2112 6.51084 17.0749 6.60214 16.9248 6.66436C16.7747 6.72658 16.6139 6.7585 16.4515 6.7583Z" fill="white"/>
</svg>
