<svg width="18" height="23" viewBox="0 0 18 23" fill="none" xmlns="http://www.w3.org/2000/svg">
<path d="M0.587327 8.4231C0.587327 7.48158 0.751473 6.59209 1.07494 5.7619C1.38399 4.95555 1.84314 4.21548 2.42794 3.58114C3.01155 2.95512 3.6794 2.41379 4.41219 1.9728C5.16403 1.51674 5.97798 1.17268 6.82853 0.951396C7.68935 0.724753 8.57574 0.610455 9.46574 0.611333C10.8405 0.611333 12.1199 0.902989 13.3063 1.48388C14.4772 2.05418 15.4739 2.92938 16.1921 4.01802C16.9332 5.12534 17.3013 6.37788 17.3013 7.77444C17.3013 8.61189 17.2193 9.43119 17.0515 10.2323C16.8868 11.033 16.6249 11.8105 16.2718 12.5474C15.9352 13.2608 15.4951 13.9202 14.9659 14.5043C14.4339 15.0791 13.7897 15.538 13.0733 15.8525C12.2956 16.1942 11.4542 16.3662 10.6051 16.3571C10.0149 16.3571 9.42591 16.2179 8.84416 15.9384C8.2624 15.66 7.84479 15.2776 7.59374 14.7875C7.50563 15.1276 7.38494 15.6189 7.22441 16.2615C7.06992 16.9029 6.96612 17.3168 6.92026 17.5044C6.87198 17.6907 6.78266 18.0018 6.65231 18.4326C6.56391 18.7513 6.4505 19.0625 6.31316 19.3632L5.89796 20.1789C5.7184 20.5289 5.51767 20.8676 5.29689 21.193C5.07843 21.5101 4.80807 21.8889 4.48581 22.3245L4.30598 22.3887L4.18649 22.258C4.05734 20.8868 3.99096 20.0663 3.99096 19.7953C3.99096 18.9929 4.08631 18.0925 4.2746 17.0929C4.45926 16.0945 4.75135 14.8395 5.14361 13.3304C5.53587 11.8225 5.76037 10.9355 5.82071 10.6728C5.54432 10.1077 5.40431 9.36947 5.40431 8.46183C5.40431 7.73693 5.63001 7.05801 6.08263 6.41903C6.53644 5.78247 7.10975 5.46419 7.80496 5.46419C8.33723 5.46419 8.75001 5.64088 9.04572 5.99546C9.34263 6.34884 9.48747 6.79419 9.48747 7.33756C9.48747 7.91362 9.29677 8.74744 8.91295 9.83782C8.52914 10.9294 8.33844 11.7439 8.33844 12.2848C8.33844 12.833 8.53397 13.2917 8.92502 13.6511C9.31094 14.0107 9.8213 14.2056 10.348 14.1945C10.826 14.1945 11.2689 14.0856 11.6805 13.8665C12.0857 13.6539 12.4363 13.3503 12.7052 12.9795C13.2909 12.1738 13.7084 11.258 13.9327 10.2868C14.0486 9.7761 14.1379 9.29081 14.1934 8.83457C14.2526 8.37591 14.2779 7.94266 14.2779 7.5312C14.2779 6.02209 13.7999 4.84578 12.8501 4.00349C11.8954 3.1612 10.6522 2.74248 9.12296 2.74248C7.38373 2.74248 5.92934 3.30642 4.76462 4.43795C3.5987 5.56585 3.01211 6.99992 3.01211 8.73896C3.01211 9.12259 3.07005 9.49291 3.17988 9.85113C3.2873 10.2081 3.40438 10.4925 3.53111 10.7031C3.65663 10.91 3.77491 11.1121 3.88233 11.2985C3.99096 11.4849 4.04769 11.618 4.04769 11.6979C4.04769 11.9423 3.98372 12.2606 3.85457 12.6539C3.7206 13.0472 3.56249 13.2433 3.37179 13.2433C3.35368 13.2433 3.27885 13.23 3.1485 13.2021C2.69705 13.067 2.28936 12.8144 1.96688 12.47C1.62463 12.113 1.35454 11.693 1.1715 11.2332C0.988977 10.7749 0.846817 10.3015 0.746645 9.81845C0.638419 9.36134 0.584935 8.89292 0.587327 8.4231Z" fill="white"/>
</svg>
