<svg width="23" height="19" viewBox="0 0 23 19" fill="none" xmlns="http://www.w3.org/2000/svg">
<path d="M22.3007 2.8915C21.502 3.23697 20.6328 3.4856 19.7375 3.58243C20.667 3.02874 21.3631 2.15399 21.6952 1.12231C20.8229 1.64257 19.8674 2.00739 18.8709 2.20058C18.4545 1.75416 17.9508 1.39852 17.3912 1.15583C16.8317 0.913131 16.2283 0.788578 15.6187 0.789928C13.152 0.789928 11.1683 2.79467 11.1683 5.2548C11.1683 5.60026 11.2101 5.94573 11.2779 6.27811C7.58454 6.08444 4.29049 4.31524 2.10055 1.60648C1.70152 2.28986 1.49242 3.06797 1.49499 3.85985C1.49499 5.40921 2.28065 6.77537 3.47873 7.57883C2.77268 7.55095 2.08318 7.35637 1.46628 7.01091V7.06587C1.46628 9.23549 2.99584 11.0335 5.03439 11.447C4.65163 11.5467 4.25788 11.5977 3.86242 11.5988C3.57269 11.5988 3.29862 11.57 3.02194 11.5307C3.58574 13.2999 5.22754 14.585 7.18257 14.6268C5.653 15.8281 3.73713 16.5347 1.65682 16.5347C1.28357 16.5347 0.939023 16.5217 0.581429 16.4798C2.55472 17.7491 4.89605 18.4819 7.41748 18.4819C15.603 18.4819 20.0821 11.6825 20.0821 5.78085C20.0821 5.58718 20.0821 5.39351 20.069 5.19984C20.9356 4.56387 21.6952 3.7761 22.3007 2.8915Z" fill="white"/>
</svg>
