<svg xmlns="http://www.w3.org/2000/svg" width="146.952" height="281.691" viewBox="0 0 146.952 281.691">
  <g id="Сгруппировать_33" data-name="Сгруппировать 33" transform="matrix(0.966, 0.259, -0.259, 0.966, 51.076, -11.017)">
    <path id="Контур_556" data-name="Контур 556" d="M13.478,910.649c-8.435-19.03-16.869-38.107-24.6-57.846-7.254-18.546-14.508-36.028-14.181-56.975h0c5.12,7.32,11.512,11.891,17.677,17.546C2.238,822.163,7.5,833.2,9.055,849.243c1.085,11.521.475,23.33,1.058,34.744A226.664,226.664,0,0,0,13.478,910.649Zm2.24,9.743c.69.408,2.2.551,1.981-.2h0a214.814,214.814,0,0,1-5.536-44.027c-.18-10.986.14-21.867-1.578-32.656-4.244-27.586-23.394-31.164-35.4-50.256a.618.618,0,0,0-.205-.187,1.588,1.588,0,0,0-.189-.088h0c.055-1.156.131-2.324.237-3.5a.794.794,0,0,0-.462-.654c-.665-.393-1.807-.421-1.819.226-2.034,22.774,5.051,40.423,12.557,60.17,9.3,24.3,19.715,47.614,30.132,70.926A.8.8,0,0,0,15.718,920.392Z" transform="translate(86.349 -744.159)" fill="#8cbeaa" fill-rule="evenodd"/>
    <path id="Контур_557" data-name="Контур 557" d="M30.15,946.971c.646.382,2.087.4,1.969-.275l.113.067c-3.476-17.18-7.6-34-12.65-50.452-4.595-16.177-9-32.978-14.45-48.561-2.648-7.832-6.852-11.983-10.667-18.662-3.7-6.61-5.422-14.823-8.1-22.127-2.361-6.235-5-14.349-9.969-17.286a7.875,7.875,0,0,0-2.944-1.045c-1.034-.166-1.352.461-.7.847a1.979,1.979,0,0,0,.632.219,5.55,5.55,0,0,1,1.953.727c7.31,4.322,11.346,25.181,14.421,33.117C-7.527,830.307-3.272,834.3.024,840.491c2.89,5.763,4.5,12.62,6.488,19.139,8.481,28.623,17.678,57.111,23.342,87.017A.587.587,0,0,0,30.15,946.971Z" transform="translate(71.815 -770.733)" fill="#8cbeaa" fill-rule="evenodd"/>
    <path id="Контур_558" data-name="Контур 558" d="M36.084,907.67h0c.406-12.566.729-25.061,1.223-37.45.535-14.993,1.316-30.76,6.608-44.224,7.529-19.251,22.538-31.516,27.593-52.468h0c4.808,21.517,2.269,46.168-1.5,67.716-2.64,14.847-10.616,24.887-17.545,36.283C46.578,887.438,41.183,897.363,36.084,907.67Zm-1.937,5.864c.591.35,1.429.328,1.586-.174.021-.041.041-.077.059-.12h0l.1.031c.005-.086.007-.174.012-.26h0q9.542-19.577,20.612-37.7c6.405-10.594,13.364-19.944,15.773-33.639,4.109-23.39,6.746-50.23.215-73.087a.446.446,0,0,0-.03-.083h0a.765.765,0,0,0-.4-.485c-.632-.373-1.779-.386-1.9.3C66.245,793.28,48.162,806.005,40.64,828.3c-8.463,24.87-6.17,57.4-7.091,84.324A1.116,1.116,0,0,0,34.147,913.534Z" transform="translate(-33.549 -716.426)" fill="#8cbeaa" fill-rule="evenodd"/>
    <path id="Контур_559" data-name="Контур 559" d="M30.532,947.132c.665.393,1.9.386,1.877-.162l.113.067c-.578-32.434,16.934-57.481,25.128-86.2a243.341,243.341,0,0,0,7.662-45.444c1.3-13.988,2.252-29.464,8.389-41.328.159-.34-.083-.661-.455-.882-.577-.341-1.466-.445-1.683-.014-5.825,11.311-7.053,25.519-8.269,38.819-1.411,15.206-3.159,30.218-7.078,44.867C48.345,886.681,29.5,912.975,30.125,946.54A.7.7,0,0,0,30.532,947.132Z" transform="translate(-27.401 -755.184)" fill="#8cbeaa" fill-rule="evenodd"/>
    <path id="Контур_560" data-name="Контур 560" d="M30.937,964.913a1.107,1.107,0,0,0,1.753-.759C38,918.058,24.181,871.343,20.9,825.695a1.107,1.107,0,0,0-2.206.176c3.221,45.423,16.977,91.915,11.6,137.787A1.313,1.313,0,0,0,30.937,964.913Z" transform="translate(23.882 -824.68)" fill="#8cbeaa" fill-rule="evenodd"/>
    <path id="Контур_561" data-name="Контур 561" d="M14.546,833.691c-1.22-12.267-2.684-24.708-3.537-37.079a64.492,64.492,0,0,1,2.505-24.707c2.21-6.624,5.389-12.49,7.371-19.243,3.365-10.739,3.526-22.813,4.767-34.065,1.305-10.988,2.66-21.8,3.7-32.785h0c7.942,20.148,9.875,45.9,8.271,68.266C35.47,782.356,23.956,808.537,14.546,833.691Zm-1.13,5.83c.562.333,1.383.253,1.574-.354C25,811.517,38.224,783.015,40.01,751.611c1.273-23.771-1.094-50.069-10.348-70.659a.92.92,0,0,0-.324-.376h0c-.046-.033-.1-.068-.147-.1a1.12,1.12,0,0,0-1.687.441h0a.825.825,0,0,0-.062.433h0c-1.082,12.374-2.609,24.485-4.023,36.663-1.769,15.921-2.786,29.885-8.6,44.153-4.464,10.82-6.838,20.111-6.209,32.659.891,14.724,2.768,29.3,4.258,43.825A1.045,1.045,0,0,0,13.416,839.521Z" transform="translate(27.618 -554.888)" fill="#8cbeaa" fill-rule="evenodd"/>
    <path id="Контур_562" data-name="Контур 562" d="M15.979,839.081c.661.391,1.731.358,1.778-.37,1.231-15.5,6.425-28.655,10.248-42.993a265.559,265.559,0,0,0,6.584-35.57c2.666-23.506,3.13-48.124-1.588-71.2a.721.721,0,0,0-.385-.471c-.694-.41-2.042-.387-1.881.422,4.863,23.9,4.169,49.675,1.144,73.885a240.147,240.147,0,0,1-6.108,32.35c-3.822,14.339-9.067,27.652-10.3,43.147A.883.883,0,0,0,15.979,839.081Z" transform="translate(24.41 -562.44)" fill="#8cbeaa" fill-rule="evenodd"/>
  </g>
</svg>
