<svg xmlns="http://www.w3.org/2000/svg" xmlns:xlink="http://www.w3.org/1999/xlink" width="274.593" height="319.465" viewBox="0 0 274.593 319.465">
  <defs>
    <clipPath id="clip-path">
      <path id="Контур_200" data-name="Контур 200" d="M0,0H274.593V319.465H0Z" transform="translate(781.407)" fill="none"/>
    </clipPath>
  </defs>
  <g id="_8.1_Wirerame_Family_tree_1_" data-name="8.1_Wirerame_Family tree (1)" transform="translate(-781.407)" clip-path="url(#clip-path)">
    <path id="Контур_129" data-name="Контур 129" d="M830.559-59.41c-10.418-.856-19.969,2.21-28.72,11.5-54.52,57.745,7.727,164.372,96.475,171.661a118.615,118.615,0,0,0,33.224-1.982c105.211-21.5,183.079-24.58,209.8-72.041,23.994-42.679,6.714-73.785-40.811-77.688-23.353-1.918-54,2.727-90.648,15.8A106.645,106.645,0,0,1,964.8-6.179C909.072-10.755,865.068-56.576,830.559-59.41Z" fill="#fad3d4" fill-rule="evenodd"/>
    <path id="Контур_130" data-name="Контур 130" d="M830.225-33.157a10.216,10.216,0,0,0-2.07.043c-1.677.149-4.023,1.1-4.538,3.357a2.669,2.669,0,0,0,2.578,3.154,3.329,3.329,0,0,0,.634-.013,3.889,3.889,0,0,1,.965-.041,4.981,4.981,0,0,1,2.339.886,5.146,5.146,0,0,0,2.073.651,4.876,4.876,0,0,0,3.374-1.065c1.084-.772,2.445-3.251.824-4.532A12.173,12.173,0,0,0,830.225-33.157Z" fill="#fff" fill-rule="evenodd"/>
    <path id="Контур_131" data-name="Контур 131" d="M854.162-24.7a5.513,5.513,0,0,0-4.531,2.256c-1.128,1.915.708,2.927,1.956,3.029a3.859,3.859,0,0,1,2.839,1.954,4.862,4.862,0,0,0,2.368.842,4.6,4.6,0,0,0,2.424-.449c.857-.5,3.65-2.282,2.255-3.831a9.988,9.988,0,0,0-6.737-3.709A3.1,3.1,0,0,0,854.162-24.7Z" fill="#fff" fill-rule="evenodd"/>
    <path id="Контур_132" data-name="Контур 132" d="M810.4-14.186c-4.162-.342-6.138,6.668-.935,7.095C813.628-6.749,815.611-13.758,810.4-14.186Z" fill="#fff" fill-rule="evenodd"/>
    <path id="Контур_133" data-name="Контур 133" d="M834.029-14.55c-4.37-.359-6.346,6.66-1.144,7.087C837.054-7.12,839.03-14.139,834.029-14.55Z" fill="#fff" fill-rule="evenodd"/>
    <path id="Контур_134" data-name="Контур 134" d="M819.5,1a4.454,4.454,0,0,0-3.321,1.078c-1.078.772-2.426,2.956-.811,4.236a12.65,12.65,0,0,0,6,2.149,11.614,11.614,0,0,0,2.258-.037c1.476-.166,4.023-1.1,4.33-3.374.516-2.253-1.981-2.458-3.022-2.543a4.473,4.473,0,0,1-.971.031,5.068,5.068,0,0,1-2.34-.877A5.285,5.285,0,0,0,819.5,1Z" fill="#fff" fill-rule="evenodd"/>
    <path id="Контур_135" data-name="Контур 135" d="M850.909,5.789a7.368,7.368,0,0,0-5.289,1.574c-.227.268-1.072.486-.9,1.36-.025.572.814.641,1.23.675l2.5.205a10.723,10.723,0,0,0,5.289-1.574c.429-.252,1.078-.772,1.1-1.344-.183-.589-1.016-.657-1.432-.691Z" fill="#fff" fill-rule="evenodd"/>
    <path id="Контур_136" data-name="Контур 136" d="M879.282-6.567a5.524,5.524,0,0,0-4.531,2.256A2.277,2.277,0,0,0,876.7-1l.012-.286A7.977,7.977,0,0,1,882,2.022a4.739,4.739,0,0,0,2.54,1.069,3.751,3.751,0,0,0,2.454-.659c.857-.5,3.448-2.3,2.274-4.116a12.473,12.473,0,0,0-8.517-4.753c-.3-.024-.591-.039-.888-.036A3.166,3.166,0,0,0,879.282-6.567Z" fill="#fff" fill-rule="evenodd"/>
    <path id="Контур_137" data-name="Контур 137" d="M878.182,16.7a5.911,5.911,0,0,0-3.765,1.06c-.857.5-2.8,2.065-1.165,2.782l3.488,1.434a7.64,7.64,0,0,0,1.211.2A6.884,6.884,0,0,0,882,21.26c.65-.53,2.6-2.091.957-2.8l-3.28-1.417A5.459,5.459,0,0,0,878.182,16.7Z" fill="#fff" fill-rule="evenodd"/>
    <path id="Контур_138" data-name="Контур 138" d="M828.205,26.244a5.289,5.289,0,0,0-4.379,1.713c-1.3,1.04-1.172,2.772.5,2.91l-.208-.017a5.543,5.543,0,0,1,2.826,2.249,2.226,2.226,0,0,0,1.661.83,8.466,8.466,0,0,0,3.345-.706c.637-.235,3.436-2.022,2.25-3.554a8.807,8.807,0,0,0-5.085-3.286A6.168,6.168,0,0,0,828.205,26.244Z" fill="#fff" fill-rule="evenodd"/>
    <path id="Контур_139" data-name="Контур 139" d="M819.851,47.157c-2.705-.222-8.364,5.05-3.37,5.461C819.186,52.839,824.852,47.567,819.851,47.157Z" fill="#fff" fill-rule="evenodd"/>
    <path id="Контур_140" data-name="Контур 140" d="M842.511,65.619a4.611,4.611,0,0,0-4.361,2.844,2.673,2.673,0,0,0,1.919,3.887l5,.411a4.027,4.027,0,0,0,.569.093,5.237,5.237,0,0,0,4.55-2.541,2.85,2.85,0,0,0-2.115-4.19l-4.994-.41A4.109,4.109,0,0,0,842.511,65.619Z" fill="#fff" fill-rule="evenodd"/>
    <path id="Контур_141" data-name="Контур 141" d="M856.34,53.883c-2.5-.206-8.359,4.764-3.156,5.191C855.688,59.28,861.335,54.293,856.34,53.883Z" fill="#fff" fill-rule="evenodd"/>
    <path id="Контур_142" data-name="Контур 142" d="M855.2,34.282a5.323,5.323,0,0,0-3.7,1.121c-.857.5-2.609,2.368-.774,3.379l2.655,1.366a5.087,5.087,0,0,0,1.619.411,5.29,5.29,0,0,0,3.64-1.126c.857-.5,2.609-2.368.774-3.379L856.966,34.7A6.137,6.137,0,0,0,855.2,34.282Z" fill="#fff" fill-rule="evenodd"/>
    <path id="Контур_143" data-name="Контур 143" d="M890.546,48.373a9.329,9.329,0,0,0-3.272.583c-.643.234-3.436,2.022-2.25,3.554l5.584,6.2a2.387,2.387,0,0,0,1.766.913,5.546,5.546,0,0,0,3.033-.806c.637-.235,3.423-1.727,2.237-3.259L892.28,49.08A2.9,2.9,0,0,0,890.546,48.373Z" fill="#fff" fill-rule="evenodd"/>
    <path id="Контур_144" data-name="Контур 144" d="M882.924,70.891a3.933,3.933,0,0,0-3.582,1.816c-1.323,1.613-.823,4.522.817,5.231l4.062,2.629a3.77,3.77,0,0,0,1.516.467,4.47,4.47,0,0,0,3.768-1.754c1.115-1.63.823-4.522-.816-5.231l-4.069-2.629A4.2,4.2,0,0,0,882.924,70.891Z" fill="#fff" fill-rule="evenodd"/>
    <path id="Контур_145" data-name="Контур 145" d="M860.817,84.455a5.856,5.856,0,0,0-3.765,1.06c-.857.5-2.609,2.368-.969,3.076l2.655,1.366a5.057,5.057,0,0,0,1.619.411A5.29,5.29,0,0,0,864,89.241c.649-.52,2.389-2.1.761-3.093L862.3,84.8A5.064,5.064,0,0,0,860.817,84.455Z" fill="#fff" fill-rule="evenodd"/>
    <path id="Контур_146" data-name="Контур 146" d="M910.614,87.24a5.221,5.221,0,0,0-.977.012l-5.051.733c-1.482.452-3.662,2.568-3.345,4.889a3.24,3.24,0,0,0,3.07,2.519,3.749,3.749,0,0,0,1.421-.142l5.051-.733a4.454,4.454,0,0,0,3.333-4.6A3.6,3.6,0,0,0,910.614,87.24Z" fill="#fff" fill-rule="evenodd"/>
    <path id="Контур_147" data-name="Контур 147" d="M950.289,83.9a5.329,5.329,0,0,0-2.927.7l-1.715,1.007c-1.066.5-3.234,2.325-2.06,4.143a2.372,2.372,0,0,0,2.095,1.4,5.305,5.305,0,0,0,2.887-.707l1.721-1.006c1.065-.486,3.233-2.316,2.268-4.126A2.714,2.714,0,0,0,950.289,83.9Z" fill="#fff" fill-rule="evenodd"/>
    <path id="Контур_148" data-name="Контур 148" d="M935.72,70.859a9.566,9.566,0,0,0-6.885,2.47,3.131,3.131,0,0,0-.919,1.933,1.631,1.631,0,0,0,1.414,1.264,4.87,4.87,0,0,0,.723.115,5.866,5.866,0,0,0,3.53-.932h0a2.642,2.642,0,0,0,.268.031,4.622,4.622,0,0,0,3.5-1.138c.845-.217,2.824-2.35.969-3.076A8.131,8.131,0,0,0,935.72,70.859Z" fill="#fff" fill-rule="evenodd"/>
    <path id="Контур_149" data-name="Контур 149" d="M920.656,56.333a3.451,3.451,0,0,0-1.32.141l-8.492,3.032a4.593,4.593,0,0,0-3.352,4.888,3.422,3.422,0,0,0,3.039,2.924,2.724,2.724,0,0,0,1.446-.261l8.48-2.746c1.494-.738,3.65-2.282,3.137-4.906A3.124,3.124,0,0,0,920.656,56.333Z" fill="#fff" fill-rule="evenodd"/>
    <path id="Контур_150" data-name="Контур 150" d="M904.458,29.943c-1.645-.135-3.149.852-4.349,2.558-1.128,1.915.708,2.927,1.748,3.012l2.705.222a5.787,5.787,0,0,0,5.125-2.448c.919-1.933-.715-2.927-1.963-3.03l-2.705-.222A4.015,4.015,0,0,0,904.458,29.943Z" fill="#fff" fill-rule="evenodd"/>
    <path id="Контур_151" data-name="Контур 151" d="M904.026-2.406a4.546,4.546,0,0,0-3.943,1.9c-1.122,1.629-.83,4.522.817,5.231l9.006,4.191a3.915,3.915,0,0,0,1.523.458,4.469,4.469,0,0,0,3.761-1.755c1.323-1.613.823-4.522-.817-5.231l-9-4.469a4.765,4.765,0,0,0-1.347-.323Z" fill="#fff" fill-rule="evenodd"/>
    <path id="Контур_152" data-name="Контур 152" d="M933.43,25.484c-2.081-.171-3.827,1.407-4.355,3.945-.32,2.556,1.724,3.584,3.395,3.721l-.012.286,1.665.137c1.665.137,4.041-1.676,4.348-3.946a3.538,3.538,0,0,0-3.376-4.007Z" fill="#fff" fill-rule="evenodd"/>
    <path id="Контур_153" data-name="Контур 153" d="M958.874,12.028a4.752,4.752,0,0,0-4.49,2.546c-.932,2.218.45,4.053,1.907,4.173l5.2.427a4.029,4.029,0,0,0,.569.093,4.618,4.618,0,0,0,4.361-2.844,2.673,2.673,0,0,0-1.919-3.887l-5-.411A3.737,3.737,0,0,0,958.874,12.028Z" fill="#fff" fill-rule="evenodd"/>
    <path id="Контур_154" data-name="Контур 154" d="M955.873,37.942c-2.5-.205-8.347,4.487-3.138,4.915C955.233,43.062,961.076,38.369,955.873,37.942Z" fill="#fff" fill-rule="evenodd"/>
    <path id="Контур_155" data-name="Контур 155" d="M968.081,59.9a4.449,4.449,0,0,0-4.336,3.66c-.308,2.27,1.944,3.315,3.193,3.418l3.329.273a4.455,4.455,0,0,0,4.343-3.66c.32-2.556-1.743-3.3-3.2-3.418Z" fill="#fff" fill-rule="evenodd"/>
    <path id="Контур_156" data-name="Контур 156" d="M991.232,75.3c-2.705-.222-8.346,4.478-3.345,4.889C990.591,80.409,996.232,75.708,991.232,75.3Z" fill="#fff" fill-rule="evenodd"/>
    <path id="Контур_157" data-name="Контур 157" d="M1008.545,71.26c-4.169-.342-6.145,6.676-.936,7.1C1011.771,78.706,1013.747,71.687,1008.545,71.26Z" fill="#fff" fill-rule="evenodd"/>
    <path id="Контур_158" data-name="Контур 158" d="M1004.11,53.054c-1.792-.147-3.3.84-4.5,2.546-1.128,1.915.7,3.213,1.944,3.315l1.665.137c1.873.154,3.594-.852,5.125-2.448a2.205,2.205,0,0,0-1.944-3.315l-1.671-.137A4.81,4.81,0,0,0,1004.11,53.054Z" fill="#fff" fill-rule="evenodd"/>
    <path id="Контур_159" data-name="Контур 159" d="M992.409,38.647c-4.162-.342-6.15,6.963-.948,7.39C995.629,46.38,997.618,39.075,992.409,38.647Z" fill="#fff" fill-rule="evenodd"/>
    <path id="Контур_160" data-name="Контур 160" d="M973.21,42.808a5.836,5.836,0,0,0-4.9,2.189c-1.336,1.9.72,2.641,1.761,2.726l1.665.137A6.194,6.194,0,0,0,976.85,45.7c1.128-1.915-.928-2.667-1.969-2.753Z" fill="#fff" fill-rule="evenodd"/>
    <path id="Контур_161" data-name="Контур 161" d="M1007.366,20.655a33.607,33.607,0,0,0-9.808.62c-.845.217-4.206.515-4.489,2.213-.148.913.566,1.231,1.331,1.294a3.476,3.476,0,0,0,1.545-.2l.208.017a21.3,21.3,0,0,1,6.039-.374,18.95,18.95,0,0,1,3.357.572,5.612,5.612,0,0,0,.876.146,7.622,7.622,0,0,0,4.4-1.147c.429-.252,2.6-2.082.944-2.5A35.4,35.4,0,0,0,1007.366,20.655Z" fill="#fff" fill-rule="evenodd"/>
    <path id="Контур_162" data-name="Контур 162" d="M1031.779,22.364c-4.377-.359-6.157,6.953-1.156,7.364C1034.993,30.087,1036.773,22.775,1031.779,22.364Z" fill="#fff" fill-rule="evenodd"/>
    <path id="Контур_163" data-name="Контур 163" d="M1045.375,4.52c-.282-.023-.545-.026-.7-.039l-5.883.664a6.845,6.845,0,0,0-5.094,1.877c-.939,1.144-.062,1.568.757,1.635a2.211,2.211,0,0,0,.845-.069l5.883-.664a6.845,6.845,0,0,0,5.094-1.877C1047.275,4.833,1046.228,4.59,1045.375,4.52Z" fill="#fff" fill-rule="evenodd"/>
    <path id="Контур_164" data-name="Контур 164" d="M1021.916,42.505a6.213,6.213,0,0,0-5.113,2.162c-1.128,1.915.947,2.382,1.78,2.45l5.826.479a4.2,4.2,0,0,0,.582.085,5.523,5.523,0,0,0,4.531-2.256c1.323-1.613-.733-2.355-1.78-2.441Z" fill="#fff" fill-rule="evenodd"/>
    <path id="Контур_165" data-name="Контур 165" d="M1028.517,63.72c-2.3-.189-8.334,4.192-3.34,4.6C1027.681,68.528,1033.719,64.148,1028.517,63.72Z" fill="#fff" fill-rule="evenodd"/>
    <path id="Контур_166" data-name="Контур 166" d="M1031.4,79.124c-1.792-.147-3.3.84-4.5,2.546-.939,2.218.463,3.767,1.919,3.887l1.665.137a5.283,5.283,0,0,0,5.131-2.734,2.512,2.512,0,0,0-1.932-3.6l-1.665-.137A3.709,3.709,0,0,0,1031.4,79.124Z" fill="#fff" fill-rule="evenodd"/>
    <path id="Контур_167" data-name="Контур 167" d="M1063.413,63.708c-4.377-.359-6.182,7.534-.973,7.962C1066.81,72.029,1068.407,64.118,1063.413,63.708Z" fill="#fff" fill-rule="evenodd"/>
    <path id="Контур_168" data-name="Контур 168" d="M1057.544,47.948a5.329,5.329,0,0,0-4.386,1.713l-4.368,4.24a2.825,2.825,0,0,0,.652,4.357,6.2,6.2,0,0,0,.916.149,5.614,5.614,0,0,0,4.581-1.706l-.208-.017,4.361-4.232a2.717,2.717,0,0,0-.645-4.365A6.083,6.083,0,0,0,1057.544,47.948Z" fill="#fff" fill-rule="evenodd"/>
    <path id="Контур_169" data-name="Контур 169" d="M1053.589,30.18c-1.665-.137-8.737,3.872-5.2,4.163C1050.268,34.5,1057.334,30.487,1053.589,30.18Z" fill="#fff" fill-rule="evenodd"/>
    <path id="Контур_170" data-name="Контур 170" d="M1067.129-2.475a8.365,8.365,0,0,0-2.518.265l-6.765,1.739c-.857.5-3.612,1.425-3.479,3.157.055.9.748,1.227,1.561,1.294A7.03,7.03,0,0,0,1058.5,3.6l6.765-1.739c.845-.217,3.808-1.122,3.479-3.157C1068.689-2.107,1067.968-2.406,1067.129-2.475Z" fill="#fff" fill-rule="evenodd"/>
    <path id="Контур_171" data-name="Контур 171" d="M1083.491-9.108c-1.578-.13-3.144,1.028-4.278,2.647a3.038,3.038,0,0,0,2.115,4.19l6.616,1.691a4.029,4.029,0,0,0,.569.093,5.237,5.237,0,0,0,4.55-2.541,3.05,3.05,0,0,0-2.114-4.2l-6.609-1.69A3.124,3.124,0,0,0,1083.491-9.108Z" fill="#fff" fill-rule="evenodd"/>
    <path id="Контур_172" data-name="Контур 172" d="M1079.972,18.346a5.91,5.91,0,0,0-3.765,1.06c-1.078.772-2.389,2.108-.97,3.085l3.23,2.56a5.09,5.09,0,0,0,5.259-.716c.857-.5,2.376-1.813.97-3.085l-3.237-2.561A5.376,5.376,0,0,0,1079.972,18.346Z" fill="#fff" fill-rule="evenodd"/>
    <path id="Контур_173" data-name="Контур 173" d="M1078.123,47.362c-1.792-.147-3.3.84-4.5,2.546a2.437,2.437,0,0,0,1.931,3.61l.832.068a5.216,5.216,0,0,0,4.911-2.475,2.3,2.3,0,0,0-1.932-3.6l-.624-.051A4.811,4.811,0,0,0,1078.123,47.362Z" fill="#fff" fill-rule="evenodd"/>
    <path id="Контур_174" data-name="Контур 174" d="M1087.168,55.619a4.653,4.653,0,0,0-4.348,3.946c-.308,2.27,1.944,3.315,3.4,3.435l.832.068a4.653,4.653,0,0,0,4.348-3.946c.308-2.27-1.944-3.315-3.4-3.435Z" fill="#fff" fill-rule="evenodd"/>
    <path id="Контур_175" data-name="Контур 175" d="M1114.74,45.113a2.707,2.707,0,0,0-1,.057,4.963,4.963,0,0,0-4.507,2.785l-.932,2.218c-.711,1.95,2.618,2.223,3.242,2.274a5.937,5.937,0,0,0,4.526-3.071l.932-2.218C1117.515,45.739,1115.9,45.208,1114.74,45.113Z" fill="#fff" fill-rule="evenodd"/>
    <path id="Контур_176" data-name="Контур 176" d="M1098.04,35.052a5.417,5.417,0,0,0-2.686.566l-3.436,2.013c-1.286.764-3.038,2.628-2.085,4.715a2.967,2.967,0,0,0,2.465,1.563,5.46,5.46,0,0,0,2.719-.563l3.429-2.013c1.078-.772,3.038-2.628,1.877-4.732A2.6,2.6,0,0,0,1098.04,35.052Z" fill="#fff" fill-rule="evenodd"/>
    <path id="Контур_177" data-name="Контур 177" d="M1109.094,14.186a4.877,4.877,0,0,0-4.109,1.846l-.889,1.074c-1.3,1.041-.994,3.648.665,4.071a4.009,4.009,0,0,0,1.26.316,4.705,4.705,0,0,0,4.03-1.89l.882-1.075c1.09-1.058.786-3.665-.658-4.07A4.136,4.136,0,0,0,1109.094,14.186Z" fill="#fff" fill-rule="evenodd"/>
    <path id="Контур_178" data-name="Контур 178" d="M1105.676-8.351c-1.645-.135-3.162.823-4.538,2.255-1.128,1.915.733,2.355,1.773,2.441l8.33.684a6.577,6.577,0,0,0,5.321-2.154c.919-1.933-.948-2.373-1.988-2.458l-8.324-.684A4.168,4.168,0,0,0,1105.676-8.351Z" fill="#fff" fill-rule="evenodd"/>
    <path id="Контур_179" data-name="Контур 179" d="M1131.082,2.1c-2.5-.205-8.542,4.175-3.333,4.6,2.289.188,8.327-4.193,3.333-4.6Z" fill="#fff" fill-rule="evenodd"/>
    <path id="Контур_180" data-name="Контур 180" d="M1125.416,22.235a3.418,3.418,0,0,0-.647.012l-5.044.733c-1.677.149-4.016,1.1-4.336,3.669a2.848,2.848,0,0,0,3.2,3.132l5.044-.733c1.677-.149,4.023-1.1,4.343-3.669C1128.425,23.232,1126.712,22.342,1125.416,22.235Z" fill="#fff" fill-rule="evenodd"/>
    <path id="Контур_181" data-name="Контур 181" d="M1128.474,38.051c-2.5-.205-8.151,4.79-3.15,5.2C1127.821,43.457,1133.676,38.478,1128.474,38.051Z" fill="#fff" fill-rule="evenodd"/>
    <path id="Контур_182" data-name="Контур 182" d="M986.418,319.465h0c12.873-8.552,26.486-17.867,34.208-34.448,7.21-15.5,10.624-41.127,9.48-59.414C1008.223,249.205,992.776,282.374,986.418,319.465Z" fill="#b6702a" fill-rule="evenodd"/>
    <path id="Контур_183" data-name="Контур 183" d="M987.435,219.5h0c9.392-4.448,18.789-8.9,27.128-16.468,10.287-9.708,17.959-23.943,25.534-37.924l1.257-3.1c-12.455,9-25.376,17.993-34.895,32.217-2.505,3.664-4.691,7.4-7.15,11.255A82.542,82.542,0,0,1,987.435,219.5Z" fill="#b6702a" fill-rule="evenodd"/>
    <path id="Контур_184" data-name="Контур 184" d="M1042.743,162.019c.471.83.967,1.62,1.489,2.393h0l-.932-3.278Zm1.489,2.393,10.67,37.541c5.573,19.456,11.376,39.231,20.333,56.105l.028-23.672c-.032-10.358-.133-21.338-2.451-31.033a46.4,46.4,0,0,0-3.788-10.516C1062.722,180.888,1051.49,175.215,1044.233,164.412Z" fill="#b6702a" fill-rule="evenodd"/>
    <path id="Контур_185" data-name="Контур 185" d="M995.362,154.239h0c9.67-4.574,18.158-13.47,25.534-23.138,11.675-15.306,21.475-34.54,24.427-56.139h0c-4.213,7.928-10.871,12.988-16.544,18.994C1013.991,109.29,1004.536,132.141,995.362,154.239Zm49.961-79.278q.652-1.224,1.222-2.54l-.687-2.23Q1045.645,72.6,1045.323,74.962Z" fill="#b6702a" fill-rule="evenodd"/>
    <path id="Контур_186" data-name="Контур 186" d="M1046.7,66.01h0c.326.16.651.319.979.485h0l-.1-.67Zm2,5.69c3.53,14.766,11.86,26.965,19.756,38.366l32.655,46.535c4.372,6.3,8.787,12.762,10.725,20.871q.211.885.383,1.789h0a101.127,101.127,0,0,0-1.721-37.58q-.692-2.9-1.557-5.727c-4.489-12.972-10.78-24.5-18.7-33.817-12.307-15.561-26.755-27.723-42.565-35.642h0C1047.951,68.266,1048.3,70,1048.7,71.7Z" fill="#b6702a" fill-rule="evenodd"/>
    <path id="Контур_187" data-name="Контур 187" d="M1022.542,245.728c.494,2.066,2.878,5.505,3.187,4.664,14.179-41.042,21.031-88.285,23.627-133.4,1.683-28.505,1.493-57.507-4.81-83.874a132.95,132.95,0,0,0-16.135-39.768c-1.2-1.869-1.21-.85-.841.693a17.184,17.184,0,0,0,1.243,3.56c6.341,10.059,10.72,21.493,13.645,33.727,7.928,33.166,5.141,72.194,1.655,105.558-3.719,36.541-9.94,74.2-21.6,107.768a1.93,1.93,0,0,0,.028,1.07Z" fill="#b6702a" fill-rule="evenodd"/>
    <path id="Контур_188" data-name="Контур 188" d="M1049.915,138.325a27.571,27.571,0,0,1-.552-9.715,2.19,2.19,0,0,0,.012-.346h0c3.391,6.118,7.489,10.051,12.47,13.941,9.147,6.906,14.893,16.157,20.041,27.592h0C1071.025,164.788,1053.709,154.2,1049.915,138.325Zm-3.46-.578c4.947,20.693,26.279,33.986,39.573,39.389,1.236.546,1.12-1,.8-2.33a11.092,11.092,0,0,0-.507-1.6c-3.946-9.416-8.029-18.778-13.822-26.3-6.489-8.48-16.827-11.846-22.1-22.35-1.475-3.06-3.075-2.536-2.71-.242h0c-.893-1.184-1.839-1.7-2-.172A38.822,38.822,0,0,0,1046.455,137.747Z" fill="#b6702a" fill-rule="evenodd"/>
    <path id="Контур_189" data-name="Контур 189" d="M1040.7,218.925c-.961-4.02-.918-8.984-.52-13.768h0c.908,3.363,1.932,6.695,2.742,10.082a46.189,46.189,0,0,1,1.429,10.293h0A11.8,11.8,0,0,1,1040.7,218.925Zm-3.62,1.633c1.408,5.889,4.2,10.6,9.27,12.5.967.831,2.218-.367,2.176-1.826a46.936,46.936,0,0,0-1.488-15.265c-.942-3.941-2.124-7.807-3.072-11.772a57.4,57.4,0,0,1-1.556-9.494,4.928,4.928,0,0,0-.123-.782,4.754,4.754,0,0,0-.514-1.28h0a4.24,4.24,0,0,0-.1-1.638c-.66-2.76-3.47-5.579-4.053-2.169C1036.262,197.64,1034.727,210.735,1037.075,220.559Z" fill="#b6702a" fill-rule="evenodd"/>
    <path id="Контур_190" data-name="Контур 190" d="M1028.943,145.975a34,34,0,0,1,8.993-11.8h0A49.759,49.759,0,0,1,1028.943,145.975Zm-5.977,6.81c.488,2.041,1.988,4.749,3.161,4.056,9.1-5.946,16.162-16.261,20.173-28.8h0q1.012-.651,2.006-1.273c.414-.323.418-1.176.181-2.166-.509-2.127-2.135-4.846-3.21-4.075-.255.156-.509.318-.769.476h0c-.539-.513-1.03-.618-1.265.019h0l.139-.063c-.089.313-.182.627-.277.935h0c-9.466,6.089-18.693,14.031-20.292,29.47A4.5,4.5,0,0,0,1022.966,152.785Z" fill="#b6702a" fill-rule="evenodd"/>
    <path id="Контур_191" data-name="Контур 191" d="M1057.322,56.554c9.929.056,19.749,1.817,28.461,8h0C1076.317,65.705,1066.386,61.659,1057.322,56.554Zm-10.915-2.336a5.207,5.207,0,0,0,1.753,3.1l-.046-.191c13.282,8.589,30.023,18.144,44.917,12.9,1.208-.32,1.334-1.657,1.006-3.028a7.088,7.088,0,0,0-1.541-3.064c-13.082-13.535-29.294-15.1-45.284-13.793-.913.017-1.174.979-1.024,2.165h0A7.273,7.273,0,0,0,1046.407,54.218Z" fill="#b6702a" fill-rule="evenodd"/>
    <path id="Контур_192" data-name="Контур 192" d="M1016.92,87.51c4.25-14.469,13.3-25.322,24.256-29.188h0A107.966,107.966,0,0,1,1016.92,87.51Zm-5.428,6.351c.478,2,2,4.79,3.135,3.946,12.919-9,23.914-22.2,32.373-38.265a2.751,2.751,0,0,0,.045-1.866c-.054-.227-.124-.455-.2-.691h0c.656-.078,1.311-.135,1.968-.166.723-.067.783-1.164.479-2.436-.456-1.906-1.729-4.226-2.812-4.112-17.467.906-32.169,18.524-35.111,42.244A3.855,3.855,0,0,0,1011.493,93.861Z" fill="#b6702a" fill-rule="evenodd"/>
    <path id="Контур_193" data-name="Контур 193" d="M-23.367,798.616c8.435,19.03,16.869,38.107,24.6,57.846,7.254,18.546,14.508,36.028,14.181,56.975h0C10.3,906.117,3.9,901.546-2.262,895.891c-9.866-8.789-15.132-19.827-16.683-35.869C-20.03,848.5-19.42,836.692-20,825.278A226.666,226.666,0,0,0-23.367,798.616Zm-2.24-9.743c-.69-.408-2.2-.551-1.981.2h0A214.814,214.814,0,0,1-22.052,833.1c.18,10.986-.14,21.867,1.578,32.656,4.244,27.586,23.394,31.164,35.4,50.256a.618.618,0,0,0,.205.187,1.588,1.588,0,0,0,.189.088h0c-.055,1.156-.131,2.324-.237,3.5a.794.794,0,0,0,.462.654c.665.393,1.807.421,1.819-.226C19.4,897.447,12.315,879.8,4.81,860.05c-9.3-24.3-19.715-47.614-30.132-70.926a.8.8,0,0,0-.285-.252Z" fill="#8cbeaa" fill-rule="evenodd"/>
    <path id="Контур_194" data-name="Контур 194" d="M-25.506,788.867c-.646-.382-2.087-.4-1.969.275l-.113-.067c3.476,17.18,7.6,34,12.65,50.452,4.595,16.177,9,32.978,14.45,48.561,2.648,7.832,6.852,11.983,10.667,18.662,3.7,6.61,5.422,14.823,8.1,22.127,2.361,6.235,5,14.349,9.969,17.286a7.875,7.875,0,0,0,2.944,1.045c1.034.166,1.352-.461.7-.847a1.979,1.979,0,0,0-.632-.219,5.55,5.55,0,0,1-1.953-.727C22,941.091,17.96,920.233,14.885,912.3c-2.714-6.765-6.969-10.756-10.264-16.949-2.89-5.763-4.5-12.62-6.488-19.139-8.481-28.623-17.678-57.111-23.342-87.017A.587.587,0,0,0-25.506,788.867Z" fill="#8cbeaa" fill-rule="evenodd"/>
    <path id="Контур_197" data-name="Контур 197" d="M21.64,824.873a1.107,1.107,0,0,0-1.753.759c-5.312,46.1,8.509,92.811,11.789,138.459a1.107,1.107,0,0,0,2.206-.176C30.662,918.493,16.9,872,22.285,826.129A1.313,1.313,0,0,0,21.64,824.873Z" fill="#8cbeaa" fill-rule="evenodd"/>
  </g>
</svg>
