<svg xmlns="http://www.w3.org/2000/svg" xmlns:xlink="http://www.w3.org/1999/xlink" width="110.28" height="291.465" viewBox="0 0 110.28 291.465">
  <defs>
    <clipPath id="clip-path">
      <path id="Контур_490" data-name="Контур 490" d="M110.28,291.465H0V0H110.28Z" transform="translate(0 28)" fill="none"/>
    </clipPath>
  </defs>
  <g id="_8.1_Wirerame_Family_tree_1_" data-name="8.1_Wirerame_Family tree (1)" transform="translate(0 -28)" clip-path="url(#clip-path)">
    <g id="Сгруппировать_25" data-name="Сгруппировать 25" transform="translate(-82.183 81.594) rotate(-25)">
      <path id="Контур_459" data-name="Контур 459" d="M1025.3,68.324c2.3.189,8.334-4.192,3.34-4.6C1026.139,63.516,1020.1,67.9,1025.3,68.324Z" transform="translate(-940.591 187.421)" fill="#e6a157" fill-rule="evenodd"/>
      <path id="Контур_476" data-name="Контур 476" d="M1030.323,225.6h0c-12.873,8.552-26.486,17.867-34.208,34.448-7.21,15.5-10.624,41.127-9.48,59.414C1008.518,295.863,1023.964,262.694,1030.323,225.6Z" transform="translate(-903.51 -225.603)" fill="#e6a157" fill-rule="evenodd"/>
      <path id="Контур_477" data-name="Контур 477" d="M1041.354,162.013h0c-9.392,4.448-18.789,8.9-27.128,16.468-10.287,9.708-17.959,23.943-25.534,37.924l-1.257,3.1c12.455-9,25.376-17.993,34.895-32.217,2.505-3.664,4.691-7.4,7.15-11.255A82.544,82.544,0,0,1,1041.354,162.013Z" transform="translate(-915.558 -62.053)" fill="#e6a157" fill-rule="evenodd"/>
      <path id="Контур_478" data-name="Контур 478" d="M1075.263,257.174c-.471-.83-.967-1.62-1.489-2.393h0l.932,3.278Zm-1.489-2.393L1063.1,217.24c-5.573-19.456-11.376-39.231-20.333-56.105l-.028,23.672c.032,10.358.133,21.338,2.451,31.033a46.4,46.4,0,0,0,3.788,10.516C1055.284,238.3,1066.516,243.978,1073.774,254.781Z" transform="translate(-1004.776 -99.728)" fill="#e6a157" fill-rule="evenodd"/>
      <path id="Контур_479" data-name="Контур 479" d="M1046.545,70.191h0c-9.67,4.574-18.158,13.47-25.534,23.138-11.675,15.306-21.475,34.54-24.427,56.139h0c4.213-7.928,10.871-12.988,16.544-18.994C1027.916,115.141,1037.371,92.289,1046.545,70.191Zm-49.961,79.278q-.652,1.224-1.222,2.54l.687,2.23Q996.262,151.834,996.584,149.469Z" transform="translate(-928.677 95.035)" fill="#e6a157" fill-rule="evenodd"/>
      <path id="Контур_480" data-name="Контур 480" d="M1113.231,179.075h0c-.326-.16-.651-.319-.979-.485h0l.1.67Zm-2-5.69c-3.53-14.766-11.86-26.965-19.756-38.366L1058.82,88.484c-4.372-6.3-8.787-12.762-10.725-20.871q-.211-.885-.383-1.789h0a101.127,101.127,0,0,0,1.721,37.58q.692,2.9,1.557,5.727c4.489,12.972,10.78,24.5,18.7,33.817,12.307,15.561,26.755,27.723,42.565,35.642h0C1111.982,176.819,1111.638,175.088,1111.231,173.385Z" transform="translate(-1046.703 74.38)" fill="#e6a157" fill-rule="evenodd"/>
      <path id="Контур_481" data-name="Контур 481" d="M1050.168-2.863c-.494-2.066-2.878-5.505-3.187-4.664-14.179,41.042-21.031,88.285-23.627,133.4-1.683,28.505-1.493,57.507,4.81,83.874a132.95,132.95,0,0,0,16.135,39.768c1.2,1.869,1.21.85.841-.693a17.184,17.184,0,0,0-1.243-3.56c-6.341-10.059-10.72-21.493-13.645-33.727-7.928-33.166-5.141-72.194-1.655-105.558,3.719-36.541,9.94-74.2,21.6-107.768a1.93,1.93,0,0,0-.028-1.07Z" transform="translate(-959.479 76.6)" fill="#e6a157" fill-rule="evenodd"/>
      <path id="Контур_482" data-name="Контур 482" d="M1082.535,161.349a27.571,27.571,0,0,1,.552,9.715,2.19,2.19,0,0,0-.012.346h0c-3.391-6.118-7.489-10.051-12.47-13.941-9.147-6.906-14.893-16.157-20.041-27.592h0C1061.425,134.886,1078.741,145.476,1082.535,161.349Zm3.46.578c-4.947-20.693-26.279-33.986-39.573-39.389-1.236-.546-1.12,1-.8,2.33a11.092,11.092,0,0,0,.507,1.6c3.946,9.416,8.029,18.778,13.822,26.3,6.489,8.48,16.827,11.846,22.1,22.35,1.475,3.06,3.075,2.536,2.71.242h0c.893,1.184,1.839,1.7,2,.172A38.822,38.822,0,0,0,1085.995,161.927Z" transform="translate(-1019.22 19.791)" fill="#e6a157" fill-rule="evenodd"/>
      <path id="Контур_483" data-name="Контур 483" d="M1043.822,201.679c.961,4.02.918,8.984.52,13.768h0c-.908-3.363-1.932-6.695-2.742-10.082a46.189,46.189,0,0,1-1.429-10.293h0A11.8,11.8,0,0,1,1043.822,201.679Zm3.62-1.633c-1.408-5.889-4.2-10.6-9.27-12.5-.967-.831-2.218.367-2.176,1.826a46.936,46.936,0,0,0,1.488,15.265c.942,3.941,2.124,7.807,3.072,11.772a57.4,57.4,0,0,1,1.556,9.494,4.928,4.928,0,0,0,.123.782,4.754,4.754,0,0,0,.514,1.28h0a4.24,4.24,0,0,0,.1,1.638c.66,2.76,3.47,5.579,4.053,2.169C1048.255,222.963,1049.79,209.869,1047.442,200.045Z" transform="translate(-971.286 -101.139)" fill="#e6a157" fill-rule="evenodd"/>
      <path id="Контур_484" data-name="Контур 484" d="M1042.5,131.367a34,34,0,0,1-8.993,11.8h0A49.759,49.759,0,0,1,1042.5,131.367Zm5.977-6.81c-.488-2.041-1.988-4.749-3.161-4.056-9.1,5.946-16.162,16.261-20.173,28.8h0q-1.012.651-2.006,1.273c-.414.323-.418,1.176-.181,2.166.509,2.127,2.135,4.846,3.21,4.075.255-.156.509-.318.769-.476h0c.539.513,1.03.618,1.265-.019h0l-.139.063c.089-.313.182-.627.277-.935h0c9.466-6.089,18.693-14.031,20.292-29.47A4.5,4.5,0,0,0,1048.482,124.557Z" transform="translate(-958.218 42.123)" fill="#e6a157" fill-rule="evenodd"/>
      <path id="Контур_485" data-name="Контур 485" d="M1083.023,64.754c-9.929-.056-19.749-1.817-28.461-8h0C1064.028,55.6,1073.959,59.648,1083.023,64.754Zm10.915,2.336a5.207,5.207,0,0,0-1.753-3.1l.046.191c-13.282-8.589-30.023-18.144-44.917-12.9-1.208.32-1.334,1.657-1.006,3.028a7.088,7.088,0,0,0,1.541,3.064c13.082,13.535,29.294,15.1,45.284,13.793.913-.017,1.174-.979,1.024-2.165h0A7.273,7.273,0,0,0,1093.938,67.089Z" transform="translate(-1027.114 198.158)" fill="#e6a157" fill-rule="evenodd"/>
      <path id="Контур_486" data-name="Контур 486" d="M1043.886,60.719c-4.25,14.469-13.3,25.322-24.256,29.188h0A107.966,107.966,0,0,1,1043.886,60.719Zm5.427-6.351c-.478-2-2-4.79-3.135-3.946-12.919,9-23.914,22.2-32.373,38.265a2.751,2.751,0,0,0-.045,1.866c.054.227.124.455.2.691h0c-.656.078-1.311.135-1.968.166-.723.067-.783,1.164-.479,2.436.456,1.906,1.729,4.226,2.812,4.112,17.467-.906,32.169-18.524,35.111-42.244A3.851,3.851,0,0,0,1049.314,54.368Z" transform="translate(-947.576 171.237)" fill="#e6a157" fill-rule="evenodd"/>
    </g>
  </g>
</svg>
