<svg xmlns="http://www.w3.org/2000/svg" xmlns:xlink="http://www.w3.org/1999/xlink" width="386" height="133" viewBox="0 0 386 133">
  <defs>
    <clipPath id="clip-path">
      <rect id="Прямоугольник_76" data-name="Прямоугольник 76" width="105" height="105" transform="translate(779 593)" fill="#fff"/>
    </clipPath>
    <clipPath id="clip-path-2">
      <rect id="Прямоугольник_77" data-name="Прямоугольник 77" width="207" height="50" transform="translate(912 614)" fill="#fff"/>
    </clipPath>
  </defs>
  <g id="button5" transform="translate(-13370 -9363)">
    <rect id="Прямоугольник_75" data-name="Прямоугольник 75" width="386" height="133" rx="14" transform="translate(13370 9363)" fill="rgba(140,190,170,0.5)"/>
    <g id="Сгруппировать_66" data-name="Сгруппировать 66" transform="translate(12605 8784)" clip-path="url(#clip-path)">
      <circle id="Эллипс_10" data-name="Эллипс 10" cx="46.5" cy="46.5" r="46.5" transform="translate(785 599)" fill="none" stroke="#4edfbc" stroke-width="12"/>
      <path id="Контур_1272" data-name="Контур 1272" d="M787.37,658.744a5.856,5.856,0,0,0-3.936,7.873,52.5,52.5,0,1,0,56.7-72.9,5.857,5.857,0,0,0-6.662,5.754c-.151,3.545,2.621,6.49,6.1,7.212a39.649,39.649,0,1,1-43.7,56.2C794.306,659.685,790.769,657.724,787.37,658.744Z" fill="#fff"/>
      <path id="Контур_1273" data-name="Контур 1273" d="M823.438,639.625v.813L818.727,651H817.2l4.7-10.188H815.75v-1.187Zm10.335,7.547v1.187h-8.218v-.851l5.093-7.883h1.18l-1.266,2.281-3.367,5.266Zm-1.585-7.547V651h-1.446V639.625Zm3.773,2.789v-.6a2.485,2.485,0,0,1,.281-1.179,2.188,2.188,0,0,1,.8-.852,2.586,2.586,0,0,1,2.492,0,2.188,2.188,0,0,1,.8.852,2.485,2.485,0,0,1,.281,1.179v.6a2.454,2.454,0,0,1-.281,1.164,2.132,2.132,0,0,1-.8.852,2.313,2.313,0,0,1-1.242.32,2.393,2.393,0,0,1-1.258-.32,2.188,2.188,0,0,1-.8-.852A2.454,2.454,0,0,1,835.961,642.414Zm1.086-.6v.6a1.75,1.75,0,0,0,.133.68,1.248,1.248,0,0,0,.422.523,1.2,1.2,0,0,0,.7.2,1.168,1.168,0,0,0,.7-.2,1.22,1.22,0,0,0,.406-.523,1.75,1.75,0,0,0,.133-.68v-.6a1.689,1.689,0,0,0-.141-.687,1.148,1.148,0,0,0-1.109-.727,1.151,1.151,0,0,0-.7.2,1.2,1.2,0,0,0-.414.523A1.771,1.771,0,0,0,837.047,641.812Zm4.453,7.008v-.609a2.471,2.471,0,0,1,.281-1.172,2.179,2.179,0,0,1,.8-.851,2.579,2.579,0,0,1,2.492,0,2.179,2.179,0,0,1,.8.851,2.471,2.471,0,0,1,.281,1.172v.609a2.471,2.471,0,0,1-.281,1.172,2.126,2.126,0,0,1-.8.852,2.313,2.313,0,0,1-1.242.32,2.352,2.352,0,0,1-1.25-.32,2.246,2.246,0,0,1-.813-.852A2.471,2.471,0,0,1,841.5,648.82Zm1.086-.609v.609a1.809,1.809,0,0,0,.133.688,1.248,1.248,0,0,0,.422.523,1.2,1.2,0,0,0,.7.2,1.168,1.168,0,0,0,.7-.2,1.193,1.193,0,0,0,.414-.523,1.772,1.772,0,0,0,.133-.688v-.609a1.691,1.691,0,0,0-.141-.688,1.248,1.248,0,0,0-1.812-.515,1.222,1.222,0,0,0-.414.515A1.772,1.772,0,0,0,842.586,648.211Zm1.6-6.969-5.555,8.891-.813-.516,5.555-8.89Z" fill="#fff"/>
    </g>
    <g id="Сгруппировать_67" data-name="Сгруппировать 67" transform="translate(12605 8784)" clip-path="url(#clip-path-2)">
      <path id="Контур_1274" data-name="Контур 1274" d="M925.987,619.359V635h-2.675V619.359Zm4.909,0v2.149h-12.45v-2.149Zm.807,9.958v-.247a7.21,7.21,0,0,1,.365-2.331,5.558,5.558,0,0,1,1.053-1.88,4.761,4.761,0,0,1,1.7-1.246,5.976,5.976,0,0,1,4.555,0,4.731,4.731,0,0,1,1.708,1.246,5.448,5.448,0,0,1,1.064,1.88,7.21,7.21,0,0,1,.365,2.331v.247a7.21,7.21,0,0,1-.365,2.331,5.57,5.57,0,0,1-1.064,1.88,4.911,4.911,0,0,1-1.7,1.246,5.56,5.56,0,0,1-2.267.441,5.663,5.663,0,0,1-2.288-.441,4.911,4.911,0,0,1-1.7-1.246,5.57,5.57,0,0,1-1.064-1.88A7.21,7.21,0,0,1,931.7,629.317Zm2.589-.247v.247a6.609,6.609,0,0,0,.161,1.483,3.777,3.777,0,0,0,.505,1.224,2.5,2.5,0,0,0,.881.828,2.58,2.58,0,0,0,1.278.3,2.474,2.474,0,0,0,1.246-.3,2.5,2.5,0,0,0,.881-.828,3.755,3.755,0,0,0,.505-1.224,6.17,6.17,0,0,0,.172-1.483v-.247a5.994,5.994,0,0,0-.172-1.461,3.731,3.731,0,0,0-.516-1.235,2.466,2.466,0,0,0-.88-.838,2.422,2.422,0,0,0-1.257-.311,2.417,2.417,0,0,0-2.138,1.149,3.915,3.915,0,0,0-.505,1.235A6.42,6.42,0,0,0,934.292,629.07Zm18.478,3.524V618.5h2.6V635h-2.352Zm-7.563-3.277v-.225a8.688,8.688,0,0,1,.312-2.406,5.636,5.636,0,0,1,.9-1.88,3.966,3.966,0,0,1,1.439-1.214,4.167,4.167,0,0,1,1.912-.43,3.993,3.993,0,0,1,1.848.408,3.849,3.849,0,0,1,1.354,1.171,6.085,6.085,0,0,1,.891,1.8,11.857,11.857,0,0,1,.473,2.32v.72a11.6,11.6,0,0,1-.473,2.277,6.112,6.112,0,0,1-.891,1.783,3.856,3.856,0,0,1-1.365,1.161,4.016,4.016,0,0,1-1.858.408,4.057,4.057,0,0,1-1.9-.441,4.194,4.194,0,0,1-1.429-1.235,5.8,5.8,0,0,1-.9-1.869A8.484,8.484,0,0,1,945.207,629.317Zm2.589-.225v.225a7.389,7.389,0,0,0,.14,1.483,4.1,4.1,0,0,0,.461,1.214,2.176,2.176,0,0,0,2.009,1.106,2.524,2.524,0,0,0,1.45-.387,2.631,2.631,0,0,0,.892-1.042,4.848,4.848,0,0,0,.451-1.482v-1.944a4.746,4.746,0,0,0-.268-1.182,3.167,3.167,0,0,0-.527-.956,2.222,2.222,0,0,0-.827-.645,2.6,2.6,0,0,0-1.149-.236,2.266,2.266,0,0,0-1.2.3,2.432,2.432,0,0,0-.817.827,4.107,4.107,0,0,0-.462,1.225A7.1,7.1,0,0,0,947.8,629.092Zm17.833,3.577v-5.543a2.37,2.37,0,0,0-.226-1.074,1.571,1.571,0,0,0-.687-.7,2.351,2.351,0,0,0-1.139-.248,2.585,2.585,0,0,0-1.1.215,1.787,1.787,0,0,0-.719.58,1.4,1.4,0,0,0-.258.828h-2.578a2.871,2.871,0,0,1,.333-1.333,3.566,3.566,0,0,1,.967-1.149,4.825,4.825,0,0,1,1.514-.795,6.309,6.309,0,0,1,1.977-.29,5.749,5.749,0,0,1,2.32.441,3.524,3.524,0,0,1,1.6,1.332,3.884,3.884,0,0,1,.591,2.212v5.167a8.559,8.559,0,0,0,.107,1.429,4.625,4.625,0,0,0,.333,1.085V635h-2.653a4.542,4.542,0,0,1-.29-1.063A8.62,8.62,0,0,1,965.629,632.669Zm.376-4.737.021,1.6h-1.858a5.168,5.168,0,0,0-1.268.14,2.608,2.608,0,0,0-.913.387,1.675,1.675,0,0,0-.548.623,1.831,1.831,0,0,0-.182.827,1.706,1.706,0,0,0,.215.848,1.5,1.5,0,0,0,.623.591,2.192,2.192,0,0,0,1.009.215,2.819,2.819,0,0,0,2.332-1.128,1.758,1.758,0,0,0,.365-.913l.838,1.149a3.929,3.929,0,0,1-.441.946,4.591,4.591,0,0,1-.816.967,4.048,4.048,0,0,1-2.782,1.031,4.446,4.446,0,0,1-2.031-.451,3.606,3.606,0,0,1-1.4-1.236,3.2,3.2,0,0,1-.5-1.772,3.7,3.7,0,0,1,.344-1.633,3.194,3.194,0,0,1,1.031-1.2,5,5,0,0,1,1.676-.731,9.008,9.008,0,0,1,2.256-.257Zm9.132,5.8,3.158-10.355h2.771L976.4,636.772a8.978,8.978,0,0,1-.419.935,4.244,4.244,0,0,1-.676.956,3.012,3.012,0,0,1-1.021.741,3.43,3.43,0,0,1-1.482.29,3.376,3.376,0,0,1-.666-.064q-.312-.054-.591-.118l-.011-1.977.258.022c.107.007.193.01.258.01a3.077,3.077,0,0,0,1.074-.161,1.49,1.49,0,0,0,.7-.494,2.929,2.929,0,0,0,.473-.924Zm-1.783-10.355,2.76,8.7.462,2.729-1.794.462-4.221-11.892Zm12.827-4.877v1.515a4.4,4.4,0,0,1-.247,1.407,6.042,6.042,0,0,1-.666,1.386,5.447,5.447,0,0,1-.989,1.138l-1.3-.816a6.634,6.634,0,0,0,.709-1.407,4.8,4.8,0,0,0,.28-1.687V618.5Zm8.132,13.353a1.3,1.3,0,0,0-.193-.7,1.654,1.654,0,0,0-.741-.58,7.166,7.166,0,0,0-1.59-.472,13.856,13.856,0,0,1-1.7-.484,5.365,5.365,0,0,1-1.311-.7,2.927,2.927,0,0,1-.848-.967,2.67,2.67,0,0,1-.3-1.289,3.015,3.015,0,0,1,.311-1.343,3.4,3.4,0,0,1,.892-1.117,4.369,4.369,0,0,1,1.407-.763,5.9,5.9,0,0,1,1.869-.279,5.8,5.8,0,0,1,2.5.494,3.772,3.772,0,0,1,1.612,1.322,3.263,3.263,0,0,1,.558,1.869H994.2a1.72,1.72,0,0,0-.924-1.515,2.351,2.351,0,0,0-1.16-.258,2.52,2.52,0,0,0-1.106.215,1.516,1.516,0,0,0-.645.537,1.374,1.374,0,0,0-.2.731,1.253,1.253,0,0,0,.108.526,1.234,1.234,0,0,0,.386.419,3.2,3.2,0,0,0,.731.344,10.551,10.551,0,0,0,1.181.311,10.753,10.753,0,0,1,2.289.72,3.66,3.66,0,0,1,1.482,1.117,2.754,2.754,0,0,1,.516,1.719,3.043,3.043,0,0,1-.333,1.418,3.215,3.215,0,0,1-.946,1.106,4.746,4.746,0,0,1-1.493.72,6.713,6.713,0,0,1-1.933.258,5.83,5.83,0,0,1-2.675-.559,4.252,4.252,0,0,1-1.665-1.45,3.428,3.428,0,0,1-.559-1.848h2.5a1.941,1.941,0,0,0,.4,1.15,2.134,2.134,0,0,0,.9.612,3.535,3.535,0,0,0,1.128.183,3.264,3.264,0,0,0,1.171-.183,1.677,1.677,0,0,0,.719-.516A1.226,1.226,0,0,0,994.313,631.853Zm18.477-2.686h-4.07v-2.138h4.07a3.717,3.717,0,0,0,1.72-.343,2.138,2.138,0,0,0,.96-.946,3.133,3.133,0,0,0,.31-1.4,3.253,3.253,0,0,0-.31-1.386,2.362,2.362,0,0,0-.96-1.053,3.293,3.293,0,0,0-1.72-.4h-3.24V635h-2.7V619.359h5.94a6.783,6.783,0,0,1,3.09.645,4.5,4.5,0,0,1,1.94,1.762,5.295,5.295,0,0,1,0,5.156,4.268,4.268,0,0,1-1.94,1.665A7.425,7.425,0,0,1,1012.79,629.167Zm11.63-10.667V635h-2.6V618.5Zm10.38,14.169v-5.543a2.383,2.383,0,0,0-.22-1.074,1.567,1.567,0,0,0-.69-.7,2.347,2.347,0,0,0-1.14-.248,2.569,2.569,0,0,0-1.09.215,1.757,1.757,0,0,0-.72.58,1.419,1.419,0,0,0-.26.828h-2.58a2.89,2.89,0,0,1,.33-1.333,3.719,3.719,0,0,1,.97-1.149,4.8,4.8,0,0,1,1.52-.795,6.237,6.237,0,0,1,1.97-.29,5.715,5.715,0,0,1,2.32.441,3.486,3.486,0,0,1,1.6,1.332,3.839,3.839,0,0,1,.59,2.212v5.167a8.751,8.751,0,0,0,.11,1.429,4.824,4.824,0,0,0,.33,1.085V635h-2.65a4.591,4.591,0,0,1-.29-1.063A9.371,9.371,0,0,1,1034.8,632.669Zm.38-4.737.02,1.6h-1.86a5.067,5.067,0,0,0-1.26.14,2.654,2.654,0,0,0-.92.387,1.661,1.661,0,0,0-.54.623,1.724,1.724,0,0,0-.19.827,1.648,1.648,0,0,0,.22.848,1.488,1.488,0,0,0,.62.591,2.207,2.207,0,0,0,1.01.215,2.882,2.882,0,0,0,1.39-.322,2.849,2.849,0,0,0,.94-.806,1.8,1.8,0,0,0,.37-.913l.83,1.149a3.644,3.644,0,0,1-.44.946,4.526,4.526,0,0,1-.81.967,4.156,4.156,0,0,1-1.19.741,4.081,4.081,0,0,1-1.59.29,4.427,4.427,0,0,1-2.03-.451,3.6,3.6,0,0,1-1.4-1.236,3.176,3.176,0,0,1-.51-1.772,3.69,3.69,0,0,1,.35-1.633,3.15,3.15,0,0,1,1.03-1.2,5.067,5.067,0,0,1,1.67-.731,9.075,9.075,0,0,1,2.26-.257Zm8.5-2.074V635h-2.59V623.377h2.44Zm-.46,2.9-.84-.011a7.723,7.723,0,0,1,.34-2.267,5.629,5.629,0,0,1,.95-1.772,4.149,4.149,0,0,1,1.46-1.139,4.269,4.269,0,0,1,1.89-.408,4.55,4.55,0,0,1,1.51.236,2.828,2.828,0,0,1,1.18.742,3.422,3.422,0,0,1,.75,1.342,6.834,6.834,0,0,1,.25,2.009V635h-2.59v-7.52a3,3,0,0,0-.25-1.321,1.388,1.388,0,0,0-.7-.7,2.633,2.633,0,0,0-1.13-.215,2.505,2.505,0,0,0-1.19.279,2.663,2.663,0,0,0-.89.763,3.641,3.641,0,0,0-.55,1.117A4.583,4.583,0,0,0,1043.22,628.759Z" fill="#fff"/>
    </g>
  </g>
</svg>
