<svg xmlns="http://www.w3.org/2000/svg" width="72" height="104.162" viewBox="0 0 72 104.162">
  <g id="button3" transform="translate(-13147 -9368)">
    <path id="Контур_1267" data-name="Контур 1267" d="M556.87,688V676.66h1.656v4.77h5.382v-4.77h1.656V688h-1.656v-5.166h-5.382V688Zm19.091-4.32a5.3,5.3,0,0,1-.324,1.908,4.037,4.037,0,0,1-.9,1.4,3.786,3.786,0,0,1-1.314.882,4.564,4.564,0,0,1-1.638.288,4.837,4.837,0,0,1-1.638-.27,3.863,3.863,0,0,1-1.3-.828,4.206,4.206,0,0,1-.864-1.35,5.223,5.223,0,0,1-.306-1.854,5.157,5.157,0,0,1,.324-1.89,3.981,3.981,0,0,1,.882-1.386,3.755,3.755,0,0,1,1.332-.864,4.325,4.325,0,0,1,1.638-.306,4.683,4.683,0,0,1,1.62.27,3.442,3.442,0,0,1,1.3.81,3.632,3.632,0,0,1,.864,1.35A4.822,4.822,0,0,1,575.961,683.68Zm-1.656.09a4.232,4.232,0,0,0-.216-1.44,2.751,2.751,0,0,0-.576-.972,1.95,1.95,0,0,0-.792-.54,2.452,2.452,0,0,0-.918-.18,2.994,2.994,0,0,0-.918.144,1.864,1.864,0,0,0-.792.5,2.692,2.692,0,0,0-.558.972,4.863,4.863,0,0,0-.2,1.512,4.392,4.392,0,0,0,.216,1.458,2.916,2.916,0,0,0,.558.972,2.284,2.284,0,0,0,.81.558,2.452,2.452,0,0,0,.918.18,3,3,0,0,0,.918-.144,2.03,2.03,0,0,0,.792-.522,2.7,2.7,0,0,0,.54-.972A4.648,4.648,0,0,0,574.3,683.77Zm5.167,4.23h-1.584v-8.46h1.224l.234,1.17a4.922,4.922,0,0,1,1.278-.936,3.475,3.475,0,0,1,1.638-.36,2.642,2.642,0,0,1,1.476.378,2.22,2.22,0,0,1,.864,1.008,4.671,4.671,0,0,1,1.386-1.026,3.844,3.844,0,0,1,1.674-.36,2.45,2.45,0,0,1,1.944.738,2.858,2.858,0,0,1,.666,2.016V688h-1.584v-5.544a2.033,2.033,0,0,0-.36-1.3,1.434,1.434,0,0,0-1.188-.45,3.155,3.155,0,0,0-2.286,1.1.914.914,0,0,1,.018.18V688h-1.584v-5.544a2.033,2.033,0,0,0-.36-1.3,1.434,1.434,0,0,0-1.188-.45,3.044,3.044,0,0,0-2.268,1.152Zm20.452-4.05h-6.066v.072a2.923,2.923,0,0,0,.756,2.16,2.86,2.86,0,0,0,2.088.756,6,6,0,0,0,1.206-.108,6.735,6.735,0,0,0,1.17-.36l.324,1.17a5.856,5.856,0,0,1-1.242.378,7.521,7.521,0,0,1-1.512.144,5.785,5.785,0,0,1-1.728-.252,4.014,4.014,0,0,1-1.4-.774,3.826,3.826,0,0,1-.972-1.368,5.175,5.175,0,0,1-.342-1.98,5.343,5.343,0,0,1,.288-1.8,3.94,3.94,0,0,1,.846-1.368,3.608,3.608,0,0,1,1.3-.882,4.434,4.434,0,0,1,1.728-.324,3.759,3.759,0,0,1,1.458.27,3.243,3.243,0,0,1,1.134.756,3.314,3.314,0,0,1,.72,1.17,4.344,4.344,0,0,1,.252,1.512Zm-1.638-1.134a2.835,2.835,0,0,0-.126-.864,1.85,1.85,0,0,0-.36-.72,1.646,1.646,0,0,0-.612-.486,2.123,2.123,0,0,0-.918-.18,2.193,2.193,0,0,0-1.62.63,2.876,2.876,0,0,0-.756,1.656Z" transform="translate(12605 8784)" fill="#fff"/>
    <rect id="Прямоугольник_73" data-name="Прямоугольник 73" width="72" height="72" rx="12" transform="translate(13147 9368)" fill="#fe8787"/>
    <g id="Сгруппировать_65" data-name="Сгруппировать 65" transform="translate(12605 8784)">
      <path id="Контур_1270" data-name="Контур 1270" d="M596.761,617.466l-3.466-3.188-13.809-12.717a2.209,2.209,0,0,0-2.942,0l-13.83,12.709-3.475,3.2a.776.776,0,0,0,.022,1.14.95.95,0,0,0,1.239.02l1.952-1.8v17.257A2,2,0,0,0,564.533,636h8.117a2,2,0,0,0,2.081-1.914V623.148a.286.286,0,0,1,.3-.273h5.944a.286.286,0,0,1,.3.273v10.938A2,2,0,0,0,583.35,636h8.126a2.175,2.175,0,0,0,1.471-.561,1.84,1.84,0,0,0,.61-1.353V616.838l1.943,1.788a.95.95,0,0,0,1.239-.02A.776.776,0,0,0,596.761,617.466Z" fill="#fff"/>
      <path id="Контур_1271" data-name="Контур 1271" d="M596.761,617.466l-3.466-3.188-13.809-12.717a2.209,2.209,0,0,0-2.942,0l-13.83,12.709-3.475,3.2a.776.776,0,0,0,.022,1.14.95.95,0,0,0,1.239.02l1.952-1.8v17.257A2,2,0,0,0,564.533,636h8.117a2,2,0,0,0,2.081-1.914V623.148a.286.286,0,0,1,.3-.273h5.944a.286.286,0,0,1,.3.273v10.938A2,2,0,0,0,583.35,636h8.126a2.175,2.175,0,0,0,1.471-.561,1.84,1.84,0,0,0,.61-1.353V616.838l1.943,1.788a.95.95,0,0,0,1.239-.02A.776.776,0,0,0,596.761,617.466Z" fill="none" stroke="#fff" stroke-width="0.6"/>
    </g>
  </g>
</svg>
