<svg xmlns="http://www.w3.org/2000/svg" width="72" height="104.162" viewBox="0 0 72 104.162">
  <g id="button4" transform="translate(-13235 -9368)">
    <path id="Контур_1268" data-name="Контур 1268" d="M649.654,676.5a8.741,8.741,0,0,1,1.6.144,5.667,5.667,0,0,1,1.53.486l-.4,1.368a7.18,7.18,0,0,0-1.4-.5,4.9,4.9,0,0,0-1.26-.162,2.623,2.623,0,0,0-1.62.45,1.49,1.49,0,0,0-.594,1.26,1.451,1.451,0,0,0,.432,1.1,3.815,3.815,0,0,0,1.458.72l1.134.36a4.19,4.19,0,0,1,2.178,1.332,3.025,3.025,0,0,1-.486,4.248,3.934,3.934,0,0,1-1.242.648,5.494,5.494,0,0,1-1.584.216,9.948,9.948,0,0,1-1.764-.162,6.677,6.677,0,0,1-1.764-.558l.4-1.35a7.507,7.507,0,0,0,1.512.558,6.512,6.512,0,0,0,1.548.18,2.946,2.946,0,0,0,1.656-.45,1.491,1.491,0,0,0,.684-1.332,1.586,1.586,0,0,0-.108-.594,1.325,1.325,0,0,0-.342-.54,2.376,2.376,0,0,0-.648-.468,6.513,6.513,0,0,0-1.044-.414l-1.134-.36a4.535,4.535,0,0,1-1.908-1.08,2.544,2.544,0,0,1-.666-1.854,2.994,2.994,0,0,1,.972-2.358A4.169,4.169,0,0,1,649.654,676.5Zm7.288,11.5h-1.584V675.22h1.584v5.4a5.658,5.658,0,0,1,1.314-.864,3.645,3.645,0,0,1,1.584-.342,3.187,3.187,0,0,1,1.224.216,2.044,2.044,0,0,1,.846.576,2.221,2.221,0,0,1,.5.864,3.243,3.243,0,0,1,.18,1.1V688H661.01v-5.436a2.045,2.045,0,0,0-.4-1.4,1.523,1.523,0,0,0-1.206-.45,2.827,2.827,0,0,0-1.242.306,5.462,5.462,0,0,0-1.224.864Zm8.209-7.7q.432-.216.81-.378a4.87,4.87,0,0,1,.756-.288,5.535,5.535,0,0,1,.774-.162,6.413,6.413,0,0,1,.864-.054,4.715,4.715,0,0,1,1.278.162,2.353,2.353,0,0,1,1.008.5,2.319,2.319,0,0,1,.666.954,3.9,3.9,0,0,1,.234,1.458V688h-1.314l-.2-.936h-.036a3.268,3.268,0,0,1-1.224.846,4.14,4.14,0,0,1-1.476.252,3.81,3.81,0,0,1-1.134-.162,2.981,2.981,0,0,1-.882-.486,2.346,2.346,0,0,1-.594-.774,2.478,2.478,0,0,1-.2-1.008,2.256,2.256,0,0,1,1.044-2.016,4.981,4.981,0,0,1,2.79-.7h1.62v-.72a1.415,1.415,0,0,0-.468-1.242,2.091,2.091,0,0,0-1.26-.342,4.286,4.286,0,0,0-1.08.162,5.607,5.607,0,0,0-1.368.576Zm4.806,3.8-1.332.036a3.328,3.328,0,0,0-1.926.486,1.3,1.3,0,0,0-.558,1.062,1.522,1.522,0,0,0,.126.648,1.068,1.068,0,0,0,.324.4,1.621,1.621,0,0,0,.486.216,3.215,3.215,0,0,0,.594.054,2.972,2.972,0,0,0,1.206-.27,2.936,2.936,0,0,0,1.08-.9ZM673.832,688v-8.46h1.188l.27,1.692a2.8,2.8,0,0,1,1.008-1.314,2.706,2.706,0,0,1,1.62-.5,3.46,3.46,0,0,1,.774.072,3.38,3.38,0,0,1,.558.18l-.306,1.386a2.557,2.557,0,0,0-.486-.18,2.252,2.252,0,0,0-.612-.072,2.593,2.593,0,0,0-.972.18,2.261,2.261,0,0,0-.774.54,2.735,2.735,0,0,0-.522.9,3.7,3.7,0,0,0-.18,1.206V688Zm13.493-4.05h-6.066v.072a2.923,2.923,0,0,0,.756,2.16,2.86,2.86,0,0,0,2.088.756,6,6,0,0,0,1.206-.108,6.735,6.735,0,0,0,1.17-.36l.324,1.17a5.856,5.856,0,0,1-1.242.378,7.521,7.521,0,0,1-1.512.144,5.785,5.785,0,0,1-1.728-.252,4.014,4.014,0,0,1-1.4-.774,3.826,3.826,0,0,1-.972-1.368,5.175,5.175,0,0,1-.342-1.98,5.343,5.343,0,0,1,.288-1.8,3.94,3.94,0,0,1,.846-1.368,3.608,3.608,0,0,1,1.3-.882,4.434,4.434,0,0,1,1.728-.324,3.759,3.759,0,0,1,1.458.27,3.243,3.243,0,0,1,1.134.756,3.314,3.314,0,0,1,.72,1.17,4.344,4.344,0,0,1,.252,1.512Zm-1.638-1.134a2.835,2.835,0,0,0-.126-.864,1.85,1.85,0,0,0-.36-.72,1.646,1.646,0,0,0-.612-.486,2.123,2.123,0,0,0-.918-.18,2.193,2.193,0,0,0-1.62.63,2.876,2.876,0,0,0-.756,1.656Z" transform="translate(12605 8784)" fill="#fff"/>
    <rect id="Прямоугольник_74" data-name="Прямоугольник 74" width="72" height="72" rx="12" transform="translate(13235 9368)" fill="#fe8787"/>
    <path id="Контур_1269" data-name="Контур 1269" d="M678.581,607.443a2.576,2.576,0,0,0-2.575-.671l-21.462,6.241a2.56,2.56,0,0,0-1.845,2.028,3.005,3.005,0,0,0,1.337,2.8l6.711,4.124a1.739,1.739,0,0,0,2.146-.257l7.684-7.733a.98.98,0,0,1,1.414,0,1.017,1.017,0,0,1,0,1.423l-7.7,7.734a1.764,1.764,0,0,0-.257,2.158l4.1,6.778a2.547,2.547,0,0,0,2.214,1.262,2.671,2.671,0,0,0,.334-.014,2.6,2.6,0,0,0,2.174-1.852l6.363-21.435A2.621,2.621,0,0,0,678.581,607.443Z" transform="translate(12605 8784)" fill="#fff"/>
  </g>
</svg>
