<svg xmlns="http://www.w3.org/2000/svg" width="361.008" height="61.793" viewBox="0 0 361.008 61.793">
  <g id="button1" transform="translate(-12732 -9368)">
    <rect id="Прямоугольник_72" data-name="Прямоугольник 72" width="361.008" height="61.793" rx="10" transform="translate(12732 9368)" fill="#39cfab"/>
    <path id="Контур_1266" data-name="Контур 1266" d="M278.657,618.126a5.527,5.527,0,0,1-2.232-.432,3.812,3.812,0,0,1-1.53-1.224,3.178,3.178,0,0,1-.576-1.818h1.746a2.354,2.354,0,0,0,.72,1.494,2.676,2.676,0,0,0,1.872.594,2.715,2.715,0,0,0,1.836-.576,1.914,1.914,0,0,0,.684-1.512,1.706,1.706,0,0,0-.4-1.17,2.53,2.53,0,0,0-.99-.684,15.481,15.481,0,0,0-1.6-.5,14.553,14.553,0,0,1-2-.648,3.318,3.318,0,0,1-1.278-1.008,3.065,3.065,0,0,1-.522-1.872,3.228,3.228,0,0,1,.522-1.818,3.41,3.41,0,0,1,1.458-1.224,5.227,5.227,0,0,1,2.178-.432,4.5,4.5,0,0,1,2.88.882,3.247,3.247,0,0,1,1.278,2.34h-1.8a1.91,1.91,0,0,0-.756-1.26,2.656,2.656,0,0,0-1.764-.558,2.527,2.527,0,0,0-1.674.54,1.787,1.787,0,0,0-.648,1.476,1.633,1.633,0,0,0,.378,1.116,2.685,2.685,0,0,0,.954.666q.576.216,1.6.5a14.018,14.018,0,0,1,2,.684,3.226,3.226,0,0,1,1.3,1.026,2.944,2.944,0,0,1,.54,1.872,3.3,3.3,0,0,1-.486,1.728,3.572,3.572,0,0,1-1.44,1.314A4.752,4.752,0,0,1,278.657,618.126Zm7.432-11.592a1.116,1.116,0,1,1,0-2.232,1,1,0,0,1,.756.324,1.13,1.13,0,0,1,0,1.584A1,1,0,0,1,286.089,606.534Zm.792,1.6V618h-1.638v-9.864Zm6.86-.162a4.34,4.34,0,0,1,2.232.558,3.688,3.688,0,0,1,1.44,1.4v-1.8h1.656v10.08a4.873,4.873,0,0,1-.576,2.394,4.076,4.076,0,0,1-1.656,1.656,5.006,5.006,0,0,1-2.484.594,5.467,5.467,0,0,1-3.24-.918,3.588,3.588,0,0,1-1.53-2.5h1.62a2.539,2.539,0,0,0,1.116,1.44,3.611,3.611,0,0,0,2.034.558,2.971,2.971,0,0,0,2.2-.846,3.174,3.174,0,0,0,.864-2.376v-2.07a3.942,3.942,0,0,1-1.44,1.44,4.234,4.234,0,0,1-2.232.576,4.462,4.462,0,0,1-4.068-2.466,5.662,5.662,0,0,1-.612-2.664,5.488,5.488,0,0,1,.612-2.646,4.446,4.446,0,0,1,1.674-1.782A4.664,4.664,0,0,1,293.741,607.974Zm3.672,5.076a4.01,4.01,0,0,0-.45-1.944,3.1,3.1,0,0,0-1.224-1.26,3.212,3.212,0,0,0-1.674-.45,3.314,3.314,0,0,0-1.674.432,3.134,3.134,0,0,0-1.206,1.26,4.01,4.01,0,0,0-.45,1.944,4.156,4.156,0,0,0,.45,1.98,3.262,3.262,0,0,0,1.206,1.278,3.459,3.459,0,0,0,3.348,0,3.222,3.222,0,0,0,1.224-1.278A4.117,4.117,0,0,0,297.413,613.05Zm9.23-5.094a3.979,3.979,0,0,1,2.916,1.1,4.16,4.16,0,0,1,1.116,3.132V618h-1.62v-5.58a3.138,3.138,0,0,0-.738-2.25,2.621,2.621,0,0,0-2.016-.792,2.729,2.729,0,0,0-2.07.81,3.334,3.334,0,0,0-.756,2.358V618h-1.638v-9.864h1.638v1.4a3.266,3.266,0,0,1,1.314-1.17A4.16,4.16,0,0,1,306.643,607.956Zm13.145-2.5V618H318.15V605.454Zm7.6,2.5a3.979,3.979,0,0,1,2.916,1.1,4.16,4.16,0,0,1,1.116,3.132V618H329.8v-5.58a3.138,3.138,0,0,0-.738-2.25,2.621,2.621,0,0,0-2.016-.792,2.729,2.729,0,0,0-2.07.81,3.334,3.334,0,0,0-.756,2.358V618h-1.638v-9.864h1.638v1.4a3.266,3.266,0,0,1,1.314-1.17A4.16,4.16,0,0,1,327.385,607.956Z" transform="translate(12605 8784)" fill="#fff"/>
  </g>
</svg>
