<svg xmlns="http://www.w3.org/2000/svg" width="361.88" height="57.393" viewBox="0 0 361.88 57.393">
  <g id="button2" transform="translate(-12731 -9477)">
    <rect id="Прямоугольник_70" data-name="Прямоугольник 70" width="139.547" height="56.392" rx="11.5" transform="translate(12731.5 9477.5)" fill="none" stroke="#707070" stroke-width="1"/>
    <path id="Контур_1260" data-name="Контур 1260" d="M178.136,719.59a3.354,3.354,0,0,1-.4,1.6,3.047,3.047,0,0,1-1.28,1.232,4.825,4.825,0,0,1-2.256.464h-2.016V727.4H170.36v-11.12h3.84a4.721,4.721,0,0,1,2.16.448,2.958,2.958,0,0,1,1.328,1.184A3.215,3.215,0,0,1,178.136,719.59ZM174.2,721.4a2.251,2.251,0,0,0,1.552-.464,1.754,1.754,0,0,0,.512-1.344q0-1.824-2.064-1.824h-2.016V721.4Zm7.82-1.536a2.809,2.809,0,0,1,1.056-1.04,3.138,3.138,0,0,1,1.584-.384v1.888H184.2a2.248,2.248,0,0,0-1.632.544,2.626,2.626,0,0,0-.544,1.888v4.64H180.2v-8.816h1.824Zm4.028,3.088a4.947,4.947,0,0,1,.544-2.352,4.062,4.062,0,0,1,3.616-2.16,3.743,3.743,0,0,1,1.808.416,3.587,3.587,0,0,1,1.248,1.008v-1.28h1.84V727.4h-1.84v-1.312a3.609,3.609,0,0,1-1.264,1.04,4.117,4.117,0,0,1-3.9-.16,4.288,4.288,0,0,1-1.5-1.632A5.138,5.138,0,0,1,186.048,722.95Zm7.216.032a3.139,3.139,0,0,0-.384-1.584,2.617,2.617,0,0,0-4.592-.016,3.159,3.159,0,0,0-.368,1.568,3.347,3.347,0,0,0,.368,1.6,2.789,2.789,0,0,0,.992,1.056,2.63,2.63,0,0,0,1.312.352,2.565,2.565,0,0,0,2.288-1.376A3.229,3.229,0,0,0,193.264,722.982Zm3.948,0a5,5,0,0,1,.544-2.384,3.963,3.963,0,0,1,1.536-1.6,4.424,4.424,0,0,1,2.24-.56,4.325,4.325,0,0,1,2.64.768,3.687,3.687,0,0,1,1.424,2.16h-1.968a2.081,2.081,0,0,0-.768-1.024,2.271,2.271,0,0,0-1.328-.368,2.223,2.223,0,0,0-1.792.8,3.349,3.349,0,0,0-.656,2.208,3.414,3.414,0,0,0,.656,2.224,2.223,2.223,0,0,0,1.792.8,2.024,2.024,0,0,0,2.1-1.392H205.6a3.978,3.978,0,0,1-1.44,2.144,4.278,4.278,0,0,1-2.624.784,4.424,4.424,0,0,1-2.24-.56,4.1,4.1,0,0,1-1.536-1.6A5.1,5.1,0,0,1,197.212,722.982Zm12.65-2.912v4.88a.983.983,0,0,0,.224.72,1.216,1.216,0,0,0,.8.208h1.12v1.52h-1.44a2.774,2.774,0,0,1-1.888-.576,2.372,2.372,0,0,1-.656-1.872v-4.88h-1.04v-1.488h1.04V716.39h1.84v2.192h2.144v1.488Zm5.073-2.656a1.168,1.168,0,1,1,0-2.336,1.111,1.111,0,0,1,.816.336,1.2,1.2,0,0,1,0,1.664A1.111,1.111,0,0,1,214.935,717.414Zm.9,1.168V727.4h-1.824v-8.816Zm2.107,4.4a5,5,0,0,1,.544-2.384,3.963,3.963,0,0,1,1.536-1.6,4.421,4.421,0,0,1,2.24-.56,4.329,4.329,0,0,1,2.64.768,3.692,3.692,0,0,1,1.424,2.16h-1.968a2.081,2.081,0,0,0-.768-1.024,2.271,2.271,0,0,0-1.328-.368,2.223,2.223,0,0,0-1.792.8,3.343,3.343,0,0,0-.656,2.208,3.408,3.408,0,0,0,.656,2.224,2.223,2.223,0,0,0,1.792.8,2.025,2.025,0,0,0,2.1-1.392h1.968a3.979,3.979,0,0,1-1.44,2.144,4.278,4.278,0,0,1-2.624.784,4.421,4.421,0,0,1-2.24-.56,4.1,4.1,0,0,1-1.536-1.6A5.1,5.1,0,0,1,217.938,722.982Zm18.6-.208a5.663,5.663,0,0,1-.064.9h-6.736a2.431,2.431,0,0,0,2.512,2.336,2.134,2.134,0,0,0,2.08-1.232H236.3a3.994,3.994,0,0,1-1.456,2,4.243,4.243,0,0,1-2.592.768,4.6,4.6,0,0,1-2.272-.56,4.185,4.185,0,0,1-1.568-1.6,5.459,5.459,0,0,1-.016-4.784,3.942,3.942,0,0,1,1.552-1.6,4.668,4.668,0,0,1,2.3-.56,4.485,4.485,0,0,1,2.224.544,3.828,3.828,0,0,1,1.52,1.536A4.555,4.555,0,0,1,236.539,722.774Zm-1.9-.576a2.071,2.071,0,0,0-.72-1.616,2.574,2.574,0,0,0-1.744-.608,2.327,2.327,0,0,0-1.616.608,2.478,2.478,0,0,0-.8,1.616Z" transform="translate(12605 8784)" fill="#707070"/>
    <path id="Контур_1261" data-name="Контур 1261" d="M162.52,724.429v-5.494l-5.9,3.162v6.247l5.164-2.733a1.428,1.428,0,0,0,.54-.5A1.285,1.285,0,0,0,162.52,724.429Z" transform="translate(12605 8784)" fill="#707070"/>
    <path id="Контур_1262" data-name="Контур 1262" d="M155.142,728.344V722.1l-5.9-3.162v5.494a1.294,1.294,0,0,0,.2.683,1.435,1.435,0,0,0,.54.5Z" transform="translate(12605 8784)" fill="#707070"/>
    <path id="Контур_1263" data-name="Контур 1263" d="M156.618,715.048l5.137,2.719-5.875,3.147-5.875-3.147,5.137-2.719a1.58,1.58,0,0,1,1.476,0Z" transform="translate(12605 8784)" fill="#707070"/>
    <rect id="Прямоугольник_71" data-name="Прямоугольник 71" width="203.627" height="57.392" rx="12" transform="translate(12889.253 9477)" fill="#39cfab"/>
    <path id="Контур_1264" data-name="Контур 1264" d="M376.544,727.51a5.067,5.067,0,0,1-2.016-.384,3.367,3.367,0,0,1-1.408-1.12,2.826,2.826,0,0,1-.512-1.68h1.952a1.777,1.777,0,0,0,.56,1.184,2.045,2.045,0,0,0,1.424.464,2.206,2.206,0,0,0,1.472-.448,1.506,1.506,0,0,0,.528-1.184,1.267,1.267,0,0,0-.336-.912,2.1,2.1,0,0,0-.816-.544,11.67,11.67,0,0,0-1.344-.416,14.018,14.018,0,0,1-1.776-.576,3.008,3.008,0,0,1-1.152-.928,2.659,2.659,0,0,1-.48-1.664,2.957,2.957,0,0,1,.48-1.68,3.066,3.066,0,0,1,1.344-1.1,4.885,4.885,0,0,1,2-.384,4.108,4.108,0,0,1,2.64.816,2.947,2.947,0,0,1,1.152,2.208H378.24a1.461,1.461,0,0,0-.576-1.04,2.129,2.129,0,0,0-1.392-.432,1.973,1.973,0,0,0-1.28.4,1.394,1.394,0,0,0-.5,1.152,1.215,1.215,0,0,0,.3.848,2.348,2.348,0,0,0,.8.512,12.2,12.2,0,0,0,1.312.416,13.284,13.284,0,0,1,1.792.608,2.9,2.9,0,0,1,1.184.944,2.624,2.624,0,0,1,.5,1.68,3,3,0,0,1-.464,1.6,3.275,3.275,0,0,1-1.328,1.216A4.391,4.391,0,0,1,376.544,727.51Zm8.44-7.44v4.88a.987.987,0,0,0,.224.72,1.218,1.218,0,0,0,.8.208h1.12v1.52h-1.44a2.778,2.778,0,0,1-1.888-.576,2.375,2.375,0,0,1-.656-1.872v-4.88H382.1v-1.488h1.04V716.39h1.84v2.192h2.144v1.488Zm3.537,2.88a4.947,4.947,0,0,1,.544-2.352,4.062,4.062,0,0,1,3.616-2.16,3.743,3.743,0,0,1,1.808.416,3.587,3.587,0,0,1,1.248,1.008v-1.28h1.84V727.4h-1.84v-1.312a3.609,3.609,0,0,1-1.264,1.04,4.117,4.117,0,0,1-3.9-.16,4.288,4.288,0,0,1-1.5-1.632A5.138,5.138,0,0,1,388.521,722.95Zm7.216.032a3.139,3.139,0,0,0-.384-1.584,2.617,2.617,0,0,0-4.592-.016,3.159,3.159,0,0,0-.368,1.568,3.347,3.347,0,0,0,.368,1.6,2.789,2.789,0,0,0,.992,1.056,2.63,2.63,0,0,0,1.312.352,2.565,2.565,0,0,0,2.288-1.376A3.229,3.229,0,0,0,395.737,722.982Zm6.38-3.12a2.823,2.823,0,0,1,1.056-1.04,3.138,3.138,0,0,1,1.584-.384v1.888h-.464a2.248,2.248,0,0,0-1.632.544,2.626,2.626,0,0,0-.544,1.888v4.64h-1.824v-8.816h1.824Zm6.765.208v4.88a.983.983,0,0,0,.224.72,1.216,1.216,0,0,0,.8.208h1.12v1.52h-1.44a2.774,2.774,0,0,1-1.888-.576,2.372,2.372,0,0,1-.656-1.872v-4.88H406v-1.488h1.04V716.39h1.84v2.192h2.144v1.488Zm17.229,9.344-1.952-2.112a5.682,5.682,0,0,1-1.584.208,5.855,5.855,0,0,1-2.864-.72,5.549,5.549,0,0,1-2.064-2.032,5.818,5.818,0,0,1-.752-2.944,5.73,5.73,0,0,1,.752-2.928,5.426,5.426,0,0,1,2.064-2.016,5.94,5.94,0,0,1,5.728,0,5.277,5.277,0,0,1,2.064,2.016,6.089,6.089,0,0,1,.08,5.712,5.257,5.257,0,0,1-1.824,1.984l2.672,2.832Zm-7.344-7.6a4.736,4.736,0,0,0,.48,2.176,3.613,3.613,0,0,0,1.36,1.44,4.152,4.152,0,0,0,3.936,0,3.5,3.5,0,0,0,1.344-1.44,4.606,4.606,0,0,0,.5-2.176,4.513,4.513,0,0,0-.5-2.16,3.4,3.4,0,0,0-1.344-1.424,4.152,4.152,0,0,0-3.936,0,3.506,3.506,0,0,0-1.36,1.424A4.64,4.64,0,0,0,418.767,721.814Zm19.634-3.232V727.4h-1.824v-1.04a3.006,3.006,0,0,1-1.136.864,3.6,3.6,0,0,1-1.472.3,4,4,0,0,1-1.872-.432,3.186,3.186,0,0,1-1.3-1.28,4.2,4.2,0,0,1-.464-2.048v-5.184h1.808v4.912a2.588,2.588,0,0,0,.592,1.824,2.4,2.4,0,0,0,3.232,0,2.548,2.548,0,0,0,.608-1.824v-4.912Zm3.654-1.168a1.168,1.168,0,1,1,0-2.336,1.111,1.111,0,0,1,.816.336,1.2,1.2,0,0,1,0,1.664A1.111,1.111,0,0,1,442.055,717.414Zm.9,1.168V727.4h-1.824v-8.816Zm4.331,7.328h4V727.4H445.17V725.91l4.016-5.84H445.17v-1.488h6.112v1.488Z" transform="translate(12605 8784)" fill="#fff"/>
    <ellipse id="Эллипс_9" data-name="Эллипс 9" cx="17.707" cy="16.398" rx="17.707" ry="16.398" transform="translate(12923.561 9489.298)" fill="#ffc817"/>
    <path id="Контур_1265" data-name="Контур 1265" d="M334.216,717.181a1.808,1.808,0,0,1,.769-.17,4.385,4.385,0,0,1,1.013.26,18.8,18.8,0,0,1,4.981,3.119c.171.158.354.35.4.395a1.364,1.364,0,0,1,.317.883,1.293,1.293,0,0,1-.293.824,4.543,4.543,0,0,1-.342.361l-.073.068a18.745,18.745,0,0,1-4.871,3.074,4.5,4.5,0,0,1-1.135.316h-.049a1.555,1.555,0,0,1-1.355-.768,5.965,5.965,0,0,1-.293-1.028,19.384,19.384,0,0,1-.183-2.859,16.8,16.8,0,0,1,.207-2.95,7.254,7.254,0,0,1,.22-.825A1.509,1.509,0,0,1,334.216,717.181Z" transform="translate(12605 8784)" fill="#fff"/>
  </g>
</svg>
