<svg xmlns="http://www.w3.org/2000/svg" width="90" height="90" viewBox="0 0 90 90">
  <g id="icons2" transform="translate(-13923 -9151.512)">
    <circle id="Эллипс_5" data-name="Эллипс 5" cx="45" cy="45" r="45" transform="translate(13923 9151.512)" fill="#e8f3f1"/>
    <path id="Контур_1166" data-name="Контур 1166" d="M1369.73,421.875h-15.11a1.57,1.57,0,1,1,0-3.139h15.11a1.57,1.57,0,1,1,0,3.139Z" transform="translate(12605 8784)" fill="#52d1c6" fill-rule="evenodd"/>
    <path id="Контур_1167" data-name="Контур 1167" d="M1369.73,413.113h-15.11a1.57,1.57,0,0,1,0-3.14h15.11a1.57,1.57,0,1,1,0,3.14Z" transform="translate(12605 8784)" fill="#52d1c6" fill-rule="evenodd"/>
    <path id="Контур_1168" data-name="Контур 1168" d="M1360.38,404.371h-5.76a1.57,1.57,0,0,1,0-3.14h5.76a1.57,1.57,0,0,1,0,3.14Z" transform="translate(12605 8784)" fill="#52d1c6" fill-rule="evenodd"/>
    <g id="Сгруппировать_62" data-name="Сгруппировать 62" transform="translate(12605 8784)">
      <path id="Контур_1169" data-name="Контур 1169" d="M1370.13,393.674l-16.09.009c-4.87.029-7.78,3.043-7.78,8.064v19.248c0,5.054,2.94,8.072,7.86,8.072l16.09-.006c4.87-.029,7.79-3.047,7.79-8.066V401.747C1378,396.693,1375.06,393.674,1370.13,393.674Zm-16.01,38.533c-6.58,0-11-4.506-11-11.212V401.747c0-6.767,4.28-11.164,10.91-11.2l16.1-.008h0c6.58,0,11.01,4.506,11.01,11.212v19.248c0,6.764-4.29,11.164-10.92,11.206Z" fill="#52d1c6" fill-rule="evenodd"/>
    </g>
  </g>
</svg>
