<svg xmlns="http://www.w3.org/2000/svg" width="90" height="90" viewBox="0 0 90 90">
  <g id="icons1" transform="translate(-13923 -9005)">
    <circle id="Эллипс_4" data-name="Эллипс 4" cx="45" cy="45" r="45" transform="translate(13923 9005)" fill="#e8f3f1"/>
    <g id="Сгруппировать_61" data-name="Сгруппировать 61" transform="translate(12605 8784)">
      <path id="Контур_1164" data-name="Контур 1164" d="M1344.84,267.3c2.93,9.13,14.53,16.512,17.61,18.339,3.09-1.846,14.77-9.31,17.61-18.331,1.86-5.831.13-13.217-6.75-15.434a11.067,11.067,0,0,0-9.9,1.658,1.563,1.563,0,0,1-1.9.013,10.963,10.963,0,0,0-9.94-1.671C1344.7,254.093,1342.98,261.479,1344.84,267.3Zm17.61,21.721a1.543,1.543,0,0,1-.75-.19c-.66-.358-16.09-8.864-19.85-20.572v0c-2.36-7.371.27-16.635,8.75-19.37a14.076,14.076,0,0,1,11.84,1.494,14.428,14.428,0,0,1,11.83-1.494c8.5,2.739,11.14,12,8.78,19.37-3.64,11.575-19.19,20.209-19.85,20.571A1.536,1.536,0,0,1,1362.45,289.025Z" fill="#52d1c6" fill-rule="evenodd"/>
    </g>
    <path id="Контур_1165" data-name="Контур 1165" d="M1374.83,264.168a1.568,1.568,0,0,1-1.56-1.442,4.238,4.238,0,0,0-2.93-3.7,1.57,1.57,0,0,1,.96-2.989,7.365,7.365,0,0,1,5.1,6.436,1.567,1.567,0,0,1-1.44,1.691A1.262,1.262,0,0,1,1374.83,264.168Z" transform="translate(12605 8784)" fill="#52d1c6" fill-rule="evenodd"/>
  </g>
</svg>
