<svg xmlns="http://www.w3.org/2000/svg" width="90" height="90" viewBox="0 0 90 90">
  <g id="icons5" transform="translate(-13923 -9591.047)">
    <circle id="Эллипс_7" data-name="Эллипс 7" cx="45" cy="45" r="45" transform="translate(13923 9591.047)" fill="#e8f3f1"/>
    <path id="Контур_1174" data-name="Контур 1174" d="M1361.95,835.3a17.791,17.791,0,1,0,17.79,17.791A17.81,17.81,0,0,0,1361.95,835.3Zm0,38.721a20.93,20.93,0,1,1,20.93-20.93A20.954,20.954,0,0,1,1361.95,874.023Z" transform="translate(12605 8784)" fill="#52d1c6" fill-rule="evenodd"/>
    <path id="Контур_1175" data-name="Контур 1175" d="M1361.94,855.967a1.569,1.569,0,0,1-1.57-1.57v-9.249a1.57,1.57,0,1,1,3.14,0V854.4A1.569,1.569,0,0,1,1361.94,855.967Z" transform="translate(12605 8784)" fill="#52d1c6" fill-rule="evenodd"/>
    <path id="Контур_1176" data-name="Контур 1176" d="M1361.96,863.131a2.093,2.093,0,0,1-.02-4.186h.02a2.093,2.093,0,0,1,0,4.186Z" transform="translate(12605 8784)" fill="#52d1c6" fill-rule="evenodd"/>
  </g>
</svg>
