<svg xmlns="http://www.w3.org/2000/svg" width="90" height="90" viewBox="0 0 90 90">
  <g id="icons4" transform="translate(-13923 -9444.535)">
    <circle id="Эллипс_6" data-name="Эллипс 6" cx="45" cy="45" r="45" transform="translate(13923 9444.535)" fill="#e8f3f1"/>
    <g id="Сгруппировать_63" data-name="Сгруппировать 63" transform="translate(12605 8784)">
      <path id="Контур_1170" data-name="Контур 1170" d="M1349.62,722.646a9.674,9.674,0,0,1,3.57.948,19.372,19.372,0,0,0,21.93-31.23,19.369,19.369,0,0,0-27.38,0,19.456,19.456,0,0,0-3.88,21.851,9.877,9.877,0,0,1,.96,3.619,11.332,11.332,0,0,1-.79,3.546c-.3.9-.77,2.248-.47,2.545s1.65-.174,2.55-.481A11.414,11.414,0,0,1,1349.62,722.646Zm11.76,5.9a22.418,22.418,0,0,1-9.43-2.07,7.5,7.5,0,0,0-2.32-.69,9.084,9.084,0,0,0-2.5.63c-1.83.627-4.1,1.41-5.79-.268s-.9-3.952-.28-5.779a8.914,8.914,0,0,0,.62-2.533,7.235,7.235,0,0,0-.7-2.375,22.568,22.568,0,0,1,4.54-25.315,22.5,22.5,0,1,1,31.82,31.82A22.6,22.6,0,0,1,1361.38,728.546Z" fill="#52d1c6" fill-rule="evenodd"/>
    </g>
    <path id="Контур_1171" data-name="Контур 1171" d="M1369.69,709.016a2.093,2.093,0,0,1-.02-4.186h.02a2.093,2.093,0,0,1,0,4.186Z" transform="translate(12605 8784)" fill="#52d1c6" fill-rule="evenodd"/>
    <path id="Контур_1172" data-name="Контур 1172" d="M1361.3,709.016a2.093,2.093,0,0,1-.02-4.186h.02a2.093,2.093,0,0,1,0,4.186Z" transform="translate(12605 8784)" fill="#52d1c6" fill-rule="evenodd"/>
    <path id="Контур_1173" data-name="Контур 1173" d="M1352.91,709.016a2.093,2.093,0,0,1-.02-4.186h.02a2.093,2.093,0,0,1,0,4.186Z" transform="translate(12605 8784)" fill="#52d1c6" fill-rule="evenodd"/>
  </g>
</svg>
