<svg xmlns="http://www.w3.org/2000/svg" xmlns:xlink="http://www.w3.org/1999/xlink" width="90" height="90" viewBox="0 0 90 90">
  <defs>
    <clipPath id="clip-path">
      <rect id="Прямоугольник_69" data-name="Прямоугольник 69" width="37.674" height="48.139" transform="translate(1343.12 525.93)" fill="#fff"/>
    </clipPath>
  </defs>
  <g id="icons3" transform="translate(-13923 -9289)">
    <circle id="Эллипс_8" data-name="Эллипс 8" cx="45" cy="45" r="45" transform="translate(13923 9289)" fill="#e8f3f1"/>
    <g id="Сгруппировать_64" data-name="Сгруппировать 64" transform="translate(12605 8784)" clip-path="url(#clip-path)">
      <path id="Контур_1177" data-name="Контур 1177" d="M1358.94,548.634a.633.633,0,0,1,.08-.288h-.08c-.42-.646-.93-1.293-1.43-1.94a9.159,9.159,0,0,0-1,3.45c-.21-2.229-3.72-4.456-5.09-5.75-1.22-4.1-1.64-5.387-1-9.269-2.65,4.024.79,8.694-1.14,8.694-2.15-.071-3.59-2.369-3.59-2.369,1.87,4.958,9.17,3.231,9.53,11.351.07,2.443-.14,1.511,1.57,3.379a10.69,10.69,0,0,1,2.94,5.1,8.8,8.8,0,0,1,.43,1.795c1.01-1.94,2.51-2.443,1.79-4.382-1.07-2.875-3.65-2.8-3.86-5.174A14.214,14.214,0,0,1,1358.94,548.634Zm-4.58,5.892c-4.3-.936-8.38-6.108-8.38-6.108,1.01,4.095,5.16,6.034,5.16,6.034a6.354,6.354,0,0,0-3.87,1.438c9.96-1.94,12.32,7.185,10.74,14.084,2.01-1.8,2.08-6.18,1.29-8.768a10.422,10.422,0,0,0-2.86-4.957C1355.86,555.6,1355.29,554.667,1354.36,554.526Zm3.22,16.956a7.356,7.356,0,0,1-2.65,2.588l4.44-.074a12.548,12.548,0,0,0,1.94-5.89v-.575a17.989,17.989,0,0,1,.79-4.024.549.549,0,0,0,.14-.287,5.64,5.64,0,0,0,.21-2.947,7.737,7.737,0,0,0-2.15,4.816C1359.66,570.047,1359.09,568.32,1357.58,571.482Zm2.51,2.514h3.8a11.753,11.753,0,0,1-1.15-6.106,28.287,28.287,0,0,0-.36-3.737C1360.74,566.021,1361.88,571.34,1360.09,574Zm4.37,0h4.22c-5.08,0-5.22-4.67-5.22-8.334,0-4.526.07-5.676.64-6.753a4.359,4.359,0,0,0,.72-3.3c0-.935.93-2.658,2.22-4.383.43-.576-.14-.216,1.36-1.509a25.282,25.282,0,0,0,3.73-4.887,20.7,20.7,0,0,1,5.94-4.669,17.058,17.058,0,0,0-5.09,2.3,13.213,13.213,0,0,0,0-7.829c.58,5.747-3,11.711-4.22,12.716a7.985,7.985,0,0,0-1.22,1.078c-1.36-3.3,1-9.772,1-9.772s-3.65,4.023-2,10.849a11.2,11.2,0,0,0-1.94,2.514c-1.57,3.02-1.29-2.011-4.36-5.819.71-.862.28-.79,3.5-3.233,3.23-2.372,3.44-10.276,3.44-10.276s-.5,6.971-4.22,8.839c0,0-2.37-2.946-2.37-4.671,0,0,.07,3.234,1.15,4.671,1.07,1.365-.93,2.155-2.72,3.3a3.964,3.964,0,0,1-1.01-1.435c-3.43-6.826,6.23-11.209,6.23-11.209-3.29,0-5.8,2.944-5.8,2.944a5.277,5.277,0,0,0-1.22-4.526,6.859,6.859,0,0,1,.29,5.39c-2.29,3.95-1.43,6.465-1.43,6.465-2.08-.142-3.94-2.3-3.94-2.3.79,2.659,3.15,2.372,5.44,5.46.79,1.15,1.5,1.941,2.15,3.089,1.72,3.378,0,4.023,2.72,9.484a7.441,7.441,0,0,1,.29,5.247c0,.071-.07.142-.07.213a28.881,28.881,0,0,1,.64,4.241c-.14,1.652-.21,2.946,1.15,6.106Zm4.66-.071a4.928,4.928,0,0,1-3.16-3.162c-1.21-7.184-1.5-15.591,9.67-15.087-.71-.646-3.51-1.15-3.51-1.15a9.548,9.548,0,0,0,4.59-7.329c-4.01,8.332-7.74,7.329-7.74,7.329a8.311,8.311,0,0,0-.5-4.024l-1.15,1.293a.712.712,0,0,0,.08.358,7.607,7.607,0,0,1-.86,3.88,30.574,30.574,0,0,0-1.94,3.091c-.57,1.078-.86,2.082-.86,6.393S1363.89,573.206,1369.12,573.925Z" fill="#39cfab" fill-rule="evenodd"/>
      <path id="Контур_1178" data-name="Контур 1178" d="M1363.24,531.533a3.1,3.1,0,0,0,2.01-1.079,1.23,1.23,0,1,0-2.01,1.079Z" fill="#39cfab" fill-rule="evenodd"/>
      <path id="Контур_1179" data-name="Контур 1179" d="M1363.24,531.533a3.1,3.1,0,0,0,2.01-1.079,1.23,1.23,0,1,0-2.01,1.079Z" fill="#39cfab" fill-rule="evenodd"/>
      <path id="Контур_1180" data-name="Контур 1180" d="M1360.09,532.9a2.771,2.771,0,0,0,1.51-1.723,2.851,2.851,0,0,0-.15-2.3,2.572,2.572,0,0,0-1.5,1.726,2.83,2.83,0,0,0,.14,2.3Z" fill="#39cfab" fill-rule="evenodd"/>
      <path id="Контур_1181" data-name="Контур 1181" d="M1356.87,531.533a2.75,2.75,0,0,0-2.08-.861,3.217,3.217,0,0,0-2.15.861,2.992,2.992,0,0,0,2.15.936A3.123,3.123,0,0,0,1356.87,531.533Z" fill="#39cfab" fill-rule="evenodd"/>
      <path id="Контур_1182" data-name="Контур 1182" d="M1358.66,530.958a2.963,2.963,0,0,0,.71-2.227,3.11,3.11,0,0,0-1.07-2.012,3.013,3.013,0,0,0-.72,2.229,3.076,3.076,0,0,0,1.08,2.01Z" fill="#39cfab" fill-rule="evenodd"/>
      <path id="Контур_1183" data-name="Контур 1183" d="M1356.87,529.952a3.147,3.147,0,0,0-1.29-1.869,3.248,3.248,0,0,0-2.29-.43,2.939,2.939,0,0,0,1.29,1.941A2.87,2.87,0,0,0,1356.87,529.952Z" fill="#39cfab" fill-rule="evenodd"/>
      <path id="Контур_1184" data-name="Контур 1184" d="M1361.24,537.209a2.812,2.812,0,0,0,2-1.078,2.967,2.967,0,0,0,.57-2.156,2.811,2.811,0,0,0-1.93,1.079,2.78,2.78,0,0,0-.65,2.155Z" fill="#39cfab" fill-rule="evenodd"/>
      <path id="Контур_1185" data-name="Контур 1185" d="M1358.44,543.531a2.474,2.474,0,0,0,1.65-.862,2.576,2.576,0,0,0,.5-1.868,2.468,2.468,0,0,0-1.65.935,2.4,2.4,0,0,0-.5,1.795Z" fill="#39cfab" fill-rule="evenodd"/>
      <path id="Контур_1186" data-name="Контур 1186" d="M1360.02,538.432a2.444,2.444,0,0,1-.57,1.652,2.316,2.316,0,0,1-1.58.717,2.448,2.448,0,0,1,.57-1.652A2.316,2.316,0,0,1,1360.02,538.432Z" fill="#39cfab" fill-rule="evenodd"/>
      <path id="Контур_1187" data-name="Контур 1187" d="M1362.1,538.575a2,2,0,0,0,1.79-.217,2.265,2.265,0,0,0,1.07-1.364,2.007,2.007,0,0,0-1.79.216,2.086,2.086,0,0,0-1.08,1.366Z" fill="#39cfab" fill-rule="evenodd"/>
      <path id="Контур_1188" data-name="Контур 1188" d="M1360.16,528.8a2.445,2.445,0,0,0,1.08-1.293,1.756,1.756,0,0,0-.15-1.579,2.01,2.01,0,0,0-1.07,1.22,1.911,1.911,0,0,0,.14,1.652Z" fill="#39cfab" fill-rule="evenodd"/>
      <path id="Контур_1189" data-name="Контур 1189" d="M1362.67,529.449a2.506,2.506,0,0,0,1.29-1.15,2.656,2.656,0,0,0,.14-1.794,2.375,2.375,0,0,0-1.36,1.148,2.208,2.208,0,0,0-.07,1.8Z" fill="#39cfab" fill-rule="evenodd"/>
      <path id="Контур_1190" data-name="Контур 1190" d="M1367.11,532.181a2.921,2.921,0,0,0,1.36-1.8,3.03,3.03,0,0,0-.28-2.226,2.929,2.929,0,0,0-1.37,1.795,2.994,2.994,0,0,0,.29,2.229Z" fill="#39cfab" fill-rule="evenodd"/>
      <path id="Контур_1191" data-name="Контур 1191" d="M1367.97,534.12a3,3,0,0,0,2.15-.574,2.927,2.927,0,0,0,1.14-1.942,2.671,2.671,0,0,0-2.14.576A2.529,2.529,0,0,0,1367.97,534.12Z" fill="#39cfab" fill-rule="evenodd"/>
      <path id="Контур_1192" data-name="Контур 1192" d="M1366.18,535.054a2.409,2.409,0,0,0,.14-2.011,2.5,2.5,0,0,0-1.29-1.438,2.347,2.347,0,0,0-.14,1.942,2.511,2.511,0,0,0,1.29,1.508Z" fill="#39cfab" fill-rule="evenodd"/>
      <path id="Контур_1193" data-name="Контур 1193" d="M1361.6,546.623a3.057,3.057,0,0,0,2.21-.574,3.2,3.2,0,0,0,1.15-1.942,2.773,2.773,0,0,0-2.22.577,2.872,2.872,0,0,0-1.15,1.941Z" fill="#39cfab" fill-rule="evenodd"/>
      <path id="Контур_1194" data-name="Контур 1194" d="M1364.96,550.357a2.489,2.489,0,0,1-1.72-.43,2.19,2.19,0,0,1-.86-1.511,2.3,2.3,0,0,1,1.65.433,2.27,2.27,0,0,1,.93,1.506Z" fill="#39cfab" fill-rule="evenodd"/>
      <path id="Контур_1195" data-name="Контур 1195" d="M1366.04,548.705a2.236,2.236,0,0,1-1.51-.359,2.174,2.174,0,0,1-.72-1.365,2.07,2.07,0,0,1,1.44.358,2.285,2.285,0,0,1,.79,1.366Z" fill="#39cfab" fill-rule="evenodd"/>
      <path id="Контур_1196" data-name="Контур 1196" d="M1367.97,536.347a1.579,1.579,0,0,0,1.43-.358,1.906,1.906,0,0,0,.79-1.294,2.279,2.279,0,0,0-1.51.359A1.738,1.738,0,0,0,1367.97,536.347Z" fill="#39cfab" fill-rule="evenodd"/>
      <path id="Контур_1197" data-name="Контур 1197" d="M1368.97,538.216a2.869,2.869,0,0,0,1.86-.432,2.739,2.739,0,0,0,.94-1.652,2.238,2.238,0,0,0-1.87.432,2.58,2.58,0,0,0-.93,1.652Z" fill="#39cfab" fill-rule="evenodd"/>
      <path id="Контур_1198" data-name="Контур 1198" d="M1368.9,539.58a2.485,2.485,0,0,0,1.51.717,2.075,2.075,0,0,0,1.57-.5,2.374,2.374,0,0,0-1.5-.79A1.886,1.886,0,0,0,1368.9,539.58Z" fill="#39cfab" fill-rule="evenodd"/>
      <path id="Контур_1199" data-name="Контур 1199" d="M1368.26,541.663a2.235,2.235,0,0,0,1.36.72,2.3,2.3,0,0,0,1.43-.5,1.84,1.84,0,0,0-1.36-.717A2.047,2.047,0,0,0,1368.26,541.663Z" fill="#39cfab" fill-rule="evenodd"/>
      <path id="Контур_1200" data-name="Контур 1200" d="M1370.19,544.97a1.933,1.933,0,0,1-1.43-.577.823.823,0,1,1,.79-.862,2.034,2.034,0,0,1,.64,1.438Z" fill="#39cfab" fill-rule="evenodd"/>
      <path id="Контур_1201" data-name="Контур 1201" d="M1373.06,534.334a2.524,2.524,0,0,0,.42-2.154,2.558,2.558,0,0,0-1.29-1.868,2.961,2.961,0,0,0-.42,2.226A2.786,2.786,0,0,0,1373.06,534.334Z" fill="#39cfab" fill-rule="evenodd"/>
      <path id="Контур_1202" data-name="Контур 1202" d="M1373.91,536.276a2.665,2.665,0,0,0,1.58-1.365,2.348,2.348,0,0,0,.14-2.084,2.936,2.936,0,0,0-1.57,1.365A2.684,2.684,0,0,0,1373.91,536.276Z" fill="#39cfab" fill-rule="evenodd"/>
      <path id="Контур_1203" data-name="Контур 1203" d="M1374.06,538.142a2.421,2.421,0,0,0,1.72-.213,2.2,2.2,0,0,0,1-1.365,2.41,2.41,0,0,0-1.72.214,2.16,2.16,0,0,0-1,1.365Z" fill="#39cfab" fill-rule="evenodd"/>
      <path id="Контур_1204" data-name="Контур 1204" d="M1374.63,541.162a1.759,1.759,0,0,0,.57-1.151,1.544,1.544,0,0,0-.36-1.22,1.644,1.644,0,0,0-.57,1.148,1.55,1.55,0,0,0,.36,1.223Z" fill="#39cfab" fill-rule="evenodd"/>
      <path id="Контур_1205" data-name="Контур 1205" d="M1375.85,540.226a2.654,2.654,0,0,0,1.5-.719,2.507,2.507,0,0,0,.58-1.58,2.023,2.023,0,0,0-1.51.717,1.916,1.916,0,0,0-.57,1.582Z" fill="#39cfab" fill-rule="evenodd"/>
      <path id="Контур_1206" data-name="Контур 1206" d="M1377.14,541.3a2.719,2.719,0,0,1,1.79-.934,2.406,2.406,0,0,1,1.86.575,2.3,2.3,0,0,1-1.72.933A2.59,2.59,0,0,1,1377.14,541.3Z" fill="#39cfab" fill-rule="evenodd"/>
      <path id="Контур_1207" data-name="Контур 1207" d="M1375.56,542.383a2.026,2.026,0,0,1,1.72-.216,2.262,2.262,0,0,1,1.36,1.078,2.366,2.366,0,0,1-1.72.216A1.952,1.952,0,0,1,1375.56,542.383Z" fill="#39cfab" fill-rule="evenodd"/>
      <path id="Контур_1208" data-name="Контур 1208" d="M1373.84,543.892a2.512,2.512,0,0,1,1.79-.216,2.227,2.227,0,0,1,1.36,1.078,2.067,2.067,0,0,1-1.72.216A2.251,2.251,0,0,1,1373.84,543.892Z" fill="#39cfab" fill-rule="evenodd"/>
      <path id="Контур_1209" data-name="Контур 1209" d="M1377.07,547.052a2.4,2.4,0,0,1,1.65-2.8,2.448,2.448,0,0,1-.22,1.725A2.36,2.36,0,0,1,1377.07,547.052Z" fill="#39cfab" fill-rule="evenodd"/>
      <path id="Контур_1210" data-name="Контур 1210" d="M1376.78,548.991a2.7,2.7,0,0,1,1.36-1.436,2.6,2.6,0,0,1,1.94-.071,2.341,2.341,0,0,1-1.3,1.437,2.75,2.75,0,0,1-2,.071Z" fill="#39cfab" fill-rule="evenodd"/>
      <path id="Контур_1211" data-name="Контур 1211" d="M1376.06,551.509a2.166,2.166,0,0,1,1.15-1.224,1.983,1.983,0,0,1,1.57,0,2.082,2.082,0,0,1-1.07,1.149,2.618,2.618,0,0,1-1.65.073Z" fill="#39cfab" fill-rule="evenodd"/>
      <path id="Контур_1212" data-name="Контур 1212" d="M1374.42,553.16a2.132,2.132,0,0,1,1.36-.862,1.966,1.966,0,0,1,1.57.288,2.313,2.313,0,0,1-1.36.933A2.433,2.433,0,0,1,1374.42,553.16Z" fill="#39cfab" fill-rule="evenodd"/>
      <path id="Контур_1213" data-name="Контур 1213" d="M1375.2,554.885a1.787,1.787,0,0,1,1.01-.72,1.555,1.555,0,0,1,1.14.287,1.252,1.252,0,0,1-.93.649A1.791,1.791,0,0,1,1375.2,554.885Z" fill="#39cfab" fill-rule="evenodd"/>
      <path id="Контур_1214" data-name="Контур 1214" d="M1372.91,556.249a1.4,1.4,0,0,1,1.15.359,1.443,1.443,0,0,1,.57,1.007,1.641,1.641,0,0,1-1.15-.288A1.813,1.813,0,0,1,1372.91,556.249Z" fill="#39cfab" fill-rule="evenodd"/>
      <path id="Контур_1215" data-name="Контур 1215" d="M1369.83,549.64a2.262,2.262,0,0,1,3.23-.36,2.216,2.216,0,0,1-1.58.864,2.172,2.172,0,0,1-1.65-.5Z" fill="#39cfab" fill-rule="evenodd"/>
      <path id="Контур_1216" data-name="Контур 1216" d="M1371.34,550.718a2.309,2.309,0,0,1,.5,1.365,2.02,2.02,0,0,1-.65,1.292,1.779,1.779,0,0,1-.5-1.365A1.879,1.879,0,0,1,1371.34,550.718Z" fill="#39cfab" fill-rule="evenodd"/>
      <path id="Контур_1217" data-name="Контур 1217" d="M1375.35,545.975a1.67,1.67,0,0,1,.5,1.364,1.774,1.774,0,0,1-.64,1.295,1.711,1.711,0,0,1-.43-1.366,1.792,1.792,0,0,1,.57-1.293Z" fill="#39cfab" fill-rule="evenodd"/>
      <path id="Контур_1218" data-name="Контур 1218" d="M1374.13,548.346a2.049,2.049,0,0,1,.5,1.294,1.906,1.906,0,0,1-.64,1.294,1.63,1.63,0,0,1-.5-1.294,1.86,1.86,0,0,1,.64-1.294Z" fill="#39cfab" fill-rule="evenodd"/>
      <path id="Контур_1219" data-name="Контур 1219" d="M1374.42,546.047a1.946,1.946,0,0,1-1.29.718,2.185,2.185,0,0,1-1.36-.43,1.919,1.919,0,0,1,1.29-.72A2.214,2.214,0,0,1,1374.42,546.047Z" fill="#39cfab" fill-rule="evenodd"/>
      <path id="Контур_1220" data-name="Контур 1220" d="M1379.21,546.623a2.01,2.01,0,0,1,.08-1.439.779.779,0,1,1-.08,1.439Z" fill="#39cfab" fill-rule="evenodd"/>
      <path id="Контур_1221" data-name="Контур 1221" d="M1378.21,539.868a1.677,1.677,0,0,1,.07-1.293.691.691,0,1,1-.07,1.293Z" fill="#39cfab" fill-rule="evenodd"/>
      <path id="Контур_1222" data-name="Контур 1222" d="M1369.26,531.029a1.778,1.778,0,0,1,.29-1.437,1.91,1.91,0,0,1,1.21-.791,1.719,1.719,0,0,1-.28,1.437,1.564,1.564,0,0,1-1.22.791Z" fill="#39cfab" fill-rule="evenodd"/>
      <path id="Контур_1223" data-name="Контур 1223" d="M1366.47,529.161a1.267,1.267,0,0,1-.22-1.149,1.411,1.411,0,0,1,.65-.934,1.563,1.563,0,0,1,.21,1.15A1.49,1.49,0,0,1,1366.47,529.161Z" fill="#39cfab" fill-rule="evenodd"/>
      <path id="Контур_1224" data-name="Контур 1224" d="M1375.78,535.989a1.173,1.173,0,0,1,.64-.79,1.413,1.413,0,0,1,1.08-.074,1.517,1.517,0,0,1-.72.791A1.2,1.2,0,0,1,1375.78,535.989Z" fill="#39cfab" fill-rule="evenodd"/>
      <path id="Контур_1225" data-name="Контур 1225" d="M1349.42,534.766a2.729,2.729,0,0,0,.5-1.868,2.661,2.661,0,0,0-1-1.723,2.541,2.541,0,0,0-.5,1.939A2.338,2.338,0,0,0,1349.42,534.766Z" fill="#39cfab" fill-rule="evenodd"/>
      <path id="Контур_1226" data-name="Контур 1226" d="M1350.63,535.7a3.157,3.157,0,0,0,2.3.073,3.012,3.012,0,0,0,1.65-1.581,2.573,2.573,0,0,0-2.3-.072,2.96,2.96,0,0,0-1.64,1.578Z" fill="#39cfab" fill-rule="evenodd"/>
      <path id="Контур_1227" data-name="Контур 1227" d="M1350.85,537.641a2.867,2.867,0,0,0,1.86.717,2.382,2.382,0,0,0,1.87-.791,2.49,2.49,0,0,0-1.87-.79A2.532,2.532,0,0,0,1350.85,537.641Z" fill="#39cfab" fill-rule="evenodd"/>
      <path id="Контур_1228" data-name="Контур 1228" d="M1354.86,533.186a1.972,1.972,0,0,0,1,.861,2.141,2.141,0,0,0,1.37-.214,1.569,1.569,0,0,0-1.08-.791,1.6,1.6,0,0,0-1.29.142Z" fill="#39cfab" fill-rule="evenodd"/>
      <path id="Контур_1229" data-name="Контур 1229" d="M1354.07,535.845a1.655,1.655,0,0,0,1.08.86,1.608,1.608,0,0,0,1.29-.142,1.673,1.673,0,0,0-1.08-.865,1.613,1.613,0,0,0-1.29.145Z" fill="#39cfab" fill-rule="evenodd"/>
      <path id="Контур_1230" data-name="Контур 1230" d="M1353.14,539.294a1.593,1.593,0,0,0,1,.79,1.765,1.765,0,0,0,1.37-.145,1.659,1.659,0,0,0-1.08-.861A1.991,1.991,0,0,0,1353.14,539.294Z" fill="#39cfab" fill-rule="evenodd"/>
      <path id="Контур_1231" data-name="Контур 1231" d="M1350.78,538.358a1.5,1.5,0,0,0,0,1.366,1.8,1.8,0,0,0,1,.935,1.753,1.753,0,0,0-.07-1.365A1.5,1.5,0,0,0,1350.78,538.358Z" fill="#39cfab" fill-rule="evenodd"/>
      <path id="Контур_1232" data-name="Контур 1232" d="M1352.64,542.024a2.13,2.13,0,0,0-.57,1.221,1.575,1.575,0,0,0,.5,1.223,2.136,2.136,0,0,0,.57-1.223A1.572,1.572,0,0,0,1352.64,542.024Z" fill="#39cfab" fill-rule="evenodd"/>
      <path id="Контур_1233" data-name="Контур 1233" d="M1354.14,543.172a1.562,1.562,0,0,0-.57,1.221,1.437,1.437,0,0,0,.43,1.223,1.5,1.5,0,0,0,.58-1.149A2,2,0,0,0,1354.14,543.172Z" fill="#39cfab" fill-rule="evenodd"/>
      <path id="Контур_1234" data-name="Контур 1234" d="M1355,545.184a1.8,1.8,0,0,1,1.29.361,1.771,1.771,0,0,1,.58,1.22,1.711,1.711,0,0,1-1.29-.359,1.776,1.776,0,0,1-.58-1.223Z" fill="#39cfab" fill-rule="evenodd"/>
      <path id="Контур_1235" data-name="Контур 1235" d="M1351.14,533.113a2.6,2.6,0,0,0,1-1.652,2.451,2.451,0,0,0-.43-1.867,2.342,2.342,0,0,0-1,1.651A2.163,2.163,0,0,0,1351.14,533.113Z" fill="#39cfab" fill-rule="evenodd"/>
      <path id="Контур_1236" data-name="Контур 1236" d="M1348.92,536.49a2.29,2.29,0,0,0-1.08-1.651,2.622,2.622,0,0,0-1.93-.359,2.6,2.6,0,0,0,1.07,1.652A2.389,2.389,0,0,0,1348.92,536.49Z" fill="#39cfab" fill-rule="evenodd"/>
      <path id="Контур_1237" data-name="Контур 1237" d="M1348.7,537.929a2.027,2.027,0,0,0-1.36-.791,2,2,0,0,0-1.57.358,2.193,2.193,0,0,0,1.36.861,2.028,2.028,0,0,0,1.57-.43Z" fill="#39cfab" fill-rule="evenodd"/>
      <path id="Контур_1238" data-name="Контур 1238" d="M1348.56,539.365a1.556,1.556,0,0,0-1.15-.287,1.644,1.644,0,0,0-1,.646,1.323,1.323,0,0,0,1.14.287,1.4,1.4,0,0,0,1.01-.646Z" fill="#39cfab" fill-rule="evenodd"/>
      <path id="Контур_1239" data-name="Контур 1239" d="M1345.62,540.875a2.4,2.4,0,0,0,.22-1.726,2.361,2.361,0,0,0-1.08-1.365,2.39,2.39,0,0,0-.21,1.724A2.554,2.554,0,0,0,1345.62,540.875Z" fill="#39cfab" fill-rule="evenodd"/>
      <path id="Контур_1240" data-name="Контур 1240" d="M1346.41,541.3a1.208,1.208,0,0,0,1,0,1.192,1.192,0,0,0,.79-.646,1.31,1.31,0,0,0-1.79.646Z" fill="#39cfab" fill-rule="evenodd"/>
      <path id="Контур_1241" data-name="Контур 1241" d="M1347.41,542.24a1.4,1.4,0,0,0,1.08.072,1.291,1.291,0,0,0,.71-.649,1.207,1.207,0,0,0-1-.071A1.465,1.465,0,0,0,1347.41,542.24Z" fill="#39cfab" fill-rule="evenodd"/>
      <path id="Контур_1242" data-name="Контур 1242" d="M1345.77,542.167a1.945,1.945,0,0,0-1.29-.718,1.767,1.767,0,0,0-1.36.359,1.652,1.652,0,0,0,1.21.72A1.9,1.9,0,0,0,1345.77,542.167Z" fill="#39cfab" fill-rule="evenodd"/>
      <path id="Контур_1243" data-name="Контур 1243" d="M1346.48,543.46a1.51,1.51,0,0,0-1.36-.288,1.618,1.618,0,0,0-1.22.791,1.947,1.947,0,0,0,1.43.288A1.665,1.665,0,0,0,1346.48,543.46Z" fill="#39cfab" fill-rule="evenodd"/>
      <path id="Контур_1244" data-name="Контур 1244" d="M1347.41,544.393a1.7,1.7,0,0,0-1.43.29,1.814,1.814,0,0,0-.72,1.219,1.922,1.922,0,0,0,1.37-.287,2.149,2.149,0,0,0,.78-1.223Z" fill="#39cfab" fill-rule="evenodd"/>
      <path id="Контур_1245" data-name="Контур 1245" d="M1345.55,548.2a1.943,1.943,0,0,0-.43-1.365,2.461,2.461,0,0,0-1.29-.646,1.59,1.59,0,0,0,.43,1.365A1.628,1.628,0,0,0,1345.55,548.2Z" fill="#39cfab" fill-rule="evenodd"/>
      <path id="Контур_1246" data-name="Контур 1246" d="M1345.77,549.353a1.653,1.653,0,0,0-1.29-.287,2.184,2.184,0,0,0-1.15.791,1.772,1.772,0,0,0,1.36.287,1.831,1.831,0,0,0,1.08-.789Z" fill="#39cfab" fill-rule="evenodd"/>
      <path id="Контур_1247" data-name="Контур 1247" d="M1346.27,550.5a1.856,1.856,0,0,0-1.22.216,1.482,1.482,0,0,0-.72,1,1.279,1.279,0,0,0,1.22-.213,1.481,1.481,0,0,0,.72-1.007Z" fill="#39cfab" fill-rule="evenodd"/>
      <path id="Контур_1248" data-name="Контур 1248" d="M1346.91,551.651a1.4,1.4,0,0,0-1.14.5,1.626,1.626,0,0,0-.44,1.148,1.519,1.519,0,0,0,1.15-.5A1.62,1.62,0,0,0,1346.91,551.651Z" fill="#39cfab" fill-rule="evenodd"/>
      <path id="Контур_1249" data-name="Контур 1249" d="M1347.56,555.317a1.278,1.278,0,0,0-.87-.575,1.6,1.6,0,0,0-1,.214,1.411,1.411,0,0,0,.93.575,1.024,1.024,0,0,0,.93-.214Z" fill="#39cfab" fill-rule="evenodd"/>
      <path id="Контур_1250" data-name="Контур 1250" d="M1351.07,556.178a1.366,1.366,0,0,1-.58.861,1.586,1.586,0,0,1-1,.216,1.619,1.619,0,0,1,.57-.936,1.584,1.584,0,0,1,1-.142Z" fill="#39cfab" fill-rule="evenodd"/>
      <path id="Контур_1251" data-name="Контур 1251" d="M1351.57,546.836a1.733,1.733,0,0,0-1.29-.5,1.8,1.8,0,0,0-1.22.575,1.734,1.734,0,0,0,1.29.5,2.116,2.116,0,0,0,1.21-.577Z" fill="#39cfab" fill-rule="evenodd"/>
      <path id="Контур_1252" data-name="Контур 1252" d="M1347.99,546.548a1.857,1.857,0,0,0-1.01.935,1.806,1.806,0,0,0,.07,1.366,1.733,1.733,0,0,0,.94-.936A1.838,1.838,0,0,0,1347.99,546.548Z" fill="#39cfab" fill-rule="evenodd"/>
      <path id="Контур_1253" data-name="Контур 1253" d="M1349.56,547.772a1.642,1.642,0,0,0-1.14.719,1.859,1.859,0,0,0-.22,1.366,1.809,1.809,0,0,0,1.15-.791,2.045,2.045,0,0,0,.21-1.293Z" fill="#39cfab" fill-rule="evenodd"/>
      <path id="Контур_1254" data-name="Контур 1254" d="M1350.99,549.136a1.483,1.483,0,0,0-1.28.43,1.651,1.651,0,0,0-.58,1.223,1.86,1.86,0,0,0,1.29-.432A1.76,1.76,0,0,0,1350.99,549.136Z" fill="#39cfab" fill-rule="evenodd"/>
      <path id="Контур_1255" data-name="Контур 1255" d="M1354.43,551.651a1.81,1.81,0,0,0-.93-1.006,1.523,1.523,0,0,0-1.36-.071,2.065,2.065,0,0,0,.93,1.007,1.782,1.782,0,0,0,1.36.071Z" fill="#39cfab" fill-rule="evenodd"/>
      <path id="Контур_1256" data-name="Контур 1256" d="M1353.5,549.136a1.594,1.594,0,0,0-.93-1.006,1.378,1.378,0,0,0-1.29-.071,1.487,1.487,0,0,0,.86,1.007,1.8,1.8,0,0,0,1.36.071Z" fill="#39cfab" fill-rule="evenodd"/>
      <path id="Контур_1257" data-name="Контур 1257" d="M1351.42,552.442a1.736,1.736,0,0,0,.36-1.078,1.541,1.541,0,0,0-.5-1.007,1.185,1.185,0,0,0-.36,1.078A1.277,1.277,0,0,0,1351.42,552.442Z" fill="#39cfab" fill-rule="evenodd"/>
      <path id="Контур_1258" data-name="Контур 1258" d="M1349.2,554.094a1.481,1.481,0,0,0-.93-.791,1.791,1.791,0,0,0-1.22.216,1.252,1.252,0,0,0,.94.72A1.429,1.429,0,0,0,1349.2,554.094Z" fill="#39cfab" fill-rule="evenodd"/>
      <path id="Контур_1259" data-name="Контур 1259" d="M1367.4,536.85a1.445,1.445,0,0,1,.64.791,1.2,1.2,0,0,1-.07,1.005,1.319,1.319,0,0,1-.72-.791A1.213,1.213,0,0,1,1367.4,536.85Z" fill="#39cfab" fill-rule="evenodd"/>
    </g>
  </g>
</svg>
