<svg width="340" height="340" viewBox="0 0 340 340" fill="none" xmlns="http://www.w3.org/2000/svg">
<g clip-path="url(#clip0_922_350)">
<path fill-rule="evenodd" clip-rule="evenodd" d="M170 0C263.908 0 340 76.1358 340 170C340 263.864 263.908 340 170 340C76.0919 340 0 263.908 0 170C0 76.0919 76.1358 0 170 0Z" fill="white"/>
<path fill-rule="evenodd" clip-rule="evenodd" d="M70.3867 216.383L268.603 120.281L320.56 228.012C297.258 288.438 238.631 331.311 170 331.311C153.412 331.311 137.439 328.81 122.343 324.158L70.3867 216.383Z" fill="#BDBFB6"/>
<path fill-rule="evenodd" clip-rule="evenodd" d="M282.514 251.533L306.606 276.239C314.022 283.875 313.89 296.118 306.254 303.578L299.497 310.16C291.861 317.576 279.618 317.445 272.158 309.809L247.979 285.016C224.984 300.638 197.953 308.931 170.044 308.931C93.3815 308.931 31.2441 246.794 31.2441 170.132C31.2441 93.4694 93.4254 31.332 170.044 31.332C246.662 31.332 308.844 93.4694 308.844 170.132C308.844 199.489 299.672 227.837 282.47 251.533H282.514Z" fill="#756F64"/>
<path fill-rule="evenodd" clip-rule="evenodd" d="M274.485 252.016L302.218 280.452C307.309 285.674 307.177 294.055 301.999 299.146L295.241 305.728C290.019 310.818 281.637 310.687 276.547 305.508L248.726 276.985C226.697 293.221 199.534 302.788 170.089 302.788C96.8053 302.788 37.3887 243.371 37.3887 170.088C37.3887 96.8043 96.8053 37.3877 170.089 37.3877C243.372 37.3877 302.789 96.8043 302.789 170.088C302.789 200.981 292.213 229.417 274.485 251.972V252.016Z" fill="white"/>
<path fill-rule="evenodd" clip-rule="evenodd" d="M170.044 45.9009C238.632 45.9009 294.231 101.5 294.231 170.088C294.231 238.676 238.632 294.275 170.044 294.275C101.456 294.275 45.8574 238.676 45.8574 170.088C45.8574 101.5 101.456 45.9009 170.044 45.9009Z" fill="#C3C9C5"/>
<path fill-rule="evenodd" clip-rule="evenodd" d="M170.043 70.4751C225.072 70.4751 269.7 115.103 269.7 170.132C269.7 225.16 225.072 269.788 170.043 269.788C115.015 269.788 70.3867 225.16 70.3867 170.132C70.3867 115.103 115.015 70.4751 170.043 70.4751Z" fill="#58290E"/>
<path fill-rule="evenodd" clip-rule="evenodd" d="M170.043 70.4751C200.937 70.4751 228.539 84.5174 246.794 106.59C228.802 88.8179 204.052 77.8034 176.757 77.8034C121.729 77.8034 77.1007 122.432 77.1007 177.46C77.1007 201.595 85.7016 223.756 100.007 241.002C81.7522 222.922 70.3867 197.865 70.3867 170.132C70.3867 115.103 115.015 70.4751 170.043 70.4751Z" fill="#A77754"/>
<path fill-rule="evenodd" clip-rule="evenodd" d="M189.79 256.887C192.335 256.887 194.354 258.949 194.354 261.45C194.354 263.952 192.292 266.014 189.79 266.014C187.289 266.014 185.227 263.952 185.227 261.45C185.227 258.949 187.289 256.887 189.79 256.887Z" fill="#A77754"/>
<path fill-rule="evenodd" clip-rule="evenodd" d="M199.314 244.205C203.571 244.205 206.994 247.672 206.994 251.884C206.994 256.097 203.527 259.564 199.314 259.564C195.101 259.564 191.635 256.097 191.635 251.884C191.635 247.672 195.101 244.205 199.314 244.205Z" fill="#B08565"/>
<path fill-rule="evenodd" clip-rule="evenodd" d="M213.312 241.177C217.569 241.177 220.992 244.644 220.992 248.857C220.992 253.069 217.525 256.536 213.312 256.536C209.1 256.536 205.633 253.069 205.633 248.857C205.633 244.644 209.1 241.177 213.312 241.177Z" fill="#A77754"/>
<path fill-rule="evenodd" clip-rule="evenodd" d="M230.425 230.207C234.682 230.207 238.105 233.673 238.105 237.886C238.105 242.099 234.638 245.565 230.425 245.565C226.213 245.565 222.746 242.099 222.746 237.886C222.746 233.673 226.213 230.207 230.425 230.207Z" fill="#A77754"/>
<path fill-rule="evenodd" clip-rule="evenodd" d="M240.695 226.389C243.24 226.389 245.258 228.451 245.258 230.952C245.258 233.454 243.196 235.516 240.695 235.516C238.193 235.516 236.131 233.454 236.131 230.952C236.131 228.451 238.193 226.389 240.695 226.389Z" fill="#A77754"/>
<path fill-rule="evenodd" clip-rule="evenodd" d="M241.001 215.726C243.546 215.726 245.565 217.788 245.565 220.289C245.565 222.791 243.503 224.853 241.001 224.853C238.5 224.853 236.438 222.791 236.438 220.289C236.438 217.788 238.5 215.726 241.001 215.726Z" fill="#B08565"/>
<path fill-rule="evenodd" clip-rule="evenodd" d="M249.603 205.193C253.86 205.193 257.283 208.66 257.283 212.873C257.283 217.085 253.816 220.552 249.603 220.552C245.391 220.552 241.924 217.085 241.924 212.873C241.924 208.66 245.391 205.193 249.603 205.193Z" fill="#A77754"/>
<path fill-rule="evenodd" clip-rule="evenodd" d="M253.289 189.659C257.545 189.659 260.968 193.126 260.968 197.339C260.968 201.551 257.501 205.018 253.289 205.018C249.076 205.018 245.609 201.551 245.609 197.339C245.609 193.126 249.076 189.659 253.289 189.659Z" fill="#A77754"/>
<path fill-rule="evenodd" clip-rule="evenodd" d="M262.066 185.534C264.611 185.534 266.629 187.597 266.629 190.098C266.629 192.599 264.567 194.662 262.066 194.662C259.564 194.662 257.502 192.599 257.502 190.098C257.502 187.597 259.564 185.534 262.066 185.534Z" fill="#B08565"/>
<path fill-rule="evenodd" clip-rule="evenodd" d="M260.837 173.335C263.382 173.335 265.401 175.397 265.401 177.899C265.401 180.4 263.338 182.462 260.837 182.462C258.336 182.462 256.273 180.4 256.273 177.899C256.273 175.397 258.336 173.335 260.837 173.335Z" fill="#A77754"/>
<path fill-rule="evenodd" clip-rule="evenodd" d="M263.558 163.242C266.103 163.242 268.122 165.305 268.122 167.806C268.122 170.307 266.059 172.37 263.558 172.37C261.057 172.37 258.994 170.307 258.994 167.806C258.994 165.305 261.057 163.242 263.558 163.242Z" fill="#A77754"/>
<path fill-rule="evenodd" clip-rule="evenodd" d="M262.372 151.964C264.918 151.964 266.936 154.027 266.936 156.528C266.936 159.029 264.874 161.092 262.372 161.092C259.871 161.092 257.809 159.029 257.809 156.528C257.809 154.027 259.871 151.964 262.372 151.964Z" fill="#B08565"/>
<path fill-rule="evenodd" clip-rule="evenodd" d="M260.661 143.144C262.592 143.144 264.172 144.724 264.172 146.655C264.172 148.585 262.592 150.165 260.661 150.165C258.73 150.165 257.15 148.585 257.15 146.655C257.15 144.724 258.73 143.144 260.661 143.144Z" fill="#A77754"/>
<path fill-rule="evenodd" clip-rule="evenodd" d="M258.555 137.352C259.828 137.352 260.837 138.361 260.837 139.633C260.837 140.906 259.828 141.915 258.555 141.915C257.283 141.915 256.273 140.906 256.273 139.633C256.273 138.361 257.283 137.352 258.555 137.352Z" fill="#A77754"/>
<path fill-rule="evenodd" clip-rule="evenodd" d="M220.64 228.363C224.897 228.363 228.32 231.83 228.32 236.043C228.32 240.255 224.853 243.722 220.64 243.722C216.428 243.722 212.961 240.255 212.961 236.043C212.961 231.83 216.428 228.363 220.64 228.363Z" fill="#B08565"/>
<path fill-rule="evenodd" clip-rule="evenodd" d="M258.862 157.933C260.135 157.933 261.144 158.942 261.144 160.214C261.144 161.487 260.135 162.496 258.862 162.496C257.589 162.496 256.58 161.487 256.58 160.214C256.58 158.942 257.589 157.933 258.862 157.933Z" fill="#A77754"/>
<path fill-rule="evenodd" clip-rule="evenodd" d="M237.051 221.825C238.324 221.825 239.333 222.834 239.333 224.107C239.333 225.38 238.324 226.389 237.051 226.389C235.779 226.389 234.77 225.38 234.77 224.107C234.77 222.834 235.779 221.825 237.051 221.825Z" fill="#A77754"/>
<path fill-rule="evenodd" clip-rule="evenodd" d="M186.104 255.658C187.377 255.658 188.386 256.667 188.386 257.94C188.386 259.213 187.377 260.222 186.104 260.222C184.832 260.222 183.822 259.213 183.822 257.94C183.822 256.667 184.832 255.658 186.104 255.658Z" fill="#B08565"/>
<path fill-rule="evenodd" clip-rule="evenodd" d="M170.044 113.918C201.069 113.918 226.214 139.063 226.214 170.088C226.214 201.113 201.069 226.257 170.044 226.257C139.02 226.257 113.875 201.113 113.875 170.088C113.875 139.063 139.02 113.918 170.044 113.918Z" fill="#361404"/>
<path d="M145.557 168.947H140.203C140.203 170.044 140.73 170.57 141.739 170.57C142.266 170.57 142.661 170.351 142.968 169.912H145.425C145.25 170.57 144.943 171.053 144.548 171.404C143.845 172.062 142.924 172.37 141.739 172.37C140.247 172.37 139.15 171.931 138.404 171.009C137.834 170.351 137.57 169.517 137.57 168.552C137.57 167.411 137.921 166.446 138.623 165.743C139.326 165.041 140.291 164.646 141.564 164.646C143.143 164.646 144.24 165.217 144.943 166.358C145.337 167.016 145.513 167.762 145.513 168.596V168.947H145.557ZM143.187 167.499C143.012 166.665 142.529 166.27 141.739 166.27C141.3 166.27 140.949 166.402 140.686 166.665C140.467 166.884 140.335 167.148 140.291 167.499H143.187ZM152.929 169.649C152.929 170.395 152.666 171.053 152.095 171.536C151.481 172.062 150.603 172.37 149.506 172.37C148.497 172.37 147.532 172.106 146.61 171.536L147.532 169.737C148.278 170.219 148.936 170.439 149.55 170.439C150.077 170.439 150.34 170.263 150.34 169.912C150.34 169.737 150.252 169.561 150.077 169.473C149.945 169.386 149.682 169.342 149.287 169.254C148.804 169.166 148.497 169.078 148.365 168.991C147.839 168.771 147.488 168.464 147.312 168.025C147.224 167.806 147.181 167.499 147.181 167.192C147.181 166.577 147.4 166.007 147.839 165.524C148.409 164.91 149.243 164.602 150.428 164.602C151.218 164.602 152.008 164.778 152.754 165.085L151.876 166.709C151.393 166.446 150.954 166.358 150.516 166.358C149.989 166.358 149.77 166.533 149.77 166.884C149.77 167.06 149.857 167.192 150.077 167.279C150.165 167.323 150.428 167.411 150.911 167.499C151.569 167.63 152.051 167.85 152.403 168.157C152.797 168.552 153.017 169.035 153.017 169.649H152.929ZM162.671 168.464C162.671 169.693 162.232 170.702 161.398 171.404C160.74 171.975 159.95 172.282 159.073 172.282C158.546 172.282 158.063 172.15 157.625 171.931C157.361 171.799 157.098 171.58 156.835 171.316V175.661H154.289V164.822H156.835V165.612C157.054 165.305 157.317 165.085 157.581 164.954C158.019 164.69 158.502 164.602 159.073 164.602C159.95 164.602 160.74 164.91 161.442 165.524C162.276 166.27 162.671 167.235 162.671 168.464ZM159.994 168.464C159.994 168.069 159.863 167.718 159.599 167.411C159.292 167.016 158.853 166.84 158.371 166.84C157.932 166.84 157.537 167.016 157.23 167.323C156.922 167.63 156.747 168.025 156.747 168.508C156.747 168.991 156.922 169.342 157.23 169.693C157.537 170 157.932 170.176 158.371 170.176C158.897 170.176 159.292 170 159.599 169.605C159.863 169.298 159.994 168.947 159.994 168.552V168.464ZM169.561 167.192C169.209 167.016 168.858 166.928 168.463 166.928C167.63 166.928 167.103 167.279 166.84 167.981C166.752 168.245 166.708 168.552 166.708 168.991V172.062H164.163V164.822H166.708V166.007C166.971 165.568 167.279 165.261 167.586 165.085C167.981 164.822 168.507 164.69 169.078 164.69C169.209 164.69 169.385 164.69 169.561 164.69V167.104V167.192ZM178.337 168.903H172.983C172.983 170 173.51 170.527 174.519 170.527C175.046 170.527 175.441 170.307 175.748 169.868H178.205C178.03 170.527 177.723 171.009 177.328 171.36C176.626 172.019 175.704 172.326 174.519 172.326C173.027 172.326 171.93 171.887 171.184 170.965C170.614 170.307 170.35 169.473 170.35 168.508C170.35 167.367 170.701 166.402 171.404 165.7C172.106 164.997 173.071 164.602 174.344 164.602C175.923 164.602 177.02 165.173 177.723 166.314C178.118 166.972 178.293 167.718 178.293 168.552V168.903H178.337ZM175.967 167.455C175.792 166.621 175.309 166.226 174.519 166.226C174.08 166.226 173.729 166.358 173.466 166.621C173.247 166.84 173.115 167.104 173.071 167.455H175.967ZM185.709 169.605C185.709 170.351 185.446 171.009 184.875 171.492C184.261 172.019 183.383 172.326 182.242 172.326C181.233 172.326 180.268 172.062 179.346 171.492L180.268 169.693C181.014 170.176 181.672 170.395 182.286 170.395C182.813 170.395 183.076 170.219 183.076 169.868C183.076 169.693 182.988 169.517 182.813 169.43C182.681 169.342 182.418 169.298 182.023 169.21C181.54 169.122 181.233 169.035 181.102 168.947C180.575 168.727 180.224 168.42 180.048 167.981C179.961 167.762 179.917 167.455 179.917 167.148C179.917 166.533 180.136 165.963 180.575 165.48C181.145 164.866 181.979 164.559 183.164 164.559C183.954 164.559 184.744 164.734 185.534 165.041L184.656 166.665C184.173 166.402 183.734 166.314 183.296 166.314C182.769 166.314 182.55 166.489 182.55 166.84C182.55 167.016 182.637 167.148 182.857 167.235C182.945 167.279 183.208 167.367 183.691 167.455C184.349 167.586 184.832 167.806 185.183 168.113C185.578 168.508 185.797 168.991 185.797 169.605H185.709ZM192.906 169.605C192.906 170.351 192.643 171.009 192.072 171.492C191.458 172.019 190.58 172.326 189.439 172.326C188.43 172.326 187.464 172.062 186.543 171.492L187.464 169.693C188.21 170.176 188.869 170.395 189.483 170.395C190.01 170.395 190.273 170.219 190.273 169.868C190.273 169.693 190.185 169.517 190.01 169.43C189.878 169.342 189.615 169.298 189.22 169.21C188.737 169.122 188.43 169.035 188.298 168.947C187.772 168.727 187.421 168.42 187.245 167.981C187.157 167.762 187.113 167.455 187.113 167.148C187.113 166.533 187.333 165.963 187.772 165.48C188.342 164.866 189.176 164.559 190.361 164.559C191.151 164.559 191.94 164.734 192.686 165.041L191.809 166.665C191.326 166.402 190.887 166.314 190.448 166.314C189.922 166.314 189.702 166.489 189.702 166.84C189.702 167.016 189.79 167.148 190.01 167.235C190.097 167.279 190.361 167.367 190.843 167.455C191.502 167.586 191.984 167.806 192.335 168.113C192.73 168.508 192.95 168.991 192.95 169.605H192.906ZM202.604 168.42C202.604 169.43 202.253 170.263 201.595 171.009C200.805 171.887 199.664 172.326 198.26 172.326C196.855 172.326 195.714 171.887 194.881 171.009C194.222 170.307 193.871 169.43 193.871 168.376C193.871 167.455 194.222 166.621 194.881 165.875C195.67 164.997 196.811 164.559 198.303 164.559C199.664 164.559 200.761 164.997 201.551 165.875C202.209 166.577 202.56 167.455 202.56 168.42H202.604ZM199.927 168.42C199.927 167.938 199.752 167.543 199.444 167.235C199.093 166.928 198.742 166.753 198.26 166.753C197.733 166.753 197.294 166.928 196.987 167.367C196.724 167.674 196.592 168.025 196.592 168.464C196.592 168.903 196.724 169.254 196.987 169.561C197.338 169.956 197.733 170.176 198.26 170.176C198.742 170.176 199.137 170 199.444 169.693C199.752 169.386 199.927 168.991 199.927 168.508V168.42Z" fill="white"/>
</g>
<defs>
<clipPath id="clip0_922_350">
<rect width="340" height="340" fill="white"/>
</clipPath>
</defs>
</svg>
