<svg xmlns="http://www.w3.org/2000/svg" width="340" height="340" viewBox="0 0 340 340">
  <g id="Сгруппировать_58" data-name="Сгруппировать 58" transform="translate(-17837.41 -3243.28)">
    <path id="Контур_1084" data-name="Контур 1084" d="M674.09,226.84a170,170,0,1,1-170,170,170,170,0,0,1,170-170Z" transform="translate(17333.32 3016.44)" fill="#fff" fill-rule="evenodd"/>
    <path id="Контур_1085" data-name="Контур 1085" d="M576.74,450.17,781.3,351.01l53.61,111.16a166.687,166.687,0,0,1-204.53,99.22L576.74,450.17Z" transform="translate(17322.42 3005.54)" fill="#bdbfb6" fill-rule="evenodd"/>
    <path id="Контур_1086" data-name="Контур 1086" d="M785.877,477.957,809.792,502.5a19.264,19.264,0,0,1-.337,27.152l-6.717,6.547a19.224,19.224,0,0,1-27.139-.347l-24.011-24.639a137.826,137.826,0,1,1,34.29-33.257Z" transform="translate(17333.32 3016.44)" fill="#756f64" fill-rule="evenodd"/>
    <path id="Контур_1087" data-name="Контур 1087" d="M777.727,478.332l27.5,28.22A13.154,13.154,0,0,1,805,525.094l-6.706,6.546a13.141,13.141,0,0,1-18.541-.24l-27.571-28.287a131.641,131.641,0,1,1,25.544-24.779Z" transform="translate(17333.32 3016.44)" fill="#fff" fill-rule="evenodd"/>
    <path id="Контур_1088" data-name="Контур 1088" d="M674.14,274.23A122.73,122.73,0,1,1,551.41,396.96,122.724,122.724,0,0,1,674.14,274.23Z" transform="translate(17333.32 3016.44)" fill="#c3c9c5" fill-rule="evenodd"/>
    <path id="Контур_1089" data-name="Контур 1089" d="M674.14,299.57a97.38,97.38,0,1,1-97.38,97.38,97.382,97.382,0,0,1,97.38-97.38Z" transform="translate(17333.32 3016.44)" fill="#58290e" fill-rule="evenodd"/>
    <path id="Контур_1090" data-name="Контур 1090" d="M679.59,299.57a102.664,102.664,0,0,1,79.21,37.25A102.829,102.829,0,0,0,607.31,475.53a102.822,102.822,0,0,1,72.28-175.96Z" transform="translate(17328.629 3011.908)" fill="#a77754" fill-rule="evenodd"/>
    <path id="Контур_1091" data-name="Контур 1091" d="M699.93,491.94a4.72,4.72,0,1,1-4.72,4.72,4.722,4.722,0,0,1,4.72-4.72Z" transform="translate(17327.219 3007.977)" fill="#a77754" fill-rule="evenodd"/>
    <path id="Контур_1092" data-name="Контур 1092" d="M709.76,478.88a7.945,7.945,0,1,1-7.94,7.94,7.949,7.949,0,0,1,7.94-7.94Z" transform="translate(17326.887 3008.239)" fill="#b08565" fill-rule="evenodd"/>
    <path id="Контур_1093" data-name="Контур 1093" d="M724.24,475.73a7.945,7.945,0,1,1-7.95,7.95,7.951,7.951,0,0,1,7.95-7.95Z" transform="translate(17326.416 3008.342)" fill="#a77754" fill-rule="evenodd"/>
    <path id="Контур_1094" data-name="Контур 1094" d="M741.87,464.4a7.95,7.95,0,1,1-7.95,7.95,7.951,7.951,0,0,1,7.95-7.95Z" transform="translate(17325.842 3008.71)" fill="#a77754" fill-rule="evenodd"/>
    <path id="Контур_1095" data-name="Контур 1095" d="M752.48,460.47a4.72,4.72,0,1,1-4.72,4.72,4.716,4.716,0,0,1,4.72-4.72Z" transform="translate(17325.541 3008.982)" fill="#a77754" fill-rule="evenodd"/>
    <path id="Контур_1096" data-name="Контур 1096" d="M752.8,449.46a4.72,4.72,0,1,1-4.72,4.72,4.716,4.716,0,0,1,4.72-4.72Z" transform="translate(17325.531 3009.333)" fill="#b08565" fill-rule="evenodd"/>
    <path id="Контур_1097" data-name="Контур 1097" d="M761.69,438.6a7.945,7.945,0,1,1-7.94,7.95,7.951,7.951,0,0,1,7.94-7.95Z" transform="translate(17325.197 3009.55)" fill="#a77754" fill-rule="evenodd"/>
    <path id="Контур_1098" data-name="Контур 1098" d="M765.47,422.55a7.945,7.945,0,1,1-7.95,7.94,7.949,7.949,0,0,1,7.95-7.94Z" transform="translate(17325.074 3010.072)" fill="#a77754" fill-rule="evenodd"/>
    <path id="Контур_1099" data-name="Контур 1099" d="M774.52,418.3a4.72,4.72,0,1,1-4.72,4.72,4.722,4.722,0,0,1,4.72-4.72Z" transform="translate(17324.838 3010.328)" fill="#b08565" fill-rule="evenodd"/>
    <path id="Контур_1100" data-name="Контур 1100" d="M773.26,405.71a4.72,4.72,0,1,1-4.72,4.72,4.722,4.722,0,0,1,4.72-4.72Z" transform="translate(17324.879 3010.73)" fill="#a77754" fill-rule="evenodd"/>
    <path id="Контур_1101" data-name="Контур 1101" d="M776.09,395.32a4.72,4.72,0,1,1-4.72,4.72,4.722,4.722,0,0,1,4.72-4.72Z" transform="translate(17324.787 3011.062)" fill="#a77754" fill-rule="evenodd"/>
    <path id="Контур_1102" data-name="Контур 1102" d="M774.83,383.68a4.72,4.72,0,1,1-4.72,4.72,4.716,4.716,0,0,1,4.72-4.72Z" transform="translate(17324.828 3011.433)" fill="#b08565" fill-rule="evenodd"/>
    <path id="Контур_1103" data-name="Контур 1103" d="M773.1,374.55a3.62,3.62,0,1,1-3.62,3.62,3.619,3.619,0,0,1,3.62-3.62Z" transform="translate(17324.902 3011.755)" fill="#a77754" fill-rule="evenodd"/>
    <path id="Контур_1104" data-name="Контур 1104" d="M770.9,368.57a2.36,2.36,0,1,1-2.36,2.36,2.364,2.364,0,0,1,2.36-2.36Z" transform="translate(17324.994 3011.977)" fill="#a77754" fill-rule="evenodd"/>
    <path id="Контур_1105" data-name="Контур 1105" d="M731.8,462.52a7.945,7.945,0,1,1-7.95,7.95,7.951,7.951,0,0,1,7.95-7.95Z" transform="translate(17326.17 3008.771)" fill="#b08565" fill-rule="evenodd"/>
    <path id="Контур_1106" data-name="Контур 1106" d="M771.21,389.82a2.36,2.36,0,1,1-2.36,2.36,2.364,2.364,0,0,1,2.36-2.36Z" transform="translate(17324.984 3011.308)" fill="#a77754" fill-rule="evenodd"/>
    <path id="Контур_1107" data-name="Контур 1107" d="M748.71,455.75a2.36,2.36,0,1,1-2.36,2.36,2.364,2.364,0,0,1,2.36-2.36Z" transform="translate(17325.691 3009.232)" fill="#a77754" fill-rule="evenodd"/>
    <path id="Контур_1108" data-name="Контур 1108" d="M696.15,490.69a2.36,2.36,0,1,1-2.36,2.36,2.358,2.358,0,0,1,2.36-2.36Z" transform="translate(17327.348 3008.132)" fill="#b08565" fill-rule="evenodd"/>
    <path id="Контур_1109" data-name="Контур 1109" d="M679.59,344.42a57.99,57.99,0,1,1-57.99,57.99,57.993,57.993,0,0,1,57.99-57.99Z" transform="translate(17327.867 3010.984)" fill="#361404" fill-rule="evenodd"/>
    <path id="Контур_1110" data-name="Контур 1110" d="M654.29,401.18h-5.51a1.446,1.446,0,0,0,1.61,1.66,1.4,1.4,0,0,0,1.25-.69h2.55a3.3,3.3,0,0,1-.9,1.55,4.1,4.1,0,0,1-2.88.99,4.224,4.224,0,0,1-3.45-1.4,3.847,3.847,0,0,1-.87-2.55,3.987,3.987,0,0,1,1.08-2.9,4.032,4.032,0,0,1,3.05-1.12,3.687,3.687,0,0,1,3.47,1.78,4.516,4.516,0,0,1,.58,2.32v.36Zm-2.46-1.5a1.422,1.422,0,0,0-1.49-1.28,1.5,1.5,0,0,0-1.08.41,1.522,1.522,0,0,0-.42.87Zm10.04,2.22a2.494,2.494,0,0,1-.85,1.94,3.894,3.894,0,0,1-2.69.85,5.847,5.847,0,0,1-2.99-.86l.96-1.86a3.949,3.949,0,0,0,2.1.72c.55,0,.82-.19.82-.56a.511.511,0,0,0-.29-.46,3.853,3.853,0,0,0-.83-.25,8.457,8.457,0,0,1-.95-.25,1.792,1.792,0,0,1-1.08-.98,2.26,2.26,0,0,1-.15-.87,2.445,2.445,0,0,1,.67-1.71,3.462,3.462,0,0,1,2.65-.94,6.33,6.33,0,0,1,2.42.48l-.89,1.69a3.112,3.112,0,0,0-1.41-.38c-.53,0-.79.19-.79.56a.467.467,0,0,0,.32.41,5.23,5.23,0,0,0,.85.22,2.992,2.992,0,0,1,1.52.69,2.133,2.133,0,0,1,.61,1.56Zm10.03-1.21a3.832,3.832,0,0,1-1.32,3.05,3.551,3.551,0,0,1-2.41.91,3.33,3.33,0,0,1-1.49-.35,2.957,2.957,0,0,1-.82-.63v4.47h-2.65V396.95h2.65v.84a2.55,2.55,0,0,1,.76-.69,3.1,3.1,0,0,1,1.53-.38,3.6,3.6,0,0,1,2.46.96,3.8,3.8,0,0,1,1.29,3.01Zm-2.74,0a1.622,1.622,0,0,0-.4-1.1,1.6,1.6,0,0,0-1.29-.59,1.69,1.69,0,1,0-.01,3.38,1.608,1.608,0,0,0,1.28-.59,1.647,1.647,0,0,0,.42-1.1Zm9.85-1.3a2.527,2.527,0,0,0-1.12-.27,1.587,1.587,0,0,0-1.68,1.07,2.876,2.876,0,0,0-.15,1.03v3.18h-2.65v-7.45h2.65v1.23a2.815,2.815,0,0,1,.9-.94,2.9,2.9,0,0,1,1.53-.39c.14,0,.31.01.51.02v2.52Zm9.07,1.79h-5.51c0,1.11.53,1.66,1.61,1.66a1.4,1.4,0,0,0,1.26-.69h2.55a3.3,3.3,0,0,1-.9,1.55,4.1,4.1,0,0,1-2.88.99,4.224,4.224,0,0,1-3.45-1.4,3.847,3.847,0,0,1-.87-2.55,3.987,3.987,0,0,1,1.08-2.9,4.032,4.032,0,0,1,3.05-1.12,3.687,3.687,0,0,1,3.47,1.78,4.516,4.516,0,0,1,.58,2.32v.36Zm-2.47-1.5a1.422,1.422,0,0,0-1.49-1.28,1.455,1.455,0,0,0-1.07.41,1.522,1.522,0,0,0-.42.87Zm10.05,2.22a2.494,2.494,0,0,1-.85,1.94,3.9,3.9,0,0,1-2.7.85,5.785,5.785,0,0,1-2.98-.86l.96-1.86a3.976,3.976,0,0,0,2.1.72c.55,0,.83-.19.83-.56a.511.511,0,0,0-.29-.46,3.81,3.81,0,0,0-.84-.25,7.862,7.862,0,0,1-.95-.25,1.848,1.848,0,0,1-1.08-.98,2.26,2.26,0,0,1-.15-.87,2.445,2.445,0,0,1,.67-1.71,3.462,3.462,0,0,1,2.65-.94,6.33,6.33,0,0,1,2.42.48l-.89,1.69a3.118,3.118,0,0,0-1.42-.38c-.53,0-.79.19-.79.56a.467.467,0,0,0,.32.41,4.924,4.924,0,0,0,.85.22,2.952,2.952,0,0,1,1.52.69,2.1,2.1,0,0,1,.62,1.56Zm7.4,0a2.494,2.494,0,0,1-.85,1.94,3.921,3.921,0,0,1-2.7.85,5.785,5.785,0,0,1-2.98-.86l.95-1.86a4.006,4.006,0,0,0,2.11.72c.55,0,.82-.19.82-.56a.494.494,0,0,0-.29-.46,3.853,3.853,0,0,0-.83-.25,7.862,7.862,0,0,1-.95-.25,1.82,1.82,0,0,1-1.08-.98,2.26,2.26,0,0,1-.15-.87,2.445,2.445,0,0,1,.67-1.71,3.447,3.447,0,0,1,2.65-.94,6.33,6.33,0,0,1,2.42.48l-.89,1.69a3.112,3.112,0,0,0-1.41-.38c-.53,0-.79.19-.79.56a.467.467,0,0,0,.32.41,5.23,5.23,0,0,0,.85.22,2.992,2.992,0,0,1,1.52.69,2.094,2.094,0,0,1,.61,1.56Zm10.02-1.23a3.783,3.783,0,0,1-1.02,2.66,5.122,5.122,0,0,1-6.93,0,3.885,3.885,0,0,1-1.02-2.73,3.7,3.7,0,0,1,1.03-2.58,4.581,4.581,0,0,1,3.54-1.36,4.357,4.357,0,0,1,3.37,1.36,3.775,3.775,0,0,1,1.03,2.65Zm-2.74,0a1.638,1.638,0,0,0-.51-1.22,1.731,1.731,0,0,0-2.96,1.22,1.694,1.694,0,0,0,.41,1.13,1.65,1.65,0,0,0,1.33.61,1.708,1.708,0,0,0,1.73-1.74Z" transform="translate(17327.869 3010.986)" fill="#fff"/>
  </g>
</svg>
