<svg xmlns="http://www.w3.org/2000/svg" xmlns:xlink="http://www.w3.org/1999/xlink" width="340" height="340" viewBox="0 0 340 340">
  <defs>
    <clipPath id="clip-path">
      <rect id="Прямоугольник_53" data-name="Прямоугольник 53" width="340" height="340" fill="#fff"/>
    </clipPath>
  </defs>
  <g id="_5" data-name="5" clip-path="url(#clip-path)">
    <path id="Контур_653" data-name="Контур 653" d="M170,0A170,170,0,1,1,0,170,170,170,0,0,1,170,0Z" fill="#fff" fill-rule="evenodd"/>
    <path id="Контур_654" data-name="Контур 654" d="M70.387,224.314l198.216-96.1L320.56,235.942a161.546,161.546,0,0,1-198.217,96.147Z" transform="translate(0 -7.929)" fill="#bdbfb6" fill-rule="evenodd"/>
    <path id="Контур_655" data-name="Контур 655" d="M282.514,253.6,306.605,278.3a19.375,19.375,0,0,1-.351,27.339l-6.757,6.582a19.376,19.376,0,0,1-27.339-.351l-24.179-24.794A138.925,138.925,0,1,1,282.47,253.6Z" transform="translate(0 -2.066)" fill="#756f64" fill-rule="evenodd"/>
    <path id="Контур_656" data-name="Контур 656" d="M274.485,254.481l27.733,28.435A13.271,13.271,0,0,1,302,301.611l-6.758,6.582a13.27,13.27,0,0,1-18.694-.22L248.726,279.45a132.613,132.613,0,1,1,25.8-25.013Z" transform="translate(0 -2.465)" fill="#fff" fill-rule="evenodd"/>
    <path id="Контур_657" data-name="Контур 657" d="M170.044,48.927A124.187,124.187,0,1,1,45.857,173.114,124.185,124.185,0,0,1,170.044,48.927Z" transform="translate(0 -3.026)" fill="#c3c9c5" fill-rule="evenodd"/>
    <path id="Контур_658" data-name="Контур 658" d="M170.043,75.121a99.657,99.657,0,1,1-99.656,99.657A99.67,99.67,0,0,1,170.043,75.121Z" transform="translate(0 -4.646)" fill="#58290e" fill-rule="evenodd"/>
    <path id="Контур_659" data-name="Контур 659" d="M170.043,75.121a99.322,99.322,0,0,1,76.751,36.115A99.638,99.638,0,0,0,100.007,245.648,99.638,99.638,0,0,1,170.043,75.121Z" transform="translate(0 -4.646)" fill="#a77754" fill-rule="evenodd"/>
    <path id="Контур_660" data-name="Контур 660" d="M189.79,273.822a4.564,4.564,0,1,1-4.563,4.564A4.561,4.561,0,0,1,189.79,273.822Z" transform="translate(0 -16.935)" fill="#a77754" fill-rule="evenodd"/>
    <path id="Контур_661" data-name="Контур 661" d="M199.314,260.3a7.68,7.68,0,1,1-7.679,7.68A7.688,7.688,0,0,1,199.314,260.3Z" transform="translate(0 -16.099)" fill="#b08565" fill-rule="evenodd"/>
    <path id="Контур_662" data-name="Контур 662" d="M213.312,257.077a7.679,7.679,0,1,1-7.679,7.679A7.688,7.688,0,0,1,213.312,257.077Z" transform="translate(0 -15.899)" fill="#a77754" fill-rule="evenodd"/>
    <path id="Контур_663" data-name="Контур 663" d="M230.425,245.383a7.7,7.7,0,1,1-7.679,7.723A7.735,7.735,0,0,1,230.425,245.383Z" transform="translate(0 -15.176)" fill="#a77754" fill-rule="evenodd"/>
    <path id="Контур_664" data-name="Контур 664" d="M240.695,241.313a4.564,4.564,0,1,1-4.564,4.564A4.56,4.56,0,0,1,240.695,241.313Z" transform="translate(0 -14.924)" fill="#a77754" fill-rule="evenodd"/>
    <path id="Контур_665" data-name="Контур 665" d="M241,229.947a4.564,4.564,0,1,1-4.563,4.563A4.56,4.56,0,0,1,241,229.947Z" transform="translate(0 -14.221)" fill="#b08565" fill-rule="evenodd"/>
    <path id="Контур_666" data-name="Контур 666" d="M249.6,218.721a7.679,7.679,0,1,1-7.679,7.679A7.688,7.688,0,0,1,249.6,218.721Z" transform="translate(0 -13.527)" fill="#a77754" fill-rule="evenodd"/>
    <path id="Контур_667" data-name="Контур 667" d="M253.288,202.163a7.679,7.679,0,1,1-7.724,7.679A7.688,7.688,0,0,1,253.288,202.163Z" transform="translate(0 -12.503)" fill="#a77754" fill-rule="evenodd"/>
    <path id="Контур_668" data-name="Контур 668" d="M262.066,197.766a4.564,4.564,0,1,1-4.564,4.563A4.559,4.559,0,0,1,262.066,197.766Z" transform="translate(0 -12.231)" fill="#b08565" fill-rule="evenodd"/>
    <path id="Контур_669" data-name="Контур 669" d="M260.837,184.762a4.564,4.564,0,1,1-4.564,4.564A4.561,4.561,0,0,1,260.837,184.762Z" transform="translate(0 -11.427)" fill="#a77754" fill-rule="evenodd"/>
    <path id="Контур_670" data-name="Контур 670" d="M263.558,174a4.564,4.564,0,1,1-4.564,4.564A4.56,4.56,0,0,1,263.558,174Z" transform="translate(0 -10.762)" fill="#a77754" fill-rule="evenodd"/>
    <path id="Контур_671" data-name="Контур 671" d="M262.372,161.982a4.564,4.564,0,1,1-4.563,4.564A4.56,4.56,0,0,1,262.372,161.982Z" transform="translate(0 -10.018)" fill="#b08565" fill-rule="evenodd"/>
    <path id="Контур_672" data-name="Контур 672" d="M260.661,152.581a3.511,3.511,0,1,1-3.511,3.511A3.521,3.521,0,0,1,260.661,152.581Z" transform="translate(0 -9.437)" fill="#a77754" fill-rule="evenodd"/>
    <path id="Контур_673" data-name="Контур 673" d="M258.555,146.406a2.282,2.282,0,1,1-2.282,2.282A2.266,2.266,0,0,1,258.555,146.406Z" transform="translate(0 -9.055)" fill="#a77754" fill-rule="evenodd"/>
    <path id="Контур_674" data-name="Контур 674" d="M182.9,279.014a2.282,2.282,0,1,1-2.282,2.282A2.266,2.266,0,0,1,182.9,279.014Z" transform="translate(0 -17.256)" fill="#b08565" fill-rule="evenodd"/>
    <path id="Контур_675" data-name="Контур 675" d="M177.108,279.669a2.282,2.282,0,1,1-2.282,2.282A2.266,2.266,0,0,1,177.108,279.669Z" transform="translate(0 -17.297)" fill="#a77754" fill-rule="evenodd"/>
    <path id="Контур_676" data-name="Контур 676" d="M220.64,243.418a7.7,7.7,0,1,1-7.679,7.724A7.7,7.7,0,0,1,220.64,243.418Z" transform="translate(0 -15.055)" fill="#b08565" fill-rule="evenodd"/>
    <path id="Контур_677" data-name="Контур 677" d="M258.862,168.344a2.282,2.282,0,1,1-2.282,2.282A2.266,2.266,0,0,1,258.862,168.344Z" transform="translate(0 -10.411)" fill="#a77754" fill-rule="evenodd"/>
    <path id="Контур_678" data-name="Контур 678" d="M237.051,236.449a2.282,2.282,0,1,1-2.281,2.282A2.266,2.266,0,0,1,237.051,236.449Z" transform="translate(0 -14.624)" fill="#a77754" fill-rule="evenodd"/>
    <path id="Контур_679" data-name="Контур 679" d="M186.1,272.513a2.282,2.282,0,1,1-2.282,2.282A2.266,2.266,0,0,1,186.1,272.513Z" transform="translate(0 -16.854)" fill="#b08565" fill-rule="evenodd"/>
    <path id="Контур_680" data-name="Контур 680" d="M170.044,121.429A56.169,56.169,0,1,1,113.875,177.6,56.165,56.165,0,0,1,170.044,121.429Z" transform="translate(0 -7.51)" fill="#361404" fill-rule="evenodd"/>
    <path id="Контур_681" data-name="Контур 681" d="M170,274.435a99.657,99.657,0,0,1,0-199.313V274.435Z" transform="translate(0 -4.646)" fill="#e6ece7" fill-rule="evenodd"/>
    <path id="Контур_682" data-name="Контур 682" d="M170,82.666A99.611,99.611,0,0,0,100.007,245.6,99.638,99.638,0,0,1,169.956,75.074v7.548Z" transform="translate(0 -4.643)" fill="#f3f7f6" fill-rule="evenodd"/>
    <path id="Контур_683" data-name="Контур 683" d="M170,233.814a56.17,56.17,0,0,1,0-112.339V233.814Z" transform="translate(0 -7.513)" fill="#d2dbd8" fill-rule="evenodd"/>
    <path id="Контур_684" data-name="Контур 684" d="M170,281a99.623,99.623,0,0,1-99.569-99.656H170Z" transform="translate(0 -11.216)" fill="#f6f1d4" fill-rule="evenodd"/>
    <path id="Контур_685" data-name="Контур 685" d="M77.409,181.348c-.175,2.413-.263,4.871-.263,7.328a99.22,99.22,0,0,0,22.906,63.542,99.455,99.455,0,0,1-29.62-70.87Z" transform="translate(0 -11.216)" fill="#fff" fill-rule="evenodd"/>
    <path id="Контур_686" data-name="Контур 686" d="M170,237.517a56.156,56.156,0,0,1-56.125-56.169H170Z" transform="translate(0 -11.216)" fill="#d1ccb6" fill-rule="evenodd"/>
    <path id="Контур_687" data-name="Контур 687" d="M183.471,179.8h-5.354a1.518,1.518,0,0,0,2.765.965h2.457a2.941,2.941,0,0,1-.877,1.492,3.9,3.9,0,0,1-2.809.965,4,4,0,0,1-3.335-1.36,3.631,3.631,0,0,1-.834-2.457,3.841,3.841,0,0,1,1.054-2.809,3.973,3.973,0,0,1,2.94-1.1,3.64,3.64,0,0,1,3.379,1.711,4.252,4.252,0,0,1,.57,2.238v.351Zm-2.37-1.449a1.356,1.356,0,0,0-1.448-1.228,1.421,1.421,0,0,0-1.053.395,1.358,1.358,0,0,0-.4.833Zm9.742,2.15a2.376,2.376,0,0,1-.834,1.888,3.94,3.94,0,0,1-2.633.833,5.4,5.4,0,0,1-2.9-.833l.922-1.8a3.735,3.735,0,0,0,2.018.7q.791,0,.79-.526a.484.484,0,0,0-.263-.439,7.561,7.561,0,0,0-.79-.22,2.965,2.965,0,0,1-.921-.263,1.779,1.779,0,0,1-1.054-.965,2.4,2.4,0,0,1-.131-.834,2.432,2.432,0,0,1,.658-1.668,3.326,3.326,0,0,1,2.589-.921,6.122,6.122,0,0,1,2.326.483l-.878,1.623a2.739,2.739,0,0,0-1.36-.351q-.791,0-.79.526a.406.406,0,0,0,.307.395,3.735,3.735,0,0,0,.834.22,3.142,3.142,0,0,1,1.492.659A2.016,2.016,0,0,1,190.843,180.5Zm9.742-1.185a3.689,3.689,0,0,1-1.273,2.94,3.484,3.484,0,0,1-2.325.878,2.73,2.73,0,0,1-1.448-.351,3.233,3.233,0,0,1-.79-.615v4.344H192.2V175.674h2.545v.834a2.06,2.06,0,0,1,.746-.659,2.781,2.781,0,0,1,1.492-.351,3.425,3.425,0,0,1,2.369.921,3.718,3.718,0,0,1,1.229,2.94Zm-2.677,0a1.567,1.567,0,0,0-.4-1.053,1.5,1.5,0,0,0-1.228-.57,1.778,1.778,0,0,0-1.185.482,1.623,1.623,0,0,0-.483,1.185,1.7,1.7,0,0,0,.483,1.185,1.6,1.6,0,0,0,1.141.483,1.441,1.441,0,0,0,1.228-.571,1.567,1.567,0,0,0,.4-1.053Zm9.567-1.272a2.387,2.387,0,0,0-1.1-.264,1.554,1.554,0,0,0-1.623,1.054,3.113,3.113,0,0,0-.132,1.009v3.072h-2.545v-7.241h2.545v1.185a2.553,2.553,0,0,1,.878-.921,2.7,2.7,0,0,1,1.492-.395h.483v2.5Zm8.776,1.755H210.9a1.518,1.518,0,0,0,2.765.965h2.457a2.941,2.941,0,0,1-.877,1.492,3.9,3.9,0,0,1-2.809.965,4,4,0,0,1-3.335-1.36,3.631,3.631,0,0,1-.834-2.457,3.841,3.841,0,0,1,1.054-2.809,3.973,3.973,0,0,1,2.94-1.1,3.639,3.639,0,0,1,3.379,1.711,4.252,4.252,0,0,1,.57,2.238v.351Zm-2.414-1.449a1.356,1.356,0,0,0-1.448-1.228,1.423,1.423,0,0,0-1.053.395,1.358,1.358,0,0,0-.395.833Zm9.742,2.15a2.379,2.379,0,0,1-.833,1.888,3.942,3.942,0,0,1-2.633.833,5.4,5.4,0,0,1-2.9-.833l.922-1.8a3.735,3.735,0,0,0,2.019.7q.789,0,.789-.526a.482.482,0,0,0-.263-.439,7.563,7.563,0,0,0-.79-.22,2.975,2.975,0,0,1-.921-.263,1.774,1.774,0,0,1-1.053-.965,2.373,2.373,0,0,1-.132-.834,2.432,2.432,0,0,1,.658-1.668,3.328,3.328,0,0,1,2.589-.921,6.122,6.122,0,0,1,2.326.483l-.878,1.623a2.736,2.736,0,0,0-1.36-.351q-.79,0-.79.526a.406.406,0,0,0,.307.395,3.735,3.735,0,0,0,.834.22,3.142,3.142,0,0,1,1.492.659A2.016,2.016,0,0,1,223.579,180.5Zm7.2,0a2.377,2.377,0,0,1-.834,1.888,3.94,3.94,0,0,1-2.633.833,5.4,5.4,0,0,1-2.9-.833l.922-1.8a3.735,3.735,0,0,0,2.018.7q.791,0,.79-.526a.484.484,0,0,0-.263-.439,7.562,7.562,0,0,0-.79-.22,2.984,2.984,0,0,1-.922-.263,1.78,1.78,0,0,1-1.053-.965,2.373,2.373,0,0,1-.131-.834,2.432,2.432,0,0,1,.658-1.668,3.326,3.326,0,0,1,2.589-.921,6.122,6.122,0,0,1,2.326.483l-.878,1.623a2.741,2.741,0,0,0-1.36-.351q-.79,0-.79.526a.406.406,0,0,0,.307.395,3.735,3.735,0,0,0,.834.22,3.142,3.142,0,0,1,1.492.659A2.016,2.016,0,0,1,230.776,180.5Zm9.7-1.185a3.764,3.764,0,0,1-1.009,2.589,4.3,4.3,0,0,1-3.335,1.316,4.459,4.459,0,0,1-3.379-1.316,3.766,3.766,0,0,1,0-5.134,4.369,4.369,0,0,1,3.423-1.316,4.17,4.17,0,0,1,3.247,1.316,3.66,3.66,0,0,1,1.009,2.545Zm-2.677,0a1.646,1.646,0,0,0-1.667-1.667,1.524,1.524,0,0,0-1.273.57,1.721,1.721,0,0,0,0,2.194,1.581,1.581,0,0,0,1.273.57,1.648,1.648,0,0,0,1.667-1.668Z" transform="translate(0 -10.851)" fill="#fff"/>
    <path id="Контур_688" data-name="Контур 688" d="M143.978,171.782h-2.72v-3.774a3.181,3.181,0,0,0-.22-1.36,1.03,1.03,0,0,0-.921-.526,1.189,1.189,0,0,0-1.053.57,2.458,2.458,0,0,0-.264,1.316v3.774h-2.72v-3.774a2.632,2.632,0,0,0-.176-1.272,1.114,1.114,0,0,0-1.009-.615,1.176,1.176,0,0,0-1.01.526,1.251,1.251,0,0,0-.175.482c0,.22-.044.483-.044.878v3.774h-2.721V164.1h2.721v.965a3.519,3.519,0,0,1,.878-.659,3.3,3.3,0,0,1,1.623-.395,2.929,2.929,0,0,1,1.887.571,4.682,4.682,0,0,1,.746.833,2.519,2.519,0,0,1,.7-.79,2.877,2.877,0,0,1,1.887-.614,2.97,2.97,0,0,1,1.536.395,1.987,1.987,0,0,1,.922,1.229,4.456,4.456,0,0,1,.131,1.185v4.959Zm4.7-10.62a1.5,1.5,0,1,1-.439-1.1A1.455,1.455,0,0,1,148.674,161.162Zm-.132,10.62h-2.721V164.1h2.721Zm4.608,0h-2.721V159.363h2.721Zm11.365,0H160.7l-2.983-3.116v3.116h-2.721V159.363h2.721v7.5l2.852-2.765h3.73l-3.862,3.555Z" transform="translate(0 -9.856)" fill="#361404" fill-rule="evenodd"/>
    <path id="Контур_689" data-name="Контур 689" d="M98.34,200.592H95.619v-3.774a3.192,3.192,0,0,0-.219-1.36,1.032,1.032,0,0,0-.922-.526,1.19,1.19,0,0,0-1.053.57,2.468,2.468,0,0,0-.263,1.316v3.774H90.441v-3.774a2.64,2.64,0,0,0-.176-1.272,1.115,1.115,0,0,0-1.009-.615,1.174,1.174,0,0,0-1.009.526.8.8,0,0,0-.176.483c0,.22-.044.482-.044.877v3.774H85.307v-7.68h2.721v.965a3.5,3.5,0,0,1,.878-.658,3.291,3.291,0,0,1,1.624-.395,2.93,2.93,0,0,1,1.887.57,4.729,4.729,0,0,1,.746.834,3.35,3.35,0,0,1,.7-.834,3.2,3.2,0,0,1,3.423-.22,2.226,2.226,0,0,1,.965,1.229,4.411,4.411,0,0,1,.132,1.185v5Zm4.7-10.663a1.5,1.5,0,1,1-.439-1.1A1.456,1.456,0,0,1,103.035,189.929Zm-.132,10.663h-2.72v-7.68h2.72Zm4.608,0H104.79V188.13h2.721Zm11.366,0h-3.818l-2.984-3.116v3.116h-2.721V188.13h2.721v7.5l2.852-2.764h3.73l-3.861,3.554,4.081,4.125Zm10.487-5.441h-1.886v5.441h-2.721v-5.441h-.966v-2.238h.966V191.9a3.738,3.738,0,0,1,.877-2.633,3.439,3.439,0,0,1,2.546-1.141,2.877,2.877,0,0,1,1.184.264v2.369a1.893,1.893,0,0,0-.965-.307.8.8,0,0,0-.79.439,3.268,3.268,0,0,0-.131,1.185v.833h1.886Zm9.962,1.58a4.033,4.033,0,0,1-1.053,2.765,4.562,4.562,0,0,1-3.555,1.4,4.723,4.723,0,0,1-3.6-1.4,3.989,3.989,0,0,1-1.053-2.809,3.9,3.9,0,0,1,1.053-2.677,4.691,4.691,0,0,1,3.642-1.4,4.493,4.493,0,0,1,3.467,1.4,3.848,3.848,0,0,1,1.053,2.721Zm-2.853,0a1.8,1.8,0,0,0-1.8-1.8,1.733,1.733,0,0,0-1.36.615,1.953,1.953,0,0,0-.439,1.141,1.81,1.81,0,0,0,.439,1.185,1.606,1.606,0,0,0,1.36.614,1.8,1.8,0,0,0,1.8-1.8Zm13.033,3.861h-2.72v-.834a2.862,2.862,0,0,1-.79.7,3.253,3.253,0,0,1-1.58.395,3.7,3.7,0,0,1-2.545-.965,4.346,4.346,0,0,1,.044-6.275,3.673,3.673,0,0,1,2.5-.922,3.74,3.74,0,0,1,1.536.352,2.751,2.751,0,0,1,.834.658v-.746h2.72v7.636Zm-2.633-3.861a1.8,1.8,0,0,0-1.755-1.755,1.709,1.709,0,0,0-1.316.615,1.749,1.749,0,0,0-.439,1.141,1.624,1.624,0,0,0,.439,1.141,1.709,1.709,0,0,0,1.316.614,1.594,1.594,0,0,0,1.229-.526,1.623,1.623,0,0,0,.483-1.229Zm17.553,3.861h-2.72v-3.774a3.184,3.184,0,0,0-.22-1.36,1.03,1.03,0,0,0-.921-.526,1.189,1.189,0,0,0-1.053.57,2.463,2.463,0,0,0-.264,1.316v3.774h-2.72v-3.774a2.635,2.635,0,0,0-.176-1.272,1.114,1.114,0,0,0-1.009-.615,1.177,1.177,0,0,0-1.01.526.806.806,0,0,0-.175.483c0,.22-.044.482-.044.877v3.774h-2.721v-7.68h2.721v.965a3.489,3.489,0,0,1,.878-.658,3.288,3.288,0,0,1,1.623-.395,2.928,2.928,0,0,1,1.887.57,4.691,4.691,0,0,1,.746.834,3.369,3.369,0,0,1,.7-.834,2.872,2.872,0,0,1,1.887-.614,2.961,2.961,0,0,1,1.536.395,2.228,2.228,0,0,1,.966,1.229,4.447,4.447,0,0,1,.131,1.185v5Z" transform="translate(0 -11.635)" fill="#361404" fill-rule="evenodd"/>
  </g>
</svg>
