<svg width="361" height="452" viewBox="0 0 361 452" fill="none" xmlns="http://www.w3.org/2000/svg">
<g clip-path="url(#clip0_922_402)">
<path d="M305.265 424.683C316.471 416.355 301.869 388.929 311.637 318.82C316.833 281.511 332.11 253.47 347.289 220.482C362.938 186.471 380.946 70.6206 303.484 28.8662C228.313 -11.6568 153.514 -3.98632 113.839 18.1693C57.3893 49.6964 40.5367 108.639 36.3773 147.085C34.469 164.732 45.1658 177.12 44.0207 187.316C41.7894 207.082 1.0182 238.087 0.0101764 259.888C-0.665102 274.477 27.0605 280.478 31.9146 290.361C34.0383 294.681 27.9315 304.481 28.5676 310.471C29.1157 315.626 42.7289 321.408 42.7289 321.408C42.7289 321.408 32.9422 331.03 32.541 335.528C32.0712 340.871 41.2902 349.22 41.4566 354.584C41.6132 359.875 33.3924 373.504 37.3658 387.979C43.825 411.46 117.499 386.226 123.107 391.82C132.277 400.972 121.834 426.926 126.767 435.755C134.185 449.009 248.581 466.813 305.246 424.693L305.265 424.683Z" fill="#EAEAEA"/>
<path d="M190.713 369.34C153.651 322.931 86.603 329.537 35.918 343.751C38.4038 347.602 41.3789 351.568 41.467 354.584C41.6236 359.875 33.4028 373.504 37.3762 387.979C43.8354 411.46 117.509 386.226 123.117 391.819C132.287 400.972 121.845 426.926 126.777 435.755C134.195 449.009 248.592 466.812 305.256 424.693C309.396 421.614 310.013 415.927 309.641 406.451C264.906 411.084 218.84 404.551 190.713 369.34Z" fill="#C4C4C4"/>
<path d="M244.734 345.035C219.768 345.035 200.89 356.087 188.52 366.69C189.263 367.556 189.997 368.433 190.722 369.341C218.839 404.552 264.914 411.085 309.649 406.451C309.326 398.196 308.24 387.061 308.083 372.263C299.167 360.387 280.7 345.046 244.744 345.046L244.734 345.035Z" fill="#999999"/>
<path d="M235.388 272.004C245.488 289.014 261.567 304.908 265.815 308.968C266.49 309.615 267.351 309.97 268.261 309.97H282.902C285.339 309.97 287.101 307.465 286.416 304.971C283.607 294.785 278.146 270.741 282.031 248.742C282.902 243.795 284.36 238.88 286.142 234.152C287.345 230.969 284.36 227.828 281.375 229.101C265.472 235.864 246.936 240.289 226.022 242C223.468 242.209 221.892 245.079 222.988 247.552C226.443 255.379 230.661 264.041 235.398 272.014L235.388 272.004Z" fill="#482D20"/>
<path d="M265.266 119.816C243.696 120.139 223.438 123.865 205.068 130.888C185.73 138.288 164.346 142.191 141.514 142.483C123.35 142.723 104.237 140.688 84.6927 136.44C79.6232 135.334 74.7984 134.144 70.2574 132.923C66.098 131.796 62.1834 135.501 62.7216 140.03C70.365 204.66 130.328 235.687 203.18 235.687C286.298 235.687 337.795 196.479 343.853 137.641C344.176 134.489 342.307 131.556 339.439 130.701C333.391 128.895 326.707 127.131 319.533 125.556C300.899 121.486 282.637 119.545 265.266 119.805V119.816Z" fill="#6E4735"/>
<path d="M141.936 134.77C163.457 134.468 183.549 130.805 201.674 123.875C221.267 116.382 242.807 112.416 265.688 112.103C283.901 111.853 303.005 113.888 322.48 118.167C327.354 119.242 331.993 120.389 336.377 121.579C340.546 122.717 344.481 118.991 343.923 114.441C335.927 49.4352 277.07 19.0664 203.572 19.0664C117.597 19.0664 68.9082 56.1872 62.9188 116.935C62.6056 120.087 64.4846 123.019 67.3521 123.865C73.5079 125.681 80.3096 127.455 87.6105 129.041C106.332 133.09 124.624 135.01 141.946 134.781L141.936 134.77Z" fill="#6E4735"/>
<path d="M155.295 420.145C155.295 419.205 155.365 418.365 155.505 417.625C155.645 416.885 155.885 416.215 156.225 415.615C156.565 414.995 157.025 414.425 157.605 413.905C158.185 413.385 158.915 412.875 159.795 412.375C160.735 411.855 161.515 411.425 162.135 411.085C162.775 410.745 163.275 410.445 163.635 410.185C164.015 409.925 164.285 409.695 164.445 409.495C164.605 409.275 164.685 409.025 164.685 408.745C164.685 408.185 164.485 407.735 164.085 407.395C163.685 407.055 163.115 406.885 162.375 406.885C161.535 406.885 160.805 407.095 160.185 407.515C159.565 407.915 158.965 408.445 158.385 409.105L155.325 405.565C155.645 405.205 156.075 404.855 156.615 404.515C157.155 404.175 157.765 403.875 158.445 403.615C159.125 403.335 159.865 403.115 160.665 402.955C161.485 402.795 162.335 402.715 163.215 402.715C165.375 402.715 167.025 403.185 168.165 404.125C169.325 405.065 169.905 406.335 169.905 407.935C169.905 408.595 169.795 409.185 169.575 409.705C169.375 410.225 169.105 410.695 168.765 411.115C168.425 411.515 168.045 411.875 167.625 412.195C167.205 412.495 166.775 412.775 166.335 413.035C166.035 413.215 165.675 413.425 165.255 413.665C164.835 413.905 164.415 414.155 163.995 414.415C163.595 414.655 163.215 414.905 162.855 415.165C162.515 415.405 162.255 415.625 162.075 415.825H170.235V420.145H155.295ZM188.567 411.355C188.567 412.675 188.367 413.895 187.967 415.015C187.567 416.115 187.017 417.075 186.317 417.895C185.617 418.695 184.787 419.325 183.827 419.785C182.887 420.225 181.857 420.445 180.737 420.445C179.617 420.445 178.577 420.225 177.617 419.785C176.657 419.325 175.827 418.695 175.127 417.895C174.427 417.075 173.877 416.115 173.477 415.015C173.097 413.895 172.907 412.675 172.907 411.355C172.907 410.035 173.097 408.825 173.477 407.725C173.877 406.605 174.427 405.645 175.127 404.845C175.827 404.025 176.657 403.385 177.617 402.925C178.577 402.465 179.617 402.235 180.737 402.235C181.857 402.235 182.887 402.465 183.827 402.925C184.787 403.385 185.617 404.025 186.317 404.845C187.017 405.645 187.567 406.605 187.967 407.725C188.367 408.825 188.567 410.035 188.567 411.355ZM183.737 411.355C183.737 409.955 183.457 408.825 182.897 407.965C182.337 407.085 181.617 406.645 180.737 406.645C179.817 406.645 179.077 407.085 178.517 407.965C177.977 408.825 177.707 409.955 177.707 411.355C177.707 412.755 177.977 413.885 178.517 414.745C179.077 415.605 179.817 416.035 180.737 416.035C181.617 416.035 182.337 415.605 182.897 414.745C183.457 413.885 183.737 412.755 183.737 411.355ZM196.105 407.815C195.385 407.815 194.715 407.695 194.095 407.455C193.475 407.215 192.935 406.885 192.475 406.465C192.015 406.045 191.645 405.555 191.365 404.995C191.105 404.415 190.975 403.805 190.975 403.165C190.975 402.525 191.105 401.925 191.365 401.365C191.645 400.805 192.015 400.315 192.475 399.895C192.935 399.475 193.475 399.145 194.095 398.905C194.715 398.665 195.385 398.545 196.105 398.545C196.825 398.545 197.495 398.665 198.115 398.905C198.735 399.145 199.275 399.475 199.735 399.895C200.215 400.315 200.585 400.805 200.845 401.365C201.105 401.925 201.235 402.525 201.235 403.165C201.235 403.805 201.105 404.415 200.845 404.995C200.585 405.555 200.215 406.045 199.735 406.465C199.275 406.885 198.735 407.215 198.115 407.455C197.495 407.695 196.825 407.815 196.105 407.815ZM196.105 405.475C196.605 405.475 197.025 405.255 197.365 404.815C197.725 404.355 197.905 403.805 197.905 403.165C197.905 402.525 197.725 401.985 197.365 401.545C197.025 401.105 196.605 400.885 196.105 400.885C195.605 400.885 195.175 401.115 194.815 401.575C194.475 402.015 194.305 402.545 194.305 403.165C194.305 403.805 194.475 404.355 194.815 404.815C195.175 405.255 195.605 405.475 196.105 405.475ZM208.285 420.445C207.565 420.445 206.895 420.325 206.275 420.085C205.655 419.845 205.115 419.515 204.655 419.095C204.195 418.675 203.825 418.185 203.545 417.625C203.285 417.065 203.155 416.465 203.155 415.825C203.155 415.185 203.285 414.585 203.545 414.025C203.825 413.445 204.195 412.945 204.655 412.525C205.115 412.105 205.655 411.775 206.275 411.535C206.895 411.295 207.565 411.175 208.285 411.175C209.005 411.175 209.675 411.295 210.295 411.535C210.915 411.775 211.455 412.105 211.915 412.525C212.395 412.945 212.765 413.445 213.025 414.025C213.285 414.585 213.415 415.185 213.415 415.825C213.415 416.465 213.285 417.065 213.025 417.625C212.765 418.185 212.395 418.675 211.915 419.095C211.455 419.515 210.915 419.845 210.295 420.085C209.675 420.325 209.005 420.445 208.285 420.445ZM208.285 418.105C208.785 418.105 209.215 417.885 209.575 417.445C209.935 416.985 210.115 416.445 210.115 415.825C210.115 415.185 209.935 414.645 209.575 414.205C209.215 413.745 208.785 413.515 208.285 413.515C207.785 413.515 207.355 413.745 206.995 414.205C206.655 414.645 206.485 415.185 206.485 415.825C206.485 416.465 206.655 417.005 206.995 417.445C207.355 417.885 207.785 418.105 208.285 418.105ZM193.045 418.465L201.505 408.745L209.185 398.575L211.345 400.495L203.155 409.975L195.175 420.415L193.045 418.465Z" fill="white"/>
<path d="M190.062 81.3391C190.062 82.3591 189.852 83.2791 189.432 84.0991C189.012 84.9191 188.442 85.6291 187.722 86.2291C187.022 86.8091 186.192 87.2591 185.232 87.5791C184.272 87.8991 183.252 88.0591 182.172 88.0591C181.112 88.0591 180.102 87.8991 179.142 87.5791C178.202 87.2391 177.372 86.7691 176.652 86.1691C175.932 85.5691 175.362 84.8491 174.942 84.0091C174.522 83.1491 174.312 82.1991 174.312 81.1591C174.312 80.5991 174.402 80.0791 174.582 79.5991C174.762 79.0991 174.992 78.6491 175.272 78.2491C175.552 77.8491 175.872 77.4991 176.232 77.1991C176.592 76.8991 176.942 76.6391 177.282 76.4191C176.622 76.0591 176.062 75.5291 175.602 74.8291C175.162 74.1291 174.942 73.3891 174.942 72.6091C174.942 71.6291 175.162 70.7591 175.602 69.9991C176.062 69.2191 176.642 68.5791 177.342 68.0791C178.042 67.5591 178.812 67.1691 179.652 66.9091C180.512 66.6291 181.352 66.4891 182.172 66.4891C182.992 66.4891 183.832 66.6191 184.692 66.8791C185.552 67.1391 186.332 67.5291 187.032 68.0491C187.752 68.5491 188.332 69.1791 188.772 69.9391C189.232 70.6991 189.462 71.5691 189.462 72.5491C189.462 72.9491 189.392 73.3391 189.252 73.7191C189.132 74.0991 188.962 74.4691 188.742 74.8291C188.542 75.1691 188.292 75.4791 187.992 75.7591C187.692 76.0191 187.382 76.2391 187.062 76.4191C187.422 76.6391 187.782 76.9091 188.142 77.2291C188.502 77.5491 188.822 77.9191 189.102 78.3391C189.402 78.7391 189.632 79.1891 189.792 79.6891C189.972 80.1891 190.062 80.7391 190.062 81.3391ZM185.202 81.0391C185.202 80.6191 185.112 80.2491 184.932 79.9291C184.772 79.5891 184.552 79.3091 184.272 79.0891C183.992 78.8691 183.672 78.6991 183.312 78.5791C182.952 78.4591 182.572 78.3991 182.172 78.3991C181.332 78.3991 180.622 78.6391 180.042 79.1191C179.462 79.5991 179.172 80.2491 179.172 81.0691C179.172 81.4691 179.252 81.8291 179.412 82.1491C179.592 82.4691 179.822 82.7491 180.102 82.9891C180.382 83.2091 180.702 83.3891 181.062 83.5291C181.422 83.6491 181.802 83.7091 182.202 83.7091C182.602 83.7091 182.982 83.6491 183.342 83.5291C183.722 83.3891 184.042 83.1991 184.302 82.9591C184.582 82.7191 184.802 82.4391 184.962 82.1191C185.122 81.7791 185.202 81.4191 185.202 81.0391ZM179.802 72.6991C179.802 73.0591 179.872 73.3691 180.012 73.6291C180.152 73.8891 180.332 74.1091 180.552 74.2891C180.792 74.4491 181.052 74.5791 181.332 74.6791C181.612 74.7591 181.892 74.7991 182.172 74.7991C182.452 74.7991 182.732 74.7591 183.012 74.6791C183.312 74.5791 183.572 74.4391 183.792 74.2591C184.032 74.0791 184.222 73.8591 184.362 73.5991C184.502 73.3391 184.572 73.0391 184.572 72.6991C184.572 72.1191 184.332 71.6491 183.852 71.2891C183.392 70.9091 182.832 70.7191 182.172 70.7191C181.512 70.7191 180.952 70.9091 180.492 71.2891C180.032 71.6491 179.802 72.1191 179.802 72.6991ZM208.345 78.9991C208.345 80.3191 208.145 81.5391 207.745 82.6591C207.345 83.7591 206.795 84.7191 206.095 85.5391C205.395 86.3391 204.565 86.9691 203.605 87.4291C202.665 87.8691 201.635 88.0891 200.515 88.0891C199.395 88.0891 198.355 87.8691 197.395 87.4291C196.435 86.9691 195.605 86.3391 194.905 85.5391C194.205 84.7191 193.655 83.7591 193.255 82.6591C192.875 81.5391 192.685 80.3191 192.685 78.9991C192.685 77.6791 192.875 76.4691 193.255 75.3691C193.655 74.2491 194.205 73.2891 194.905 72.4891C195.605 71.6691 196.435 71.0291 197.395 70.5691C198.355 70.1091 199.395 69.8791 200.515 69.8791C201.635 69.8791 202.665 70.1091 203.605 70.5691C204.565 71.0291 205.395 71.6691 206.095 72.4891C206.795 73.2891 207.345 74.2491 207.745 75.3691C208.145 76.4691 208.345 77.6791 208.345 78.9991ZM203.515 78.9991C203.515 77.5991 203.235 76.4691 202.675 75.6091C202.115 74.7291 201.395 74.2891 200.515 74.2891C199.595 74.2891 198.855 74.7291 198.295 75.6091C197.755 76.4691 197.485 77.5991 197.485 78.9991C197.485 80.3991 197.755 81.5291 198.295 82.3891C198.855 83.2491 199.595 83.6791 200.515 83.6791C201.395 83.6791 202.115 83.2491 202.675 82.3891C203.235 81.5291 203.515 80.3991 203.515 78.9991ZM215.882 75.4591C215.162 75.4591 214.492 75.3391 213.872 75.0991C213.252 74.8591 212.712 74.5291 212.252 74.1091C211.792 73.6891 211.422 73.1991 211.142 72.6391C210.882 72.0591 210.752 71.4491 210.752 70.8091C210.752 70.1691 210.882 69.5691 211.142 69.0091C211.422 68.4491 211.792 67.9591 212.252 67.5391C212.712 67.1191 213.252 66.7891 213.872 66.5491C214.492 66.3091 215.162 66.1891 215.882 66.1891C216.602 66.1891 217.272 66.3091 217.892 66.5491C218.512 66.7891 219.052 67.1191 219.512 67.5391C219.992 67.9591 220.362 68.4491 220.622 69.0091C220.882 69.5691 221.012 70.1691 221.012 70.8091C221.012 71.4491 220.882 72.0591 220.622 72.6391C220.362 73.1991 219.992 73.6891 219.512 74.1091C219.052 74.5291 218.512 74.8591 217.892 75.0991C217.272 75.3391 216.602 75.4591 215.882 75.4591ZM215.882 73.1191C216.382 73.1191 216.802 72.8991 217.142 72.4591C217.502 71.9991 217.682 71.4491 217.682 70.8091C217.682 70.1691 217.502 69.6291 217.142 69.1891C216.802 68.7491 216.382 68.5291 215.882 68.5291C215.382 68.5291 214.952 68.7591 214.592 69.2191C214.252 69.6591 214.082 70.1891 214.082 70.8091C214.082 71.4491 214.252 71.9991 214.592 72.4591C214.952 72.8991 215.382 73.1191 215.882 73.1191ZM228.062 88.0891C227.342 88.0891 226.672 87.9691 226.052 87.7291C225.432 87.4891 224.892 87.1591 224.432 86.7391C223.972 86.3191 223.602 85.8291 223.322 85.2691C223.062 84.7091 222.932 84.1091 222.932 83.4691C222.932 82.8291 223.062 82.2291 223.322 81.6691C223.602 81.0891 223.972 80.5891 224.432 80.1691C224.892 79.7491 225.432 79.4191 226.052 79.1791C226.672 78.9391 227.342 78.8191 228.062 78.8191C228.782 78.8191 229.452 78.9391 230.072 79.1791C230.692 79.4191 231.232 79.7491 231.692 80.1691C232.172 80.5891 232.542 81.0891 232.802 81.6691C233.062 82.2291 233.192 82.8291 233.192 83.4691C233.192 84.1091 233.062 84.7091 232.802 85.2691C232.542 85.8291 232.172 86.3191 231.692 86.7391C231.232 87.1591 230.692 87.4891 230.072 87.7291C229.452 87.9691 228.782 88.0891 228.062 88.0891ZM228.062 85.7491C228.562 85.7491 228.992 85.5291 229.352 85.0891C229.712 84.6291 229.892 84.0891 229.892 83.4691C229.892 82.8291 229.712 82.2891 229.352 81.8491C228.992 81.3891 228.562 81.1591 228.062 81.1591C227.562 81.1591 227.132 81.3891 226.772 81.8491C226.432 82.2891 226.262 82.8291 226.262 83.4691C226.262 84.1091 226.432 84.6491 226.772 85.0891C227.132 85.5291 227.562 85.7491 228.062 85.7491ZM212.822 86.1091L221.282 76.3891L228.962 66.2191L231.122 68.1391L222.932 77.6191L214.952 88.0591L212.822 86.1091Z" fill="white"/>
</g>
<defs>
<clipPath id="clip0_922_402">
<rect width="361" height="451.054" fill="white"/>
</clipPath>
</defs>
</svg>
