<svg width="423" height="439" viewBox="0 0 423 439" fill="none" xmlns="http://www.w3.org/2000/svg">
<g clip-path="url(#clip0_922_1230)">
<path d="M329.391 110.92C330.07 111.61 331.171 111.621 331.85 110.93L369.207 73.5136C369.691 73.0291 369.691 72.2458 369.207 71.7613L367.242 69.7925C366.758 69.3081 365.976 69.3081 365.492 69.7925L328.135 107.209C327.456 107.889 327.466 108.992 328.145 109.673C328.557 110.085 328.969 110.497 329.38 110.909L329.391 110.92Z" fill="white"/>
<path d="M317.453 337.109C316.763 337.79 316.763 338.913 317.453 339.604L354.789 377C355.273 377.484 356.055 377.484 356.539 377L358.504 375.031C358.988 374.546 358.988 373.763 358.504 373.279L321.168 335.883C320.478 335.192 319.367 335.192 318.677 335.883C318.276 336.295 317.864 336.707 317.453 337.109Z" fill="white"/>
<path d="M101.296 336.192C100.813 335.697 100.01 335.687 99.5263 336.182L61.8296 373.939C61.3459 374.423 61.3459 375.206 61.8296 375.691L63.7952 377.66C64.2789 378.144 65.061 378.144 65.5447 377.66L103.241 339.903C103.735 339.408 103.725 338.614 103.231 338.13C102.583 337.491 101.934 336.842 101.296 336.192Z" fill="white"/>
<path d="M421.765 225.118H368.94C367.983 225.118 367.201 225.901 367.201 226.87C367.201 227.169 367.201 227.458 367.201 227.756C367.201 228.055 367.201 228.344 367.201 228.643C367.201 229.612 367.973 230.395 368.94 230.395H421.765C422.444 230.395 423 229.839 423 229.158V226.375C423 225.695 422.444 225.138 421.765 225.138V225.118Z" fill="white"/>
<path d="M54.0598 225.118H1.23495C0.555726 225.118 0 225.674 0 226.355V229.138C0 229.818 0.555726 230.375 1.23495 230.375H54.0598C55.0271 230.375 55.799 229.591 55.799 228.622C55.799 228.323 55.799 228.035 55.799 227.736C55.799 227.437 55.799 227.148 55.799 226.849C55.799 225.881 55.0271 225.097 54.0598 225.097V225.118Z" fill="white"/>
<path d="M94.8647 107.209L57.5076 69.7925C57.0239 69.3081 56.2418 69.3081 55.7581 69.7925L53.7925 71.7613C53.3088 72.2458 53.3088 73.0291 53.7925 73.5136L91.1496 110.93C91.8288 111.61 92.93 111.6 93.6092 110.92C94.0208 110.507 94.4325 110.095 94.8441 109.683C95.5336 109.003 95.5439 107.9 94.8544 107.219L94.8647 107.209Z" fill="white"/>
<path d="M214.129 54.1457V1.23691C214.129 0.55661 213.574 0 212.894 0H210.116C209.437 0 208.881 0.55661 208.881 1.23691V54.1457C208.881 55.1147 209.663 55.8877 210.63 55.8877C210.929 55.8877 211.217 55.8877 211.515 55.8877C211.814 55.8877 212.102 55.8877 212.4 55.8877C213.368 55.8877 214.15 55.1147 214.15 54.1457H214.129Z" fill="white"/>
<path d="M262.221 365.95C246.156 371.867 229.094 374.876 211.506 374.876C193.918 374.876 176.855 371.877 160.791 365.95C158.609 365.146 156.458 364.29 154.338 363.394C152.414 362.579 150.561 364.734 151.673 366.507C155.378 372.413 157.601 379.041 158.105 385.916L158.259 388.008C159.731 408.17 175.785 424.652 197.129 429.847C199.074 435.155 204.775 439.01 211.516 439.01C218.257 439.01 223.958 435.165 225.903 429.847C247.247 424.652 263.302 408.16 264.773 388.008L264.928 385.916C265.432 379.041 267.655 372.423 271.36 366.507C272.471 364.734 270.619 362.579 268.694 363.394C266.574 364.29 264.423 365.146 262.242 365.95H262.221Z" fill="#353535"/>
<path d="M211.506 422.673C201.287 422.673 191.212 420.931 182.361 417.632C181.342 417.251 180.818 416.117 181.198 415.097C181.579 414.076 182.711 413.55 183.73 413.932C192.148 417.065 201.75 418.725 211.506 418.725C221.262 418.725 230.864 417.065 239.282 413.932C240.301 413.55 241.433 414.066 241.814 415.097C242.194 416.117 241.67 417.251 240.651 417.632C231.8 420.931 221.725 422.673 211.506 422.673Z" fill="#939598"/>
<path d="M211.506 411.138C198.58 411.138 186.046 408.902 175.24 404.655C174.231 404.253 173.727 403.109 174.128 402.099C174.519 401.089 175.662 400.584 176.681 400.986C187.023 405.047 199.074 407.191 211.506 407.191C223.938 407.191 235.989 405.047 246.332 400.986C247.34 400.594 248.482 401.089 248.884 402.099C249.285 403.109 248.781 404.253 247.772 404.655C236.967 408.891 224.432 411.138 211.506 411.138Z" fill="#939598"/>
<path d="M211.506 399.171C196.985 399.171 182.907 396.46 170.794 391.348C169.796 390.925 169.322 389.771 169.744 388.761C170.166 387.761 171.319 387.287 172.327 387.709C183.956 392.626 197.51 395.224 211.506 395.224C225.502 395.224 239.076 392.616 250.716 387.699C251.714 387.276 252.877 387.74 253.299 388.75C253.721 389.75 253.257 390.915 252.249 391.338C240.136 396.471 226.047 399.182 211.506 399.182V399.171Z" fill="#939598"/>
<path d="M211.506 387.246C196.748 387.246 182.32 384.71 169.775 379.917C168.756 379.525 168.252 378.392 168.633 377.371C169.024 376.351 170.156 375.846 171.175 376.227C183.277 380.855 197.211 383.298 211.496 383.298C225.78 383.298 239.724 380.855 251.817 376.227C252.835 375.835 253.967 376.351 254.359 377.371C254.75 378.392 254.235 379.525 253.216 379.917C240.671 384.71 226.243 387.246 211.485 387.246H211.506Z" fill="#939598"/>
<path d="M219.903 281.077C219.553 259.112 215.436 238.486 207.667 219.788C199.485 200.091 195.173 178.321 194.844 155.077C194.586 136.586 196.83 117.125 201.523 97.221C202.737 92.0569 204.054 87.1402 205.413 82.5224C206.658 78.2963 202.572 74.3073 197.55 74.8536C126.109 82.6358 91.8184 143.688 91.8184 217.861C91.8184 302.486 135.155 354.921 200.195 361.085C203.674 361.415 206.926 359.508 207.862 356.591C209.859 350.427 211.814 343.624 213.543 336.326C218.05 317.35 220.181 298.755 219.903 281.077Z" fill="#EAEAEA"/>
<path d="M91.9219 224.654C94.1962 305.28 136.925 355.076 200.196 361.075C203.674 361.405 206.926 359.498 207.863 356.581C209.859 350.417 211.815 343.614 213.544 336.316C218.051 317.34 220.181 298.745 219.903 281.067C219.605 262.421 216.579 244.754 210.93 228.395C209.273 229.684 207.605 231.034 205.928 232.457C158.352 272.594 119.718 255.082 91.9219 224.654Z" fill="#6E4735"/>
<path d="M218.071 223.159C224.637 241.249 228.125 260.834 228.444 281.511C228.722 300.054 226.469 319.504 221.745 339.326C220.561 344.284 219.285 349.015 217.968 353.468C216.712 357.715 220.829 361.714 225.861 361.147C291.272 353.736 324.945 303.404 330.461 237.992C304.61 209.687 266.635 189.763 218.081 223.149L218.071 223.159Z" fill="#6E4735"/>
<path d="M330.45 238.002C330.996 231.56 331.263 224.973 331.263 218.263C331.263 130.731 290.232 81.1514 223.092 75.0596C219.614 74.7401 216.372 76.6573 215.436 79.5743C213.429 85.8413 211.463 92.768 209.714 100.2C205.237 119.269 203.117 137.884 203.374 155.521C203.704 177.424 207.758 197.895 215.415 216.335C216.352 218.582 217.226 220.86 218.06 223.159C266.614 189.773 304.589 209.687 330.44 238.002H330.45Z" fill="#EAEAEA"/>
<path d="M92.25 225.004C120.026 255.216 158.546 272.44 205.927 232.457C207.604 231.044 209.271 229.684 210.928 228.395C210.774 227.962 210.62 227.54 210.465 227.107C186.837 202.75 147.689 183.887 92.25 225.004Z" fill="#482D20"/>
</g>
<defs>
<clipPath id="clip0_922_1230">
<rect width="423" height="439" fill="white"/>
</clipPath>
</defs>
</svg>
