<svg width="47" height="47" viewBox="0 0 47 47" fill="none" xmlns="http://www.w3.org/2000/svg">
<path d="M23.2981 0C10.4842 0 0 10.4842 0 23.2981C0 36.1121 10.4842 46.5963 23.2981 46.5963C36.1121 46.5963 46.5963 36.1121 46.5963 23.2981C46.5963 10.4842 36.1121 0 23.2981 0ZM42.5191 22.1332C37.4712 21.3566 33.0057 21.3566 28.7344 21.9391C28.3461 20.7742 27.7636 19.8034 27.1812 18.6385C31.6466 16.697 35.3355 13.9789 37.8595 10.6783C40.5776 13.9789 42.3249 17.8619 42.5191 22.1332ZM34.9472 8.15435C32.6174 11.2608 29.3168 13.5906 25.2396 15.3379C23.2981 11.6491 21.1625 8.15435 18.6385 4.65963C20.1917 4.27133 21.7449 4.07717 23.2981 4.07717C27.7636 4.07717 31.8408 5.63038 34.9472 8.15435ZM14.5613 6.21284C17.0853 9.51341 19.4151 13.0081 21.3566 16.697C16.697 18.0561 11.0666 18.6385 4.65963 18.8327C6.01869 13.2023 9.70756 8.7368 14.5613 6.21284ZM4.07717 23.2981V22.7157C11.4549 22.7157 18.0561 21.9391 23.2981 20.1917C23.6864 21.1625 24.2689 22.1332 24.6572 22.9098C18.0561 25.0455 12.6198 29.1227 8.54265 35.5297C5.82453 32.2291 4.07717 27.9578 4.07717 23.2981ZM11.4549 38.4419C15.3379 32.4232 20.1917 28.5402 26.2104 26.7929C27.9578 31.4525 29.3168 36.3063 30.0934 41.3542C23.6864 43.684 16.697 42.5191 11.4549 38.4419ZM33.9764 39.2185C33.1998 34.5589 31.8408 30.0934 30.2876 25.8221C33.9764 25.2396 37.8595 25.4338 42.3249 26.2104C41.3542 31.6466 38.4419 36.3063 33.9764 39.2185Z" fill="#000"/>
</svg>
