<svg width="59" height="38" viewBox="0 0 59 38" fill="none" xmlns="http://www.w3.org/2000/svg">
<path d="M54.0833 5.06667H36.875V0H54.0833V5.06667ZM58.2625 30.4C57.2792 33.6933 53.3458 38 45.725 38C38.1042 38 31.9583 33.6933 31.9583 23.56C31.9583 13.68 37.6125 8.61333 45.4792 8.61333C53.1 8.61333 57.7708 13.1733 58.7542 19.76C59 21.0267 59 22.8 59 25.3333H39.3333C39.5792 33.44 47.9375 33.6933 50.6417 30.4H58.2625ZM39.3333 20.2667H51.625C51.3792 16.4667 48.9208 14.6933 45.4792 14.6933C42.0375 14.6933 40.0708 16.4667 39.3333 20.2667ZM15.9792 38H0V0H17.2083C30.7292 0.253333 30.975 13.68 23.8458 17.48C32.2042 20.7733 32.45 38 15.9792 38ZM7.375 15.2H16.225C22.3708 15.2 23.3542 7.6 15.4875 7.6H7.375V15.2ZM15.7333 22.8H7.375V30.4H15.4875C23.1083 30.4 22.6167 22.8 15.7333 22.8Z" fill="#000"/>
</svg>
