<svg width="40" height="40" viewBox="0 0 40 40" fill="none" xmlns="http://www.w3.org/2000/svg">
<path d="M35.4575 0.4375H4.51999C2.14694 0.4375 0.301239 2.37109 0.301239 4.65625V35.5938C0.301239 37.9668 2.14694 39.8125 4.51999 39.8125H35.4575C37.7426 39.8125 39.6762 37.9668 39.6762 35.5938V4.65625C39.6762 2.37109 37.7426 0.4375 35.4575 0.4375ZM33.9633 27.5078L32.645 33.2207C32.5571 33.8359 32.0298 34.1875 31.4145 34.1875C17.352 34.1875 5.92624 22.8496 5.92624 8.69922C5.92624 8.08398 6.36569 7.64453 6.89304 7.46875L12.6059 6.15039C12.6938 6.15039 12.7817 6.15039 12.9575 6.0625C13.4848 6.15039 13.9243 6.41406 14.1001 6.94141L16.7368 13.0938C16.8247 13.1816 16.8247 13.3574 16.9126 13.5332C16.8247 13.9727 16.6489 14.3242 16.3852 14.5879L13.0454 17.3125C15.0669 21.6191 18.4946 25.0469 22.8012 27.0684L25.5258 23.7285C25.7895 23.4648 26.1411 23.2891 26.5805 23.2012C26.7563 23.2891 26.9321 23.2891 27.02 23.377L33.1723 26.0137C33.6997 26.1895 33.9633 26.6289 34.0512 27.1562C33.9633 27.332 33.9633 27.4199 33.9633 27.5078Z" fill="white"/>
</svg>
