<svg width="44" height="44" viewBox="0 0 44 44" fill="none" xmlns="http://www.w3.org/2000/svg">
<path d="M29.7231 13.6875C28.4926 5.86523 25.4165 0.328125 21.9887 0.328125C18.4731 0.328125 15.4848 5.86523 14.1665 13.6875H29.7231ZM13.5512 22.125C13.5512 24.1465 13.6391 25.9922 13.8149 27.75H30.0747C30.2505 25.9922 30.3383 24.1465 30.3383 22.125C30.3383 20.1914 30.2505 18.3457 30.0747 16.5H13.8149C13.6391 18.3457 13.5512 20.1914 13.5512 22.125ZM42.0278 13.6875C39.5669 7.79883 34.4692 3.14062 28.1411 1.29492C30.3383 4.2832 31.7446 8.76562 32.5356 13.6875H42.0278ZM15.7485 1.29492C9.42038 3.14062 4.32272 7.79883 1.86179 13.6875H11.354C12.145 8.76562 13.5512 4.2832 15.7485 1.29492ZM42.9946 16.5H32.8872C33.063 18.3457 33.2387 20.2793 33.2387 22.125C33.2387 24.0586 33.063 25.9043 32.8872 27.75H42.9946C43.4341 25.9922 43.6977 24.1465 43.6977 22.125C43.6977 20.1914 43.4341 18.3457 42.9946 16.5ZM10.7387 22.125C10.7387 20.2793 10.8266 18.3457 11.0024 16.5H0.894989C0.455536 18.3457 0.191864 20.1914 0.191864 22.125C0.191864 24.1465 0.455536 25.9922 0.894989 27.75H11.0024C10.8266 25.9043 10.7387 24.0586 10.7387 22.125ZM14.1665 30.5625C15.4848 38.4727 18.4731 43.9219 21.9887 43.9219C25.4165 43.9219 28.4926 38.4727 29.7231 30.5625H14.1665ZM28.1411 43.043C34.4692 41.1973 39.5669 36.5391 42.0278 30.5625H32.5356C31.8325 35.5723 30.3383 40.0547 28.1411 43.043ZM1.86179 30.5625C4.32272 36.5391 9.42038 41.1973 15.7485 43.043C13.5512 40.0547 12.145 35.5723 11.354 30.5625H1.86179Z" fill="white"/>
</svg>
