<svg width="46" height="34" viewBox="0 0 46 34" fill="none" xmlns="http://www.w3.org/2000/svg">
<path d="M44.6098 11.4121C42.5883 12.9941 40.0395 14.9277 31.0747 21.4316C29.3169 22.75 26.0649 25.6504 22.9887 25.6504C19.8247 25.6504 16.6606 22.75 14.8149 21.4316C5.85007 14.9277 3.30124 12.9941 1.27975 11.4121C0.928192 11.1484 0.488739 11.4121 0.488739 11.8516V29.7812C0.488739 32.1543 2.33444 34 4.70749 34H41.27C43.5551 34 45.4887 32.1543 45.4887 29.7812V11.8516C45.4887 11.4121 44.9614 11.1484 44.6098 11.4121ZM22.9887 22.75C25.0102 22.8379 27.9106 20.2012 29.4048 19.1465C41.0942 10.709 41.9731 9.91797 44.6098 7.80859C45.1372 7.45703 45.4887 6.8418 45.4887 6.13867V4.46875C45.4887 2.18359 43.5551 0.25 41.27 0.25H4.70749C2.33444 0.25 0.488739 2.18359 0.488739 4.46875V6.13867C0.488739 6.8418 0.752411 7.45703 1.27975 7.80859C3.91647 9.91797 4.79538 10.709 16.4848 19.1465C17.979 20.2012 20.8794 22.8379 22.9887 22.75Z" fill="white"/>
</svg>
