<svg width="34" height="46" viewBox="0 0 34 46" fill="none" xmlns="http://www.w3.org/2000/svg">
<path d="M15.2309 44.7461C16.0219 45.9766 17.8676 45.9766 18.6587 44.7461C31.4907 26.2891 33.8637 24.3555 33.8637 17.5C33.8637 8.18359 26.3051 0.625 16.9887 0.625C7.58444 0.625 0.113739 8.18359 0.113739 17.5C0.113739 24.3555 2.3989 26.2891 15.2309 44.7461ZM16.9887 24.5312C13.0337 24.5312 9.95749 21.4551 9.95749 17.5C9.95749 13.6328 13.0337 10.4688 16.9887 10.4688C20.8559 10.4688 24.02 13.6328 24.02 17.5C24.02 21.4551 20.8559 24.5312 16.9887 24.5312Z" fill="white"/>
</svg>
